KantumruyPro-Regular.ufo
<glyph name="exclam" format="2">
  <advance width="261"/>
  <unicode hex="0021"/>
  <outline>
    <contour>
      <point x="168" y="660" type="line"/>
      <point x="93" y="660" type="line"/>
      <point x="93" y="365" type="line"/>
      <point x="103" y="203" type="line"/>
      <point x="158" y="203" type="line"/>
      <point x="168" y="365" type="line"/>
    </contour>
    <contour>
      <point x="130" y="110" type="curve" smooth="yes"/>
      <point x="95" y="110"/>
      <point x="71" y="86"/>
      <point x="71" y="50" type="curve" smooth="yes"/>
      <point x="71" y="15"/>
      <point x="95" y="-9"/>
      <point x="130" y="-9" type="curve" smooth="yes"/>
      <point x="166" y="-9"/>
      <point x="190" y="15"/>
      <point x="190" y="50" type="curve" smooth="yes"/>
      <point x="190" y="86"/>
      <point x="166" y="110"/>
    </contour>
  </outline>
</glyph>
<glyph name="numbersign" format="2">
  <advance width="638"/>
  <unicode hex="0023"/>
  <outline>
    <contour>
      <point x="519" y="660" type="line"/>
      <point x="458" y="660" type="line"/>
      <point x="349" y="0" type="line"/>
      <point x="410" y="0" type="line"/>
    </contour>
    <contour>
      <point x="573" y="244" type="line"/>
      <point x="23" y="244" type="line"/>
      <point x="23" y="189" type="line"/>
      <point x="573" y="189" type="line"/>
    </contour>
    <contour>
      <point x="288" y="660" type="line"/>
      <point x="226" y="660" type="line"/>
      <point x="118" y="0" type="line"/>
      <point x="179" y="0" type="line"/>
    </contour>
    <contour>
      <point x="615" y="474" type="line"/>
      <point x="65" y="474" type="line"/>
      <point x="65" y="419" type="line"/>
      <point x="615" y="419" type="line"/>
    </contour>
  </outline>
</glyph>
<glyph name="dollar" format="2">
	<unicode hex="0024"/>
	<advance width="599"/>
	<outline>
		<contour>
			<point x="306" y="1" type="curve" smooth="yes"/>
			<point x="447" y="1"/>
			<point x="541" y="76"/>
			<point x="541" y="185" type="curve" smooth="yes"/>
			<point x="541" y="266"/>
			<point x="498" y="320"/>
			<point x="382" y="347" type="curve" smooth="yes"/>
			<point x="253" y="377" type="line" smooth="yes"/>
			<point x="167" y="397"/>
			<point x="143" y="433"/>
			<point x="143" y="483" type="curve" smooth="yes"/>
			<point x="143" y="545"/>
			<point x="193" y="596"/>
			<point x="292" y="596" type="curve" smooth="yes"/>
			<point x="376" y="596"/>
			<point x="436" y="563"/>
			<point x="478" y="478" type="curve"/>
			<point x="535" y="523" type="line"/>
			<point x="485" y="615"/>
			<point x="408" y="661"/>
			<point x="300" y="661" type="curve" smooth="yes"/>
			<point x="158" y="661"/>
			<point x="71" y="575"/>
			<point x="71" y="473" type="curve" smooth="yes"/>
			<point x="71" y="396"/>
			<point x="115" y="337"/>
			<point x="230" y="310" type="curve" smooth="yes"/>
			<point x="369" y="277" type="line" smooth="yes"/>
			<point x="440" y="260"/>
			<point x="469" y="228"/>
			<point x="469" y="179" type="curve" smooth="yes"/>
			<point x="469" y="106"/>
			<point x="406" y="67"/>
			<point x="311" y="67" type="curve" smooth="yes"/>
			<point x="208" y="67"/>
			<point x="137" y="118"/>
			<point x="103" y="196" type="curve"/>
			<point x="44" y="147" type="line"/>
			<point x="86" y="62"/>
			<point x="175" y="1"/>
		</contour>
		<contour>
			<point x="272" y="-100" type="line"/>
			<point x="333" y="-100" type="line"/>
			<point x="333" y="760" type="line"/>
			<point x="272" y="760" type="line"/>
		</contour>
	</outline>
</glyph>
<glyph name="percent" format="2">
  <advance width="825"/>
  <unicode hex="0025"/>
  <outline>
    <contour>
      <point x="173" y="0" type="line"/>
      <point x="240" y="0" type="line"/>
      <point x="653" y="660" type="line"/>
      <point x="585" y="660" type="line"/>
    </contour>
    <contour>
      <point x="192" y="669" type="curve" smooth="yes"/>
      <point x="98" y="669"/>
      <point x="40" y="595"/>
      <point x="40" y="489" type="curve" smooth="yes"/>
      <point x="40" y="382"/>
      <point x="98" y="309"/>
      <point x="192" y="309" type="curve" smooth="yes"/>
      <point x="288" y="309"/>
      <point x="346" y="382"/>
      <point x="346" y="489" type="curve" smooth="yes"/>
      <point x="346" y="595"/>
      <point x="288" y="669"/>
    </contour>
    <contour>
      <point x="192" y="612" type="curve" smooth="yes"/>
      <point x="251" y="612"/>
      <point x="282" y="564"/>
      <point x="282" y="489" type="curve" smooth="yes"/>
      <point x="282" y="413"/>
      <point x="251" y="366"/>
      <point x="192" y="366" type="curve" smooth="yes"/>
      <point x="135" y="366"/>
      <point x="104" y="413"/>
      <point x="104" y="489" type="curve" smooth="yes"/>
      <point x="104" y="564"/>
      <point x="135" y="612"/>
    </contour>
    <contour>
      <point x="633" y="351" type="curve" smooth="yes"/>
      <point x="538" y="351"/>
      <point x="480" y="278"/>
      <point x="480" y="171" type="curve" smooth="yes"/>
      <point x="480" y="64"/>
      <point x="538" y="-9"/>
      <point x="633" y="-9" type="curve" smooth="yes"/>
      <point x="727" y="-9"/>
      <point x="786" y="64"/>
      <point x="786" y="171" type="curve" smooth="yes"/>
      <point x="786" y="278"/>
      <point x="727" y="351"/>
    </contour>
    <contour>
      <point x="633" y="295" type="curve" smooth="yes"/>
      <point x="691" y="295"/>
      <point x="722" y="247"/>
      <point x="722" y="171" type="curve" smooth="yes"/>
      <point x="722" y="96"/>
      <point x="691" y="48"/>
      <point x="633" y="48" type="curve" smooth="yes"/>
      <point x="575" y="48"/>
      <point x="544" y="96"/>
      <point x="544" y="171" type="curve" smooth="yes"/>
      <point x="544" y="247"/>
      <point x="574" y="295"/>
    </contour>
  </outline>
</glyph>
<glyph name="ampersand" format="2">
  <advance width="599"/>
  <unicode hex="0026"/>
  <outline>
    <contour>
      <point x="249" y="-10" type="curve" smooth="yes"/>
      <point x="342" y="-10"/>
      <point x="410" y="28"/>
      <point x="458" y="88" type="curve"/>
      <point x="472" y="107" type="line"/>
      <point x="521" y="174"/>
      <point x="542" y="263"/>
      <point x="539" y="349" type="curve"/>
      <point x="478" y="355" type="line"/>
      <point x="483" y="267"/>
      <point x="463" y="196"/>
      <point x="428" y="139" type="curve"/>
      <point x="417" y="128" type="line"/>
      <point x="375" y="77"/>
      <point x="328" y="49"/>
      <point x="256" y="49" type="curve" smooth="yes"/>
      <point x="178" y="49"/>
      <point x="116" y="94"/>
      <point x="116" y="171" type="curve" smooth="yes"/>
      <point x="116" y="245"/>
      <point x="150" y="283"/>
      <point x="249" y="334" type="curve"/>
      <point x="279" y="346" type="line"/>
      <point x="394" y="410"/>
      <point x="425" y="465"/>
      <point x="425" y="538" type="curve" smooth="yes"/>
      <point x="425" y="619"/>
      <point x="368" y="670"/>
      <point x="286" y="670" type="curve" smooth="yes"/>
      <point x="179" y="670"/>
      <point x="129" y="597"/>
      <point x="129" y="524" type="curve" smooth="yes"/>
      <point x="129" y="451"/>
      <point x="168" y="401"/>
      <point x="309" y="221" type="curve" smooth="yes"/>
      <point x="468" y="17"/>
      <point x="512" y="-10"/>
      <point x="586" y="-10" type="curve"/>
      <point x="603" y="44" type="line"/>
      <point x="534" y="44"/>
      <point x="502" y="71"/>
      <point x="356" y="261" type="curve" smooth="yes"/>
      <point x="212" y="449"/>
      <point x="196" y="473"/>
      <point x="196" y="525" type="curve" smooth="yes"/>
      <point x="196" y="570"/>
      <point x="225" y="608"/>
      <point x="282" y="608" type="curve" smooth="yes"/>
      <point x="331" y="608"/>
      <point x="363" y="580"/>
      <point x="363" y="531" type="curve" smooth="yes"/>
      <point x="363" y="466"/>
      <point x="324" y="434"/>
      <point x="248" y="392" type="curve"/>
      <point x="212" y="373" type="line"/>
      <point x="90" y="318"/>
      <point x="48" y="252"/>
      <point x="48" y="164" type="curve" smooth="yes"/>
      <point x="48" y="62"/>
      <point x="124" y="-10"/>
    </contour>
  </outline>
</glyph>
<glyph name="parenleft" format="2">
	<advance width="338"/>
	<unicode hex="0028"/>
	<outline>
		<contour>
			<point x="270" y="750" type="line"/>
			<point x="131" y="630"/>
			<point x="60" y="472"/>
			<point x="60" y="282" type="curve" smooth="yes"/>
			<point x="60" y="91"/>
			<point x="131" y="-67"/>
			<point x="270" y="-187" type="curve"/>
			<point x="311" y="-145" type="line"/>
			<point x="181" y="-27"/>
			<point x="134" y="111"/>
			<point x="134" y="282" type="curve" smooth="yes"/>
			<point x="134" y="452"/>
			<point x="181" y="590"/>
			<point x="311" y="708" type="curve"/>
		</contour>
	</outline>
</glyph>
<glyph name="asterisk" format="2">
	<advance width="564"/>
	<unicode hex="002A"/>
	<outline>
		<contour>
			<point x="296" y="507" type="line"/>
			<point x="282" y="497" type="line"/>
			<point x="268" y="487" type="line"/>
			<point x="322" y="390" type="line"/>
			<point x="395" y="292" type="line"/>
			<point x="442" y="326" type="line"/>
			<point x="371" y="426" type="line"/>
		</contour>
		<contour>
			<point x="268" y="507" type="line"/>
			<point x="193" y="426" type="line"/>
			<point x="122" y="326" type="line"/>
			<point x="169" y="292" type="line"/>
			<point x="242" y="390" type="line"/>
			<point x="296" y="487" type="line"/>
			<point x="282" y="497" type="line"/>
		</contour>
		<contour>
			<point x="69" y="597" type="line"/>
			<point x="52" y="542" type="line"/>
			<point x="168" y="503" type="line"/>
			<point x="277" y="481" type="line"/>
			<point x="282" y="497" type="line"/>
			<point x="288" y="514" type="line"/>
			<point x="187" y="560" type="line"/>
		</contour>
		<contour>
			<point x="312" y="730" type="line"/>
			<point x="252" y="730" type="line"/>
			<point x="252" y="607" type="line"/>
			<point x="265" y="497" type="line"/>
			<point x="282" y="497" type="line"/>
			<point x="300" y="497" type="line"/>
			<point x="312" y="607" type="line"/>
		</contour>
		<contour>
			<point x="495" y="597" type="line"/>
			<point x="377" y="560" type="line"/>
			<point x="277" y="514" type="line"/>
			<point x="282" y="497" type="line"/>
			<point x="288" y="481" type="line"/>
			<point x="396" y="503" type="line"/>
			<point x="512" y="542" type="line"/>
		</contour>
	</outline>
</glyph>
<glyph name="plus" format="2">
  <advance width="604"/>
  <unicode hex="002B"/>
  <outline>
    <contour>
      <point x="336" y="562" type="line"/>
      <point x="269" y="562" type="line"/>
      <point x="269" y="69" type="line"/>
      <point x="336" y="69" type="line"/>
    </contour>
    <contour>
      <point x="544" y="350" type="line"/>
      <point x="60" y="350" type="line"/>
      <point x="60" y="283" type="line"/>
      <point x="544" y="283" type="line"/>
    </contour>
  </outline>
</glyph>
<glyph name="comma" format="2">
	<unicode hex="002C"/>
	<advance width="254"/>
	<outline>
		<contour>
			<point x="127" y="110" type="curve" smooth="yes"/>
			<point x="94" y="110"/>
			<point x="67" y="82"/>
			<point x="67" y="49" type="curve" smooth="yes"/>
			<point x="67" y="9"/>
			<point x="96" y="-9"/>
			<point x="118" y="-9" type="curve" smooth="yes"/>
			<point x="133" y="-9"/>
			<point x="140" y="-6"/>
			<point x="145" y="-2" type="curve"/>
			<point x="148" y="-4" type="line"/>
			<point x="142" y="-44"/>
			<point x="108" y="-88"/>
			<point x="56" y="-106" type="curve"/>
			<point x="94" y="-141" type="line"/>
			<point x="165" y="-107"/>
			<point x="197" y="-44"/>
			<point x="197" y="19" type="curve" smooth="yes"/>
			<point x="197" y="73"/>
			<point x="171" y="110"/>
		</contour>
	</outline>
</glyph>
<glyph name="hyphen" format="2">
	<unicode hex="002D"/>
	<advance width="498"/>
	<outline>
		<contour>
			<point x="411" y="300" type="line"/>
			<point x="87" y="300" type="line"/>
			<point x="87" y="225" type="line"/>
			<point x="411" y="225" type="line"/>
		</contour>
	</outline>
</glyph>
<glyph name="period" format="2">
  <advance width="274"/>
  <unicode hex="002E"/>
  <anchor x="77" y="50" name="_center"/>
  <outline>
    <contour>
      <point x="137" y="-9" type="curve" smooth="yes"/>
      <point x="173" y="-9"/>
      <point x="197" y="15"/>
      <point x="197" y="50" type="curve" smooth="yes"/>
      <point x="197" y="86"/>
      <point x="173" y="110"/>
      <point x="137" y="110" type="curve" smooth="yes"/>
      <point x="101" y="110"/>
      <point x="77" y="86"/>
      <point x="77" y="50" type="curve" smooth="yes"/>
      <point x="77" y="15"/>
      <point x="101" y="-9"/>
    </contour>
  </outline>
</glyph>
<glyph name="slash" format="2">
	<unicode hex="002F"/>
	<advance width="426"/>
	<outline>
		<contour>
			<point x="397" y="730" type="line"/>
			<point x="329" y="730" type="line"/>
			<point x="29" y="-70" type="line"/>
			<point x="97" y="-70" type="line"/>
		</contour>
	</outline>
</glyph>
<glyph name="zero" format="2">
	<advance width="600"/>
	<unicode hex="0030"/>
	<outline>
		<contour>
			<point x="300" y="-10" type="curve" smooth="yes"/>
			<point x="445" y="-10"/>
			<point x="536" y="110"/>
			<point x="536" y="330" type="curve" smooth="yes"/>
			<point x="536" y="550"/>
			<point x="445" y="670"/>
			<point x="300" y="670" type="curve" smooth="yes"/>
			<point x="155" y="670"/>
			<point x="64" y="550"/>
			<point x="64" y="330" type="curve" smooth="yes"/>
			<point x="64" y="110"/>
			<point x="155" y="-10"/>
		</contour>
		<contour>
			<point x="300" y="55" type="curve" smooth="yes"/>
			<point x="196" y="55"/>
			<point x="139" y="151"/>
			<point x="139" y="330" type="curve" smooth="yes"/>
			<point x="139" y="509"/>
			<point x="196" y="605"/>
			<point x="300" y="605" type="curve" smooth="yes"/>
			<point x="404" y="605"/>
			<point x="461" y="509"/>
			<point x="461" y="330" type="curve" smooth="yes"/>
			<point x="461" y="151"/>
			<point x="404" y="55"/>
		</contour>
	</outline>
</glyph>
<glyph name="one" format="2">
  <advance width="363"/>
  <unicode hex="0031"/>
  <outline>
    <contour>
      <point x="190" y="0" type="line"/>
      <point x="262" y="0" type="line"/>
      <point x="262" y="660" type="line"/>
      <point x="200" y="660" type="line"/>
      <point x="166" y="607"/>
      <point x="66" y="547"/>
      <point x="19" y="538" type="curve"/>
      <point x="36" y="472" type="line"/>
      <point x="93" y="488"/>
      <point x="151" y="522"/>
      <point x="192" y="570" type="curve"/>
      <point x="191" y="543"/>
      <point x="190" y="513"/>
      <point x="190" y="495" type="curve" smooth="yes"/>
    </contour>
  </outline>
</glyph>
<glyph name="two" format="2">
	<advance width="559"/>
	<unicode hex="0032"/>
	<outline>
		<contour>
			<point x="71" y="0" type="line"/>
			<point x="497" y="0" type="line"/>
			<point x="497" y="67" type="line"/>
			<point x="261" y="67" type="line" smooth="yes"/>
			<point x="242" y="67"/>
			<point x="193" y="66"/>
			<point x="173" y="65" type="curve"/>
			<point x="173" y="66" type="line"/>
			<point x="397" y="228"/>
			<point x="482" y="338"/>
			<point x="482" y="465" type="curve" smooth="yes"/>
			<point x="482" y="587"/>
			<point x="400" y="670"/>
			<point x="271" y="670" type="curve" smooth="yes"/>
			<point x="144" y="670"/>
			<point x="67" y="589"/>
			<point x="52" y="473" type="curve"/>
			<point x="115" y="435" type="line"/>
			<point x="123" y="537"/>
			<point x="180" y="603"/>
			<point x="269" y="603" type="curve" smooth="yes"/>
			<point x="353" y="603"/>
			<point x="407" y="547"/>
			<point x="407" y="465" type="curve" smooth="yes"/>
			<point x="407" y="345"/>
			<point x="319" y="253"/>
			<point x="71" y="59" type="curve"/>
		</contour>
	</outline>
</glyph>
<glyph name="three" format="2">
	<advance width="556"/>
	<unicode hex="0033"/>
	<outline>
		<contour>
			<point x="278" y="-10" type="curve" smooth="yes"/>
			<point x="406" y="-10"/>
			<point x="494" y="71"/>
			<point x="494" y="187" type="curve" smooth="yes"/>
			<point x="494" y="264"/>
			<point x="442" y="330"/>
			<point x="360" y="333" type="curve"/>
			<point x="360" y="335" type="line"/>
			<point x="424" y="345"/>
			<point x="479" y="405"/>
			<point x="479" y="499" type="curve" smooth="yes"/>
			<point x="479" y="594"/>
			<point x="414" y="671"/>
			<point x="284" y="671" type="curve" smooth="yes"/>
			<point x="178" y="671"/>
			<point x="99" y="613"/>
			<point x="68" y="530" type="curve"/>
			<point x="136" y="497" type="line"/>
			<point x="160" y="562"/>
			<point x="202" y="603"/>
			<point x="282" y="603" type="curve" smooth="yes"/>
			<point x="359" y="603"/>
			<point x="405" y="563"/>
			<point x="405" y="490" type="curve" smooth="yes"/>
			<point x="405" y="407"/>
			<point x="366" y="367"/>
			<point x="274" y="367" type="curve" smooth="yes"/>
			<point x="264" y="367"/>
			<point x="252" y="367"/>
			<point x="240" y="368" type="curve"/>
			<point x="240" y="296" type="line"/>
			<point x="257" y="298"/>
			<point x="275" y="299"/>
			<point x="290" y="299" type="curve" smooth="yes"/>
			<point x="378" y="299"/>
			<point x="419" y="262"/>
			<point x="419" y="187" type="curve" smooth="yes"/>
			<point x="419" y="110"/>
			<point x="369" y="57"/>
			<point x="283" y="57" type="curve" smooth="yes"/>
			<point x="185" y="57"/>
			<point x="135" y="107"/>
			<point x="114" y="182" type="curve"/>
			<point x="42" y="145" type="line"/>
			<point x="72" y="49"/>
			<point x="164" y="-10"/>
		</contour>
	</outline>
</glyph>
<glyph name="four" format="2">
	<unicode hex="0034"/>
	<advance width="585"/>
	<outline>
		<contour>
			<point x="355" y="0" type="line"/>
			<point x="426" y="0" type="line"/>
			<point x="426" y="177" type="line"/>
			<point x="541" y="177" type="line"/>
			<point x="541" y="239" type="line"/>
			<point x="426" y="239" type="line"/>
			<point x="426" y="660" type="line"/>
			<point x="335" y="660" type="line"/>
			<point x="45" y="230" type="line"/>
			<point x="44" y="230"/>
			<point x="43" y="230"/>
			<point x="43" y="230" type="curve"/>
			<point x="43" y="177" type="line"/>
			<point x="355" y="177" type="line"/>
		</contour>
		<contour>
			<point x="119" y="239" type="line"/>
			<point x="119" y="239"/>
			<point x="119" y="239"/>
			<point x="119" y="239" type="curve"/>
			<point x="295" y="497" type="line" smooth="yes"/>
			<point x="315" y="526"/>
			<point x="342" y="573"/>
			<point x="356" y="601" type="curve"/>
			<point x="358" y="601" type="line"/>
			<point x="356" y="554"/>
			<point x="355" y="530"/>
			<point x="355" y="501" type="curve" smooth="yes"/>
			<point x="355" y="239" type="line"/>
		</contour>
	</outline>
</glyph>
<glyph name="five" format="2">
	<unicode hex="0035"/>
	<advance width="558"/>
	<outline>
		<contour>
			<point x="277" y="-10" type="curve" smooth="yes"/>
			<point x="406" y="-10"/>
			<point x="497" y="73"/>
			<point x="497" y="208" type="curve" smooth="yes"/>
			<point x="497" y="335"/>
			<point x="418" y="420"/>
			<point x="298" y="420" type="curve" smooth="yes"/>
			<point x="229" y="420"/>
			<point x="180" y="396"/>
			<point x="150" y="362" type="curve"/>
			<point x="148" y="362" type="line"/>
			<point x="150" y="372" type="line"/>
			<point x="174" y="593" type="line"/>
			<point x="469" y="593" type="line"/>
			<point x="469" y="660" type="line"/>
			<point x="114" y="660" type="line"/>
			<point x="77" y="298" type="line"/>
			<point x="140" y="286" type="line"/>
			<point x="169" y="331"/>
			<point x="220" y="353"/>
			<point x="285" y="353" type="curve" smooth="yes"/>
			<point x="371" y="353"/>
			<point x="423" y="300"/>
			<point x="423" y="205" type="curve" smooth="yes"/>
			<point x="423" y="115"/>
			<point x="367" y="57"/>
			<point x="278" y="57" type="curve" smooth="yes"/>
			<point x="194" y="57"/>
			<point x="150" y="104"/>
			<point x="131" y="179" type="curve"/>
			<point x="61" y="142" type="line"/>
			<point x="97" y="44"/>
			<point x="165" y="-10"/>
		</contour>
	</outline>
</glyph>
<glyph name="six" format="2">
  <advance width="582"/>
  <unicode hex="0036"/>
  <outline>
    <contour>
      <point x="312" y="670" type="curve" smooth="yes"/>
      <point x="172" y="670"/>
      <point x="64" y="552"/>
      <point x="64" y="330" type="curve" smooth="yes"/>
      <point x="64" y="131"/>
      <point x="149" y="-10"/>
      <point x="307" y="-10" type="curve" smooth="yes"/>
      <point x="439" y="-10"/>
      <point x="523" y="73"/>
      <point x="523" y="203" type="curve" smooth="yes"/>
      <point x="523" y="332"/>
      <point x="439" y="415"/>
      <point x="312" y="415" type="curve" smooth="yes"/>
      <point x="240" y="415"/>
      <point x="156" y="375"/>
      <point x="137" y="284" type="curve"/>
      <point x="133" y="284" type="line"/>
      <point x="132" y="299"/>
      <point x="132" y="308"/>
      <point x="132" y="315" type="curve" smooth="yes"/>
      <point x="132" y="474"/>
      <point x="191" y="603"/>
      <point x="307" y="603" type="curve" smooth="yes"/>
      <point x="383" y="603"/>
      <point x="424" y="563"/>
      <point x="443" y="502" type="curve"/>
      <point x="510" y="533" type="line"/>
      <point x="472" y="628"/>
      <point x="411" y="670"/>
    </contour>
    <contour>
      <point x="307" y="346" type="curve" smooth="yes"/>
      <point x="395" y="346"/>
      <point x="448" y="291"/>
      <point x="448" y="204" type="curve" smooth="yes"/>
      <point x="448" y="113"/>
      <point x="395" y="59"/>
      <point x="306" y="59" type="curve" smooth="yes"/>
      <point x="225" y="59"/>
      <point x="164" y="124"/>
      <point x="164" y="203" type="curve" smooth="yes"/>
      <point x="164" y="285"/>
      <point x="222" y="346"/>
    </contour>
  </outline>
</glyph>
<glyph name="seven" format="2">
  <advance width="535"/>
  <unicode hex="0037"/>
  <outline>
    <contour>
      <point x="38" y="660" type="line"/>
      <point x="38" y="593" type="line"/>
      <point x="455" y="593" type="line"/>
      <point x="443" y="611" type="line"/>
      <point x="281" y="439"/>
      <point x="203" y="225"/>
      <point x="200" y="0" type="curve"/>
      <point x="274" y="0" type="line"/>
      <point x="276" y="228"/>
      <point x="344" y="419"/>
      <point x="503" y="593" type="curve"/>
      <point x="503" y="660" type="line"/>
    </contour>
  </outline>
</glyph>
<glyph name="eight" format="2">
	<unicode hex="0038"/>
	<advance width="591"/>
	<outline>
		<contour>
			<point x="296" y="669" type="curve" smooth="yes"/>
			<point x="174" y="669"/>
			<point x="95" y="603"/>
			<point x="95" y="498" type="curve" smooth="yes"/>
			<point x="95" y="427"/>
			<point x="131" y="372"/>
			<point x="190" y="348" type="curve"/>
			<point x="190" y="347" type="line"/>
			<point x="114" y="320"/>
			<point x="66" y="259"/>
			<point x="66" y="177" type="curve" smooth="yes"/>
			<point x="66" y="63"/>
			<point x="159" y="-10"/>
			<point x="296" y="-10" type="curve" smooth="yes"/>
			<point x="433" y="-10"/>
			<point x="525" y="63"/>
			<point x="525" y="177" type="curve" smooth="yes"/>
			<point x="525" y="261"/>
			<point x="477" y="320"/>
			<point x="401" y="347" type="curve"/>
			<point x="401" y="348" type="line"/>
			<point x="461" y="373"/>
			<point x="496" y="428"/>
			<point x="496" y="498" type="curve" smooth="yes"/>
			<point x="496" y="603"/>
			<point x="417" y="669"/>
		</contour>
		<contour>
			<point x="296" y="602" type="curve" smooth="yes"/>
			<point x="373" y="602"/>
			<point x="423" y="560"/>
			<point x="423" y="491" type="curve" smooth="yes"/>
			<point x="423" y="422"/>
			<point x="371" y="380"/>
			<point x="296" y="380" type="curve" smooth="yes"/>
			<point x="220" y="380"/>
			<point x="169" y="422"/>
			<point x="169" y="491" type="curve" smooth="yes"/>
			<point x="169" y="560"/>
			<point x="219" y="602"/>
		</contour>
		<contour>
			<point x="296" y="57" type="curve" smooth="yes"/>
			<point x="202" y="57"/>
			<point x="141" y="106"/>
			<point x="141" y="184" type="curve" smooth="yes"/>
			<point x="141" y="263"/>
			<point x="204" y="312"/>
			<point x="296" y="312" type="curve" smooth="yes"/>
			<point x="388" y="312"/>
			<point x="450" y="263"/>
			<point x="450" y="184" type="curve" smooth="yes"/>
			<point x="450" y="106"/>
			<point x="390" y="57"/>
		</contour>
	</outline>
</glyph>
<glyph name="nine" format="2">
  <advance width="592"/>
  <unicode hex="0039"/>
  <outline>
    <contour>
      <point x="286" y="670" type="curve" smooth="yes"/>
      <point x="150" y="670"/>
      <point x="68" y="584"/>
      <point x="68" y="451" type="curve" smooth="yes"/>
      <point x="68" y="325"/>
      <point x="155" y="245"/>
      <point x="279" y="245" type="curve" smooth="yes"/>
      <point x="353" y="245"/>
      <point x="436" y="282"/>
      <point x="457" y="379" type="curve"/>
      <point x="461" y="379" type="line"/>
      <point x="462" y="371"/>
      <point x="463" y="364"/>
      <point x="463" y="354" type="curve" smooth="yes"/>
      <point x="463" y="180"/>
      <point x="423" y="57"/>
      <point x="288" y="57" type="curve" smooth="yes"/>
      <point x="203" y="57"/>
      <point x="159" y="105"/>
      <point x="139" y="176" type="curve"/>
      <point x="68" y="138" type="line"/>
      <point x="103" y="43"/>
      <point x="181" y="-10"/>
      <point x="286" y="-10" type="curve" smooth="yes"/>
      <point x="442" y="-10"/>
      <point x="528" y="109"/>
      <point x="528" y="330" type="curve" smooth="yes"/>
      <point x="528" y="532"/>
      <point x="444" y="670"/>
    </contour>
    <contour>
      <point x="286" y="601" type="curve" smooth="yes"/>
      <point x="369" y="601"/>
      <point x="429" y="542"/>
      <point x="429" y="458" type="curve" smooth="yes"/>
      <point x="429" y="374"/>
      <point x="370" y="314"/>
      <point x="286" y="314" type="curve" smooth="yes"/>
      <point x="200" y="314"/>
      <point x="143" y="366"/>
      <point x="143" y="449" type="curve" smooth="yes"/>
      <point x="143" y="544"/>
      <point x="194" y="601"/>
    </contour>
  </outline>
</glyph>
<glyph name="colon" format="2">
	<unicode hex="003A"/>
	<advance width="283"/>
	<outline>
		<contour>
			<point x="152" y="390" type="curve" smooth="yes"/>
			<point x="188" y="390"/>
			<point x="212" y="414"/>
			<point x="212" y="449" type="curve" smooth="yes"/>
			<point x="212" y="485"/>
			<point x="188" y="509"/>
			<point x="152" y="509" type="curve" smooth="yes"/>
			<point x="116" y="509"/>
			<point x="92" y="485"/>
			<point x="92" y="449" type="curve" smooth="yes"/>
			<point x="92" y="414"/>
			<point x="116" y="390"/>
		</contour>
		<contour>
			<point x="152" y="-9" type="curve" smooth="yes"/>
			<point x="188" y="-9"/>
			<point x="212" y="15"/>
			<point x="212" y="50" type="curve" smooth="yes"/>
			<point x="212" y="86"/>
			<point x="188" y="110"/>
			<point x="152" y="110" type="curve" smooth="yes"/>
			<point x="116" y="110"/>
			<point x="92" y="86"/>
			<point x="92" y="50" type="curve" smooth="yes"/>
			<point x="92" y="15"/>
			<point x="116" y="-9"/>
		</contour>
	</outline>
	<anchor name="_center" x="92" y="449"/>
</glyph>
<glyph name="semicolon" format="2">
	<unicode hex="003B"/>
	<advance width="283"/>
	<outline>
		<contour>
			<point x="141" y="110" type="curve" smooth="yes"/>
			<point x="108" y="110"/>
			<point x="81" y="82"/>
			<point x="81" y="49" type="curve" smooth="yes"/>
			<point x="81" y="9"/>
			<point x="110" y="-9"/>
			<point x="132" y="-9" type="curve" smooth="yes"/>
			<point x="147" y="-9"/>
			<point x="154" y="-6"/>
			<point x="159" y="-2" type="curve"/>
			<point x="162" y="-4" type="line"/>
			<point x="156" y="-44"/>
			<point x="122" y="-88"/>
			<point x="70" y="-106" type="curve"/>
			<point x="108" y="-141" type="line"/>
			<point x="179" y="-107"/>
			<point x="211" y="-44"/>
			<point x="211" y="19" type="curve" smooth="yes"/>
			<point x="211" y="73"/>
			<point x="185" y="110"/>
		</contour>
		<contour>
			<point x="152" y="390" type="curve" smooth="yes"/>
			<point x="188" y="390"/>
			<point x="212" y="414"/>
			<point x="212" y="449" type="curve" smooth="yes"/>
			<point x="212" y="485"/>
			<point x="188" y="509"/>
			<point x="152" y="509" type="curve" smooth="yes"/>
			<point x="116" y="509"/>
			<point x="92" y="485"/>
			<point x="92" y="449" type="curve" smooth="yes"/>
			<point x="92" y="414"/>
			<point x="116" y="390"/>
		</contour>
	</outline>
</glyph>
<glyph name="less" format="2">
	<unicode hex="003C"/>
	<advance width="604"/>
	<outline>
		<contour>
			<point x="545" y="32" type="line"/>
			<point x="545" y="108" type="line"/>
			<point x="131" y="301" type="line"/>
			<point x="545" y="493" type="line"/>
			<point x="545" y="567" type="line"/>
			<point x="74" y="341" type="line"/>
			<point x="74" y="258" type="line"/>
		</contour>
	</outline>
</glyph>
<glyph name="equal" format="2">
	<advance width="604"/>
	<unicode hex="003D"/>
	<outline>
		<contour>
			<point x="537" y="439" type="line"/>
			<point x="67" y="439" type="line"/>
			<point x="67" y="371" type="line"/>
			<point x="537" y="371" type="line"/>
		</contour>
		<contour>
			<point x="537" y="238" type="line"/>
			<point x="67" y="238" type="line"/>
			<point x="67" y="171" type="line"/>
			<point x="537" y="171" type="line"/>
		</contour>
	</outline>
</glyph>
<glyph name="question" format="2">
	<advance width="515"/>
	<unicode hex="003F"/>
	<anchor x="199" y="50" name="_center"/>
	<outline>
		<contour>
			<point x="212" y="201" type="line"/>
			<point x="286" y="201" type="line"/>
			<point x="286" y="311" type="line"/>
			<point x="390" y="325"/>
			<point x="467" y="379"/>
			<point x="467" y="495" type="curve" smooth="yes"/>
			<point x="467" y="602"/>
			<point x="383" y="670"/>
			<point x="259" y="670" type="curve" smooth="yes"/>
			<point x="139" y="670"/>
			<point x="58" y="603"/>
			<point x="38" y="500" type="curve"/>
			<point x="102" y="464" type="line"/>
			<point x="112" y="550"/>
			<point x="169" y="603"/>
			<point x="254" y="603" type="curve" smooth="yes"/>
			<point x="344" y="603"/>
			<point x="391" y="558"/>
			<point x="391" y="484" type="curve" smooth="yes"/>
			<point x="391" y="410"/>
			<point x="351" y="375"/>
			<point x="212" y="350" type="curve"/>
		</contour>
		<contour>
			<point x="259" y="-9" type="curve" smooth="yes"/>
			<point x="295" y="-9"/>
			<point x="319" y="15"/>
			<point x="319" y="50" type="curve" smooth="yes"/>
			<point x="319" y="86"/>
			<point x="295" y="110"/>
			<point x="259" y="110" type="curve" smooth="yes"/>
			<point x="223" y="110"/>
			<point x="199" y="86"/>
			<point x="199" y="50" type="curve" smooth="yes"/>
			<point x="199" y="15"/>
			<point x="223" y="-9"/>
		</contour>
	</outline>
</glyph>
<glyph name="at" format="2">
  <advance width="925"/>
  <unicode hex="0040"/>
  <outline>
    <contour>
      <point x="470" y="-192" type="curve" smooth="yes"/>
      <point x="591" y="-192"/>
      <point x="659" y="-156"/>
      <point x="713" y="-113" type="curve"/>
      <point x="681" y="-69" type="line"/>
      <point x="638" y="-105"/>
      <point x="575" y="-139"/>
      <point x="470" y="-139" type="curve" smooth="yes"/>
      <point x="274" y="-139"/>
      <point x="126" y="-2"/>
      <point x="126" y="223" type="curve" smooth="yes"/>
      <point x="126" y="458"/>
      <point x="279" y="605"/>
      <point x="490" y="605" type="curve" smooth="yes"/>
      <point x="690" y="605"/>
      <point x="813" y="460"/>
      <point x="813" y="274" type="curve" smooth="yes"/>
      <point x="813" y="127"/>
      <point x="749" y="44"/>
      <point x="680" y="44" type="curve" smooth="yes"/>
      <point x="655" y="44"/>
      <point x="630" y="53"/>
      <point x="630" y="93" type="curve" smooth="yes"/>
      <point x="630" y="104"/>
      <point x="632" y="115"/>
      <point x="635" y="129" type="curve" smooth="yes"/>
      <point x="709" y="456" type="line"/>
      <point x="645" y="456" type="line"/>
      <point x="619" y="345" type="line"/>
      <point x="606" y="418"/>
      <point x="550" y="465"/>
      <point x="473" y="465" type="curve" smooth="yes"/>
      <point x="345" y="465"/>
      <point x="252" y="346"/>
      <point x="252" y="198" type="curve" smooth="yes"/>
      <point x="252" y="84"/>
      <point x="321" y="1"/>
      <point x="422" y="1" type="curve" smooth="yes"/>
      <point x="486" y="1"/>
      <point x="546" y="38"/>
      <point x="575" y="94" type="curve"/>
      <point x="569" y="36"/>
      <point x="604" y="-7"/>
      <point x="672" y="-7" type="curve" smooth="yes"/>
      <point x="773" y="-7"/>
      <point x="866" y="103"/>
      <point x="866" y="274" type="curve" smooth="yes"/>
      <point x="866" y="479"/>
      <point x="731" y="659"/>
      <point x="487" y="659" type="curve" smooth="yes"/>
      <point x="246" y="659"/>
      <point x="66" y="483"/>
      <point x="66" y="223" type="curve" smooth="yes"/>
      <point x="66" y="-27"/>
      <point x="227" y="-192"/>
    </contour>
    <contour>
      <point x="442" y="56" type="curve" smooth="yes"/>
      <point x="364" y="56"/>
      <point x="317" y="108"/>
      <point x="317" y="199" type="curve" smooth="yes"/>
      <point x="317" y="318"/>
      <point x="385" y="408"/>
      <point x="477" y="408" type="curve" smooth="yes"/>
      <point x="546" y="408"/>
      <point x="594" y="357"/>
      <point x="594" y="270" type="curve" smooth="yes"/>
      <point x="594" y="149"/>
      <point x="527" y="56"/>
    </contour>
  </outline>
</glyph>
<glyph name="A" format="2">
	<unicode hex="0041"/>
	<advance width="633"/>
	<outline>
		<contour>
			<point x="609" y="0" type="line"/>
			<point x="360" y="660" type="line"/>
			<point x="274" y="660" type="line"/>
			<point x="24" y="0" type="line"/>
			<point x="100" y="0" type="line"/>
			<point x="170" y="189" type="line"/>
			<point x="462" y="189" type="line"/>
			<point x="532" y="0" type="line"/>
		</contour>
		<contour>
			<point x="195" y="257" type="line"/>
			<point x="316" y="590" type="line"/>
			<point x="437" y="257" type="line"/>
		</contour>
	</outline>
	<anchor name="bottom" x="316" y="0"/>
	<anchor name="ogonek" x="609" y="0"/>
	<anchor name="top" x="316" y="660"/>
	<anchor name="top_ring" x="317" y="540"/>
</glyph>
<glyph name="B" format="2">
	<unicode hex="0042"/>
	<advance width="630"/>
	<outline>
		<contour>
			<point x="107" y="0" type="line"/>
			<point x="334" y="0" type="line" smooth="yes"/>
			<point x="481" y="0"/>
			<point x="563" y="71"/>
			<point x="563" y="183" type="curve" smooth="yes"/>
			<point x="563" y="258"/>
			<point x="514" y="320"/>
			<point x="437" y="335" type="curve"/>
			<point x="437" y="336" type="line"/>
			<point x="511" y="351"/>
			<point x="547" y="415"/>
			<point x="547" y="480" type="curve" smooth="yes"/>
			<point x="547" y="592"/>
			<point x="480" y="660"/>
			<point x="334" y="660" type="curve" smooth="yes"/>
			<point x="107" y="660" type="line"/>
		</contour>
		<contour>
			<point x="179" y="67" type="line"/>
			<point x="179" y="299" type="line"/>
			<point x="348" y="299" type="line" smooth="yes"/>
			<point x="440" y="299"/>
			<point x="487" y="257"/>
			<point x="487" y="183" type="curve" smooth="yes"/>
			<point x="487" y="109"/>
			<point x="440" y="67"/>
			<point x="348" y="67" type="curve" smooth="yes"/>
		</contour>
		<contour>
			<point x="179" y="366" type="line"/>
			<point x="179" y="593" type="line"/>
			<point x="333" y="593" type="line" smooth="yes"/>
			<point x="425" y="593"/>
			<point x="471" y="555"/>
			<point x="471" y="480" type="curve" smooth="yes"/>
			<point x="471" y="403"/>
			<point x="425" y="366"/>
			<point x="333" y="366" type="curve" smooth="yes"/>
		</contour>
	</outline>
	<anchor name="bottom" x="299" y="0"/>
	<anchor name="ogonek" x="333" y="0"/>
	<anchor name="top" x="299" y="660"/>
</glyph>
<glyph name="C" format="2">
  <advance width="663"/>
  <unicode hex="0043"/>
  <anchor x="358" y="0" name="bottom"/>
  <anchor x="440" y="0" name="ogonek"/>
  <anchor x="358" y="660" name="top"/>
  <outline>
    <contour>
      <point x="618" y="169" type="curve"/>
      <point x="546" y="196" type="line"/>
      <point x="519" y="104"/>
      <point x="451" y="57"/>
      <point x="361" y="57" type="curve" smooth="yes"/>
      <point x="226" y="57"/>
      <point x="142" y="161"/>
      <point x="142" y="330" type="curve" smooth="yes"/>
      <point x="142" y="501"/>
      <point x="232" y="603"/>
      <point x="364" y="603" type="curve" smooth="yes"/>
      <point x="455" y="603"/>
      <point x="509" y="561"/>
      <point x="537" y="480" type="curve"/>
      <point x="607" y="514" type="line"/>
      <point x="568" y="616"/>
      <point x="485" y="670"/>
      <point x="359" y="670" type="curve" smooth="yes"/>
      <point x="182" y="670"/>
      <point x="67" y="538"/>
      <point x="67" y="330" type="curve" smooth="yes"/>
      <point x="67" y="121"/>
      <point x="182" y="-10"/>
      <point x="361" y="-10" type="curve" smooth="yes"/>
      <point x="483" y="-10"/>
      <point x="578" y="56"/>
    </contour>
  </outline>
</glyph>
<glyph name="D" format="2">
	<unicode hex="0044"/>
	<advance width="699"/>
	<outline>
		<contour>
			<point x="313" y="660" type="curve" smooth="yes"/>
			<point x="107" y="660" type="line"/>
			<point x="107" y="0" type="line"/>
			<point x="313" y="0" type="line" smooth="yes"/>
			<point x="513" y="0"/>
			<point x="632" y="118"/>
			<point x="632" y="331" type="curve" smooth="yes"/>
			<point x="632" y="543"/>
			<point x="513" y="660"/>
		</contour>
		<contour>
			<point x="319" y="67" type="curve" smooth="yes"/>
			<point x="179" y="67" type="line"/>
			<point x="179" y="593" type="line"/>
			<point x="319" y="593" type="line" smooth="yes"/>
			<point x="469" y="593"/>
			<point x="556" y="496"/>
			<point x="556" y="331" type="curve" smooth="yes"/>
			<point x="556" y="165"/>
			<point x="469" y="67"/>
		</contour>
	</outline>
	<anchor name="bottom" x="333" y="0"/>
	<anchor name="center" x="351" y="330"/>
	<anchor name="ogonek" x="321" y="0"/>
	<anchor name="top" x="350" y="660"/>
</glyph>
<glyph name="E" format="2">
	<advance width="613"/>
	<unicode hex="0045"/>
	<anchor x="564" y="0" name="ogonek"/>
	<anchor x="339" y="0" name="bottom"/>
	<anchor x="328" y="660" name="top"/>
	<outline>
		<contour>
			<point x="107" y="0" type="line"/>
			<point x="564" y="0" type="line"/>
			<point x="564" y="67" type="line"/>
			<point x="179" y="67" type="line"/>
			<point x="179" y="301" type="line"/>
			<point x="469" y="301" type="line"/>
			<point x="469" y="369" type="line"/>
			<point x="179" y="369" type="line"/>
			<point x="179" y="593" type="line"/>
			<point x="550" y="593" type="line"/>
			<point x="550" y="660" type="line"/>
			<point x="107" y="660" type="line"/>
		</contour>
	</outline>
</glyph>
<glyph name="F" format="2">
  <advance width="585"/>
  <unicode hex="0046"/>
  <anchor x="143" y="0" name="bottom"/>
  <anchor x="179" y="0" name="ogonek"/>
  <anchor x="323" y="660" name="top"/>
  <outline>
    <contour>
      <point x="548" y="593" type="line"/>
      <point x="548" y="660" type="line"/>
      <point x="107" y="660" type="line"/>
      <point x="107" y="0" type="line"/>
      <point x="179" y="0" type="line"/>
      <point x="179" y="301" type="line"/>
      <point x="468" y="301" type="line"/>
      <point x="468" y="369" type="line"/>
      <point x="179" y="369" type="line"/>
      <point x="179" y="593" type="line"/>
    </contour>
  </outline>
</glyph>
<glyph name="G" format="2">
  <advance width="700"/>
  <unicode hex="0047"/>
  <anchor x="387" y="0" name="bottom"/>
  <anchor x="438" y="0" name="ogonek"/>
  <anchor x="359" y="660" name="top"/>
  <outline>
    <contour>
      <point x="362" y="-10" type="curve" smooth="yes"/>
      <point x="471" y="-10"/>
      <point x="544" y="40"/>
      <point x="577" y="126" type="curve"/>
      <point x="562" y="128" type="line"/>
      <point x="566" y="0" type="line"/>
      <point x="623" y="0" type="line"/>
      <point x="623" y="330" type="line"/>
      <point x="352" y="330" type="line"/>
      <point x="352" y="263" type="line"/>
      <point x="557" y="263" type="line"/>
      <point x="557" y="236" type="line" smooth="yes"/>
      <point x="557" y="126"/>
      <point x="479" y="57"/>
      <point x="365" y="57" type="curve" smooth="yes"/>
      <point x="221" y="57"/>
      <point x="142" y="160"/>
      <point x="142" y="330" type="curve" smooth="yes"/>
      <point x="142" y="500"/>
      <point x="235" y="603"/>
      <point x="367" y="603" type="curve" smooth="yes"/>
      <point x="460" y="603"/>
      <point x="524" y="561"/>
      <point x="552" y="480" type="curve"/>
      <point x="618" y="516" type="line"/>
      <point x="571" y="620"/>
      <point x="494" y="670"/>
      <point x="367" y="670" type="curve" smooth="yes"/>
      <point x="189" y="670"/>
      <point x="67" y="539"/>
      <point x="67" y="330" type="curve" smooth="yes"/>
      <point x="67" y="121"/>
      <point x="181" y="-10"/>
    </contour>
  </outline>
</glyph>
<glyph name="H" format="2">
  <advance width="711"/>
  <unicode hex="0048"/>
  <anchor x="356" y="0" name="bottom"/>
  <anchor x="604" y="0" name="ogonek"/>
  <anchor x="356" y="660" name="top"/>
  <outline>
    <contour>
      <point x="604" y="660" type="line"/>
      <point x="532" y="660" type="line"/>
      <point x="532" y="0" type="line"/>
      <point x="604" y="0" type="line"/>
    </contour>
    <contour>
      <point x="179" y="660" type="line"/>
      <point x="107" y="660" type="line"/>
      <point x="107" y="0" type="line"/>
      <point x="179" y="0" type="line"/>
    </contour>
    <contour>
      <point x="566" y="369" type="line"/>
      <point x="145" y="369" type="line"/>
      <point x="145" y="301" type="line"/>
      <point x="566" y="301" type="line"/>
    </contour>
  </outline>
</glyph>
<glyph name="I" format="2">
	<unicode hex="0049"/>
	<advance width="286"/>
	<outline>
		<contour>
			<point x="179" y="660" type="line"/>
			<point x="107" y="660" type="line"/>
			<point x="107" y="0" type="line"/>
			<point x="179" y="0" type="line"/>
		</contour>
	</outline>
	<anchor name="bottom" x="143" y="0"/>
	<anchor name="ogonek" x="179" y="0"/>
	<anchor name="top" x="143" y="660"/>
</glyph>
<glyph name="J" format="2">
	<advance width="540"/>
	<unicode hex="004A"/>
	<anchor x="295" y="0" name="ogonek"/>
	<anchor x="242" y="0" name="bottom"/>
	<anchor x="404" y="660" name="top"/>
	<outline>
		<contour>
			<point x="440" y="660" type="line"/>
			<point x="368" y="660" type="line"/>
			<point x="368" y="241" type="line" smooth="yes"/>
			<point x="368" y="135"/>
			<point x="340" y="57"/>
			<point x="227" y="57" type="curve" smooth="yes"/>
			<point x="131" y="57"/>
			<point x="98" y="115"/>
			<point x="112" y="230" type="curve"/>
			<point x="45" y="216" type="line"/>
			<point x="21" y="78"/>
			<point x="90" y="-10"/>
			<point x="229" y="-10" type="curve" smooth="yes"/>
			<point x="361" y="-10"/>
			<point x="440" y="78"/>
			<point x="440" y="224" type="curve" smooth="yes"/>
		</contour>
	</outline>
</glyph>
<glyph name="K" format="2">
	<advance width="626"/>
	<unicode hex="004B"/>
	<anchor x="600" y="0" name="ogonek"/>
	<anchor x="356" y="0" name="bottom"/>
	<anchor x="340" y="660" name="top"/>
	<outline>
		<contour>
			<point x="596" y="660" type="line"/>
			<point x="502" y="660" type="line"/>
			<point x="143" y="275" type="line"/>
			<point x="144" y="178" type="line"/>
			<point x="311" y="357" type="line"/>
			<point x="322" y="368" type="line"/>
		</contour>
		<contour>
			<point x="179" y="660" type="line"/>
			<point x="107" y="660" type="line"/>
			<point x="107" y="0" type="line"/>
			<point x="179" y="0" type="line"/>
		</contour>
		<contour>
			<point x="330" y="415" type="line"/>
			<point x="271" y="373" type="line"/>
			<point x="513" y="0" type="line"/>
			<point x="600" y="0" type="line"/>
		</contour>
	</outline>
</glyph>
<glyph name="L" format="2">
	<unicode hex="004C"/>
	<advance width="573"/>
	<outline>
		<contour>
			<point x="179" y="67" type="line"/>
			<point x="179" y="660" type="line"/>
			<point x="107" y="660" type="line"/>
			<point x="107" y="0" type="line"/>
			<point x="544" y="0" type="line"/>
			<point x="544" y="67" type="line"/>
		</contour>
	</outline>
	<anchor name="bottom" x="348" y="0"/>
	<anchor name="center" x="383" y="353"/>
	<anchor name="ogonek" x="544" y="0"/>
	<anchor name="top" x="143" y="660"/>
	<anchor name="topright" x="322" y="660"/>
</glyph>
<glyph name="M" format="2">
  <advance width="828"/>
  <unicode hex="004D"/>
  <anchor x="414" y="0" name="bottom"/>
  <anchor x="721" y="0" name="ogonek"/>
  <anchor x="414" y="660" name="top"/>
  <outline>
    <contour>
      <point x="721" y="660" type="line"/>
      <point x="611" y="660" type="line"/>
      <point x="459" y="232" type="line"/>
      <point x="415" y="85" type="line"/>
      <point x="413" y="85" type="line"/>
      <point x="370" y="233" type="line"/>
      <point x="217" y="660" type="line"/>
      <point x="107" y="660" type="line"/>
      <point x="107" y="0" type="line"/>
      <point x="175" y="0" type="line"/>
      <point x="175" y="436" type="line"/>
      <point x="167" y="595" type="line"/>
      <point x="168" y="595" type="line"/>
      <point x="383" y="0" type="line"/>
      <point x="445" y="0" type="line"/>
      <point x="659" y="595" type="line"/>
      <point x="660" y="595" type="line"/>
      <point x="652" y="436" type="line"/>
      <point x="652" y="0" type="line"/>
      <point x="721" y="0" type="line"/>
    </contour>
  </outline>
</glyph>
<glyph name="N" format="2">
	<unicode hex="004E"/>
	<advance width="711"/>
	<outline>
		<contour>
			<point x="604" y="660" type="line"/>
			<point x="536" y="660" type="line"/>
			<point x="536" y="179" type="line"/>
			<point x="539" y="83" type="line"/>
			<point x="538" y="83" type="line"/>
			<point x="476" y="199" type="line"/>
			<point x="195" y="660" type="line"/>
			<point x="107" y="660" type="line"/>
			<point x="107" y="0" type="line"/>
			<point x="175" y="0" type="line"/>
			<point x="175" y="481" type="line"/>
			<point x="172" y="576" type="line"/>
			<point x="173" y="576" type="line"/>
			<point x="234" y="462" type="line"/>
			<point x="516" y="0" type="line"/>
			<point x="604" y="0" type="line"/>
		</contour>
	</outline>
	<anchor name="bottom" x="381" y="0"/>
	<anchor name="ogonek" x="604" y="0"/>
	<anchor name="top" x="360" y="660"/>
</glyph>
<glyph name="O" format="2">
	<advance width="726"/>
	<unicode hex="004F"/>
	<anchor x="363" y="0" name="bottom"/>
	<anchor x="461" y="5" name="ogonek"/>
	<anchor x="363" y="660" name="top"/>
	<anchor x="532" y="660" name="topright"/>
	<anchor x="22" y="660" name="topleft"/>
	<anchor x="363" y="330" name="center"/>
	<outline>
		<contour>
			<point x="363" y="670" type="curve" smooth="yes"/>
			<point x="181" y="670"/>
			<point x="67" y="539"/>
			<point x="67" y="330" type="curve" smooth="yes"/>
			<point x="67" y="121"/>
			<point x="181" y="-10"/>
			<point x="363" y="-10" type="curve" smooth="yes"/>
			<point x="545" y="-10"/>
			<point x="659" y="121"/>
			<point x="659" y="330" type="curve" smooth="yes"/>
			<point x="659" y="539"/>
			<point x="545" y="670"/>
		</contour>
		<contour>
			<point x="363" y="603" type="curve" smooth="yes"/>
			<point x="499" y="603"/>
			<point x="584" y="500"/>
			<point x="584" y="330" type="curve" smooth="yes"/>
			<point x="584" y="160"/>
			<point x="499" y="57"/>
			<point x="363" y="57" type="curve" smooth="yes"/>
			<point x="227" y="57"/>
			<point x="142" y="160"/>
			<point x="142" y="330" type="curve" smooth="yes"/>
			<point x="142" y="500"/>
			<point x="227" y="603"/>
		</contour>
	</outline>
</glyph>
<glyph name="P" format="2">
  <advance width="586"/>
  <unicode hex="0050"/>
  <anchor x="143" y="0" name="bottom"/>
  <anchor x="179" y="0" name="ogonek"/>
  <anchor x="302" y="660" name="top"/>
  <outline>
    <contour>
      <point x="328" y="660" type="curve" smooth="yes"/>
      <point x="107" y="660" type="line"/>
      <point x="107" y="0" type="line"/>
      <point x="179" y="0" type="line"/>
      <point x="179" y="262" type="line"/>
      <point x="328" y="262" type="line" smooth="yes"/>
      <point x="456" y="262"/>
      <point x="541" y="338"/>
      <point x="541" y="461" type="curve" smooth="yes"/>
      <point x="541" y="584"/>
      <point x="456" y="660"/>
    </contour>
    <contour>
      <point x="317" y="330" type="curve" smooth="yes"/>
      <point x="179" y="330" type="line"/>
      <point x="179" y="593" type="line"/>
      <point x="317" y="593" type="line" smooth="yes"/>
      <point x="418" y="593"/>
      <point x="465" y="546"/>
      <point x="465" y="461" type="curve" smooth="yes"/>
      <point x="465" y="376"/>
      <point x="418" y="330"/>
    </contour>
  </outline>
</glyph>
<glyph name="Q" format="2">
  <advance width="726"/>
  <unicode hex="0051"/>
  <anchor x="350" y="-210" name="bottom"/>
  <anchor x="541" y="-190" name="ogonek"/>
  <anchor x="350" y="660" name="top"/>
  <anchor x="363" y="330" name="center"/>
  <anchor x="22" y="660" name="topleft"/>
  <anchor x="532" y="660" name="topright"/>
  <outline>
    <contour>
      <point x="523" y="-195" type="curve" smooth="yes"/>
      <point x="568" y="-195"/>
      <point x="628" y="-179"/>
      <point x="657" y="-152" type="curve"/>
      <point x="634" y="-85" type="line"/>
      <point x="611" y="-109"/>
      <point x="569" y="-122"/>
      <point x="525" y="-122" type="curve" smooth="yes"/>
      <point x="458" y="-122"/>
      <point x="399" y="-98"/>
      <point x="399" y="15" type="curve" smooth="yes"/>
      <point x="399" y="25"/>
      <point x="400" y="35"/>
      <point x="402" y="47" type="curve"/>
      <point x="340" y="48" type="line"/>
      <point x="338" y="36"/>
      <point x="338" y="23"/>
      <point x="338" y="13" type="curve" smooth="yes"/>
      <point x="338" y="-143"/>
      <point x="426" y="-195"/>
    </contour>
    <component base="O"/>
  </outline>
</glyph>
<glyph name="R" format="2">
	<unicode hex="0052"/>
	<advance width="640"/>
	<outline>
		<contour>
			<point x="348" y="660" type="curve" smooth="yes"/>
			<point x="107" y="660" type="line"/>
			<point x="107" y="0" type="line"/>
			<point x="179" y="0" type="line"/>
			<point x="179" y="277" type="line"/>
			<point x="340" y="277" type="line"/>
			<point x="347" y="278" type="line" smooth="yes"/>
			<point x="473" y="296"/>
			<point x="561" y="350"/>
			<point x="561" y="469" type="curve" smooth="yes"/>
			<point x="561" y="587"/>
			<point x="476" y="660"/>
		</contour>
		<contour>
			<point x="346" y="345" type="curve" smooth="yes"/>
			<point x="179" y="345" type="line"/>
			<point x="179" y="593" type="line"/>
			<point x="346" y="593" type="line" smooth="yes"/>
			<point x="438" y="593"/>
			<point x="485" y="551"/>
			<point x="485" y="469" type="curve" smooth="yes"/>
			<point x="485" y="387"/>
			<point x="438" y="345"/>
		</contour>
		<contour>
			<point x="390" y="331" type="line"/>
			<point x="330" y="291" type="line"/>
			<point x="512" y="0" type="line"/>
			<point x="597" y="0" type="line"/>
		</contour>
	</outline>
	<anchor name="bottom" x="354" y="0"/>
	<anchor name="ogonek" x="597" y="0"/>
	<anchor name="top" x="311" y="660"/>
</glyph>
<glyph name="S" format="2">
	<advance width="617"/>
	<unicode hex="0053"/>
	<anchor x="395" y="0" name="ogonek"/>
	<anchor x="308" y="0" name="bottom"/>
	<anchor x="313" y="660" name="top"/>
	<outline>
		<contour>
			<point x="308" y="670" type="curve" smooth="yes"/>
			<point x="161" y="670"/>
			<point x="72" y="581"/>
			<point x="72" y="476" type="curve" smooth="yes"/>
			<point x="72" y="397"/>
			<point x="117" y="336"/>
			<point x="236" y="308" type="curve" smooth="yes"/>
			<point x="380" y="274" type="line" smooth="yes"/>
			<point x="459" y="255"/>
			<point x="484" y="220"/>
			<point x="484" y="173" type="curve" smooth="yes"/>
			<point x="484" y="98"/>
			<point x="419" y="57"/>
			<point x="319" y="57" type="curve" smooth="yes"/>
			<point x="212" y="57"/>
			<point x="139" y="110"/>
			<point x="104" y="191" type="curve"/>
			<point x="43" y="140" type="line"/>
			<point x="88" y="53"/>
			<point x="177" y="-10"/>
			<point x="316" y="-10" type="curve" smooth="yes"/>
			<point x="462" y="-10"/>
			<point x="559" y="67"/>
			<point x="559" y="179" type="curve" smooth="yes"/>
			<point x="559" y="263"/>
			<point x="515" y="318"/>
			<point x="394" y="346" type="curve" smooth="yes"/>
			<point x="260" y="377" type="line" smooth="yes"/>
			<point x="171" y="398"/>
			<point x="147" y="435"/>
			<point x="147" y="486" type="curve" smooth="yes"/>
			<point x="147" y="551"/>
			<point x="197" y="603"/>
			<point x="301" y="603" type="curve" smooth="yes"/>
			<point x="389" y="603"/>
			<point x="450" y="569"/>
			<point x="494" y="482" type="curve"/>
			<point x="553" y="528" type="line"/>
			<point x="501" y="622"/>
			<point x="421" y="670"/>
		</contour>
	</outline>
</glyph>
<glyph name="T" format="2">
	<advance width="579"/>
	<unicode hex="0054"/>
	<anchor x="289" y="0" name="bottom"/>
	<anchor x="325" y="0" name="ogonek"/>
	<anchor x="289" y="660" name="top"/>
	<anchor x="289" y="324" name="center"/>
	<outline>
		<contour>
			<point x="549" y="660" type="line"/>
			<point x="29" y="660" type="line"/>
			<point x="29" y="593" type="line"/>
			<point x="253" y="593" type="line"/>
			<point x="253" y="0" type="line"/>
			<point x="325" y="0" type="line"/>
			<point x="325" y="593" type="line"/>
			<point x="549" y="593" type="line"/>
		</contour>
	</outline>
</glyph>
<glyph name="U" format="2">
	<unicode hex="0055"/>
	<advance width="685"/>
	<outline>
		<contour>
			<point x="591" y="660" type="line"/>
			<point x="519" y="660" type="line"/>
			<point x="519" y="262" type="line" smooth="yes"/>
			<point x="519" y="137"/>
			<point x="473" y="57"/>
			<point x="342" y="57" type="curve" smooth="yes"/>
			<point x="211" y="57"/>
			<point x="166" y="137"/>
			<point x="166" y="262" type="curve" smooth="yes"/>
			<point x="166" y="660" type="line"/>
			<point x="94" y="660" type="line"/>
			<point x="94" y="245" type="line" smooth="yes"/>
			<point x="94" y="76"/>
			<point x="184" y="-10"/>
			<point x="342" y="-10" type="curve" smooth="yes"/>
			<point x="502" y="-10"/>
			<point x="591" y="76"/>
			<point x="591" y="245" type="curve" smooth="yes"/>
		</contour>
	</outline>
	<anchor name="bottom" x="342" y="0"/>
	<anchor name="ogonek" x="459" y="11"/>
	<anchor name="top" x="342" y="633"/>
	<anchor name="top_ring" x="342" y="607"/>
	<anchor name="topright" x="607" y="660"/>
</glyph>
<glyph name="V" format="2">
	<unicode hex="0056"/>
	<advance width="621"/>
	<outline>
		<contour>
			<point x="594" y="660" type="line"/>
			<point x="517" y="660" type="line"/>
			<point x="350" y="189" type="line"/>
			<point x="311" y="66" type="line"/>
			<point x="272" y="189" type="line"/>
			<point x="104" y="660" type="line"/>
			<point x="27" y="660" type="line"/>
			<point x="270" y="0" type="line"/>
			<point x="352" y="0" type="line"/>
		</contour>
	</outline>
	<anchor name="bottom" x="311" y="0"/>
	<anchor name="ogonek" x="352" y="0"/>
	<anchor name="top" x="311" y="660"/>
</glyph>
<glyph name="W" format="2">
	<unicode hex="0057"/>
	<advance width="937"/>
	<outline>
		<contour>
			<point x="228" y="0" type="line"/>
			<point x="317" y="0" type="line"/>
			<point x="434" y="437" type="line"/>
			<point x="468" y="585" type="line"/>
			<point x="469" y="585" type="line"/>
			<point x="503" y="437" type="line"/>
			<point x="621" y="0" type="line"/>
			<point x="709" y="0" type="line"/>
			<point x="902" y="660" type="line"/>
			<point x="831" y="660" type="line"/>
			<point x="667" y="64" type="line"/>
			<point x="511" y="660" type="line"/>
			<point x="429" y="660" type="line"/>
			<point x="273" y="66" type="line"/>
			<point x="109" y="660" type="line"/>
			<point x="34" y="660" type="line"/>
		</contour>
	</outline>
	<anchor name="bottom" x="469" y="0"/>
	<anchor name="ogonek" x="709" y="0"/>
	<anchor name="top" x="469" y="660"/>
</glyph>
<glyph name="X" format="2">
	<unicode hex="0058"/>
	<advance width="574"/>
	<outline>
		<contour>
			<point x="544" y="0" type="line"/>
			<point x="330" y="340" type="line"/>
			<point x="536" y="660" type="line"/>
			<point x="457" y="660" type="line"/>
			<point x="292" y="397" type="line"/>
			<point x="127" y="660" type="line"/>
			<point x="43" y="660" type="line"/>
			<point x="247" y="337" type="line"/>
			<point x="23" y="0" type="line"/>
			<point x="107" y="0" type="line"/>
			<point x="285" y="279" type="line"/>
			<point x="461" y="0" type="line"/>
		</contour>
	</outline>
	<anchor name="bottom" x="286" y="0"/>
	<anchor name="ogonek" x="544" y="0"/>
	<anchor name="top" x="286" y="660"/>
</glyph>
<glyph name="Y" format="2">
  <advance width="547"/>
  <unicode hex="0059"/>
  <anchor x="273" y="0" name="bottom"/>
  <anchor x="309" y="0" name="ogonek"/>
  <anchor x="273" y="638" name="top"/>
  <outline>
    <contour>
      <point x="536" y="660" type="line"/>
      <point x="451" y="660" type="line"/>
      <point x="329" y="434" type="line"/>
      <point x="273" y="332" type="line"/>
      <point x="218" y="434" type="line"/>
      <point x="95" y="660" type="line"/>
      <point x="11" y="660" type="line"/>
      <point x="237" y="258" type="line"/>
      <point x="237" y="0" type="line"/>
      <point x="309" y="0" type="line"/>
      <point x="309" y="258" type="line"/>
    </contour>
  </outline>
</glyph>
<glyph name="Z" format="2">
	<unicode hex="005A"/>
	<advance width="602"/>
	<outline>
		<contour>
			<point x="117" y="41" type="line"/>
			<point x="538" y="596" type="line"/>
			<point x="538" y="660" type="line"/>
			<point x="62" y="660" type="line"/>
			<point x="62" y="593" type="line"/>
			<point x="486" y="593" type="line"/>
			<point x="474" y="619" type="line"/>
			<point x="53" y="64" type="line"/>
			<point x="53" y="0" type="line"/>
			<point x="551" y="0" type="line"/>
			<point x="551" y="67" type="line"/>
			<point x="105" y="67" type="line"/>
		</contour>
	</outline>
	<anchor name="bottom" x="293" y="0"/>
	<anchor name="ogonek" x="551" y="0"/>
	<anchor name="top" x="294" y="660"/>
</glyph>
<glyph name="bracketleft" format="2">
  <advance width="338"/>
  <unicode hex="005B"/>
  <outline>
    <contour>
      <point x="308" y="667" type="line"/>
      <point x="308" y="730" type="line"/>
      <point x="86" y="730" type="line"/>
      <point x="86" y="-168" type="line"/>
      <point x="308" y="-168" type="line"/>
      <point x="308" y="-105" type="line"/>
      <point x="153" y="-105" type="line"/>
      <point x="153" y="667" type="line"/>
    </contour>
  </outline>
</glyph>
<glyph name="asciicircum" format="2">
	<advance width="557"/>
	<unicode hex="005E"/>
	<outline>
		<contour>
			<point x="28" y="355" type="line"/>
			<point x="102" y="355" type="line"/>
			<point x="278" y="669" type="line"/>
			<point x="455" y="355" type="line"/>
			<point x="528" y="355" type="line"/>
			<point x="313" y="730" type="line"/>
			<point x="244" y="730" type="line"/>
		</contour>
	</outline>
</glyph>
<glyph name="underscore" format="2">
	<advance width="534"/>
	<unicode hex="005F"/>
	<outline>
		<contour>
			<point x="534" y="-97" type="line"/>
			<point x="0" y="-97" type="line"/>
			<point x="0" y="-164" type="line"/>
			<point x="534" y="-164" type="line"/>
		</contour>
	</outline>
</glyph>
<glyph name="a" format="2">
	<unicode hex="0061"/>
	<advance width="524"/>
	<outline>
		<contour>
			<point x="374" y="325" type="curve" smooth="yes"/>
			<point x="374" y="183" type="line" smooth="yes"/>
			<point x="374" y="93"/>
			<point x="300" y="53"/>
			<point x="228" y="53" type="curve" smooth="yes"/>
			<point x="167" y="53"/>
			<point x="133" y="83"/>
			<point x="133" y="128" type="curve" smooth="yes"/>
			<point x="133" y="174"/>
			<point x="164" y="197"/>
			<point x="230" y="211" type="curve" smooth="yes"/>
			<point x="387" y="245" type="line"/>
			<point x="387" y="305" type="line"/>
			<point x="196" y="265" type="line" smooth="yes"/>
			<point x="106" y="246"/>
			<point x="60" y="196"/>
			<point x="60" y="124" type="curve" smooth="yes"/>
			<point x="60" y="35"/>
			<point x="130" y="-10"/>
			<point x="217" y="-10" type="curve" smooth="yes"/>
			<point x="288" y="-10"/>
			<point x="368" y="26"/>
			<point x="390" y="105" type="curve"/>
			<point x="372" y="107" type="line"/>
			<point x="372" y="93" type="line" smooth="yes"/>
			<point x="372" y="24"/>
			<point x="414" y="-7"/>
			<point x="466" y="-7" type="curve" smooth="yes"/>
			<point x="487" y="-7"/>
			<point x="504" y="-3"/>
			<point x="515" y="3" type="curve"/>
			<point x="519" y="60" type="line"/>
			<point x="509" y="56"/>
			<point x="495" y="54"/>
			<point x="484" y="54" type="curve" smooth="yes"/>
			<point x="459" y="54"/>
			<point x="446" y="68"/>
			<point x="446" y="95" type="curve" smooth="yes"/>
			<point x="446" y="339" type="line" smooth="yes"/>
			<point x="446" y="455"/>
			<point x="366" y="510"/>
			<point x="261" y="510" type="curve" smooth="yes"/>
			<point x="161" y="510"/>
			<point x="89" y="461"/>
			<point x="63" y="385" type="curve"/>
			<point x="122" y="349" type="line"/>
			<point x="144" y="417"/>
			<point x="192" y="447"/>
			<point x="259" y="447" type="curve" smooth="yes"/>
			<point x="332" y="447"/>
			<point x="374" y="401"/>
		</contour>
	</outline>
	<anchor name="bottom" x="264" y="0"/>
	<anchor name="ogonek" x="515" y="3"/>
	<anchor name="top" x="264" y="500"/>
</glyph>
<glyph name="b" format="2">
	<unicode hex="0062"/>
	<advance width="604"/>
	<outline>
		<contour>
			<point x="326" y="-10" type="curve" smooth="yes"/>
			<point x="447" y="-10"/>
			<point x="545" y="88"/>
			<point x="545" y="250" type="curve" smooth="yes"/>
			<point x="545" y="413"/>
			<point x="447" y="510"/>
			<point x="327" y="510" type="curve" smooth="yes"/>
			<point x="247" y="510"/>
			<point x="181" y="463"/>
			<point x="155" y="395" type="curve"/>
			<point x="164" y="382" type="line"/>
			<point x="164" y="730" type="line"/>
			<point x="92" y="730" type="line"/>
			<point x="92" y="0" type="line"/>
			<point x="155" y="0" type="line"/>
			<point x="161" y="127" type="line"/>
			<point x="152" y="114" type="line"/>
			<point x="175" y="41"/>
			<point x="243" y="-10"/>
		</contour>
		<contour>
			<point x="318" y="53" type="curve" smooth="yes"/>
			<point x="227" y="53"/>
			<point x="164" y="129"/>
			<point x="164" y="248" type="curve" smooth="yes"/>
			<point x="164" y="367"/>
			<point x="227" y="447"/>
			<point x="319" y="447" type="curve" smooth="yes"/>
			<point x="416" y="447"/>
			<point x="473" y="370"/>
			<point x="473" y="250" type="curve" smooth="yes"/>
			<point x="473" y="130"/>
			<point x="415" y="53"/>
		</contour>
	</outline>
	<anchor name="bottom" x="311" y="0"/>
	<anchor name="ogonek" x="429" y="18"/>
	<anchor name="top" x="128" y="698"/>
</glyph>
<glyph name="c" format="2">
  <advance width="538"/>
  <unicode hex="0063"/>
  <anchor x="286" y="0" name="bottom"/>
  <anchor x="396" y="18" name="ogonek"/>
  <anchor x="281" y="500" name="top"/>
  <outline>
    <contour>
      <point x="288" y="510" type="curve" smooth="yes"/>
      <point x="154" y="510"/>
      <point x="57" y="412"/>
      <point x="57" y="250" type="curve" smooth="yes"/>
      <point x="57" y="88"/>
      <point x="153" y="-10"/>
      <point x="287" y="-10" type="curve" smooth="yes"/>
      <point x="389" y="-10"/>
      <point x="460" y="45"/>
      <point x="490" y="137" type="curve"/>
      <point x="424" y="160" type="line"/>
      <point x="410" y="92"/>
      <point x="362" y="53"/>
      <point x="287" y="53" type="curve" smooth="yes"/>
      <point x="190" y="53"/>
      <point x="129" y="127"/>
      <point x="129" y="250" type="curve" smooth="yes"/>
      <point x="129" y="373"/>
      <point x="190" y="447"/>
      <point x="286" y="447" type="curve" smooth="yes"/>
      <point x="354" y="447"/>
      <point x="398" y="411"/>
      <point x="417" y="344" type="curve"/>
      <point x="485" y="377" type="line"/>
      <point x="453" y="458"/>
      <point x="388" y="510"/>
    </contour>
  </outline>
</glyph>
<glyph name="d" format="2">
	<unicode hex="0064"/>
	<advance width="604"/>
	<outline>
		<contour>
			<point x="277" y="-10" type="curve" smooth="yes"/>
			<point x="361" y="-10"/>
			<point x="437" y="41"/>
			<point x="452" y="131" type="curve"/>
			<point x="442" y="126" type="line"/>
			<point x="449" y="0" type="line"/>
			<point x="512" y="0" type="line"/>
			<point x="512" y="730" type="line"/>
			<point x="440" y="730" type="line"/>
			<point x="440" y="381" type="line"/>
			<point x="449" y="387" type="line"/>
			<point x="429" y="461"/>
			<point x="364" y="510"/>
			<point x="283" y="510" type="curve" smooth="yes"/>
			<point x="163" y="510"/>
			<point x="59" y="416"/>
			<point x="59" y="250" type="curve" smooth="yes"/>
			<point x="59" y="88"/>
			<point x="156" y="-10"/>
		</contour>
		<contour>
			<point x="285" y="53" type="curve" smooth="yes"/>
			<point x="189" y="53"/>
			<point x="131" y="130"/>
			<point x="131" y="250" type="curve" smooth="yes"/>
			<point x="131" y="370"/>
			<point x="190" y="447"/>
			<point x="289" y="447" type="curve" smooth="yes"/>
			<point x="377" y="447"/>
			<point x="440" y="375"/>
			<point x="440" y="256" type="curve" smooth="yes"/>
			<point x="440" y="131"/>
			<point x="377" y="53"/>
		</contour>
	</outline>
	<anchor name="bottom" x="293" y="0"/>
	<anchor name="center" x="308" y="254"/>
	<anchor name="ogonek" x="376" y="18"/>
	<anchor name="top" x="476" y="698"/>
	<anchor name="topright" x="589" y="730"/>
</glyph>
<glyph name="e" format="2">
	<unicode hex="0065"/>
	<advance width="554"/>
	<outline>
		<contour>
			<point x="290" y="-10" type="curve" smooth="yes"/>
			<point x="382" y="-10"/>
			<point x="451" y="33"/>
			<point x="487" y="102" type="curve"/>
			<point x="430" y="135" type="line"/>
			<point x="403" y="85"/>
			<point x="358" y="53"/>
			<point x="289" y="53" type="curve" smooth="yes"/>
			<point x="190" y="53"/>
			<point x="127" y="128"/>
			<point x="127" y="250" type="curve" smooth="yes"/>
			<point x="127" y="372"/>
			<point x="188" y="447"/>
			<point x="284" y="447" type="curve" smooth="yes"/>
			<point x="368" y="447"/>
			<point x="424" y="388"/>
			<point x="424" y="287" type="curve"/>
			<point x="461" y="295" type="line"/>
			<point x="104" y="295" type="line"/>
			<point x="104" y="231" type="line"/>
			<point x="493" y="231" type="line"/>
			<point x="494" y="243"/>
			<point x="496" y="259"/>
			<point x="496" y="280" type="curve" smooth="yes"/>
			<point x="496" y="412"/>
			<point x="418" y="510"/>
			<point x="285" y="510" type="curve" smooth="yes"/>
			<point x="153" y="510"/>
			<point x="57" y="412"/>
			<point x="57" y="250" type="curve" smooth="yes"/>
			<point x="57" y="88"/>
			<point x="154" y="-10"/>
		</contour>
	</outline>
	<anchor name="bottom" x="288" y="0"/>
	<anchor name="ogonek" x="381" y="7"/>
	<anchor name="top" x="280" y="500"/>
</glyph>
<glyph name="f" format="2">
  <advance width="366"/>
  <unicode hex="0066"/>
  <anchor x="159" y="0" name="bottom"/>
  <anchor x="195" y="0" name="ogonek"/>
  <anchor x="240" y="730" name="top"/>
  <outline>
    <contour>
      <point x="275" y="735" type="curve" smooth="yes"/>
      <point x="175" y="735"/>
      <point x="123" y="674"/>
      <point x="123" y="584" type="curve" smooth="yes"/>
      <point x="123" y="0" type="line"/>
      <point x="195" y="0" type="line"/>
      <point x="195" y="476" type="line"/>
      <point x="195" y="500" type="line"/>
      <point x="195" y="577" type="line" smooth="yes"/>
      <point x="195" y="640"/>
      <point x="227" y="669"/>
      <point x="283" y="669" type="curve" smooth="yes"/>
      <point x="305" y="669"/>
      <point x="322" y="664"/>
      <point x="337" y="653" type="curve"/>
      <point x="356" y="711" type="line"/>
      <point x="339" y="726"/>
      <point x="309" y="735"/>
    </contour>
    <contour>
      <point x="353" y="500" type="line"/>
      <point x="30" y="500" type="line"/>
      <point x="30" y="438" type="line"/>
      <point x="353" y="438" type="line"/>
    </contour>
  </outline>
</glyph>
<glyph name="g" format="2">
  <advance width="510"/>
  <unicode hex="0067"/>
  <anchor x="257" y="-210" name="bottom"/>
  <anchor x="387" y="-193" name="ogonek"/>
  <anchor x="256" y="500" name="top"/>
  <outline>
    <contour>
      <point x="494" y="592" type="line"/>
      <point x="492" y="592"/>
      <point x="491" y="592"/>
      <point x="489" y="592" type="curve" smooth="yes"/>
      <point x="417" y="592"/>
      <point x="362" y="542"/>
      <point x="362" y="465" type="curve"/>
      <point x="405" y="442" type="line"/>
      <point x="405" y="500"/>
      <point x="440" y="528"/>
      <point x="503" y="528" type="curve" smooth="yes"/>
      <point x="506" y="528"/>
      <point x="508" y="528"/>
      <point x="510" y="528" type="curve"/>
    </contour>
    <contour>
      <point x="344" y="60" type="curve" smooth="yes"/>
      <point x="206" y="60" type="line" smooth="yes"/>
      <point x="158" y="60"/>
      <point x="128" y="80"/>
      <point x="128" y="119" type="curve" smooth="yes"/>
      <point x="128" y="153"/>
      <point x="156" y="182"/>
      <point x="217" y="188" type="curve"/>
      <point x="230" y="188" type="line"/>
      <point x="178" y="212" type="line"/>
      <point x="102" y="204"/>
      <point x="64" y="159"/>
      <point x="64" y="108" type="curve" smooth="yes"/>
      <point x="64" y="55"/>
      <point x="99" y="27"/>
      <point x="143" y="15" type="curve"/>
      <point x="148" y="29" type="line"/>
      <point x="69" y="22"/>
      <point x="35" y="-26"/>
      <point x="35" y="-79" type="curve" smooth="yes"/>
      <point x="35" y="-155"/>
      <point x="111" y="-215"/>
      <point x="260" y="-215" type="curve" smooth="yes"/>
      <point x="392" y="-215"/>
      <point x="492" y="-154"/>
      <point x="492" y="-58" type="curve" smooth="yes"/>
      <point x="492" y="13"/>
      <point x="437" y="60"/>
    </contour>
    <contour>
      <point x="261" y="-156" type="curve" smooth="yes"/>
      <point x="161" y="-156"/>
      <point x="100" y="-121"/>
      <point x="100" y="-69" type="curve" smooth="yes"/>
      <point x="100" y="-28"/>
      <point x="136" y="-1"/>
      <point x="182" y="-1" type="curve" smooth="yes"/>
      <point x="327" y="-1" type="line" smooth="yes"/>
      <point x="399" y="-1"/>
      <point x="428" y="-26"/>
      <point x="428" y="-66" type="curve" smooth="yes"/>
      <point x="428" y="-114"/>
      <point x="371" y="-156"/>
    </contour>
    <contour>
      <point x="254" y="510" type="curve" smooth="yes"/>
      <point x="138" y="510"/>
      <point x="57" y="441"/>
      <point x="57" y="343" type="curve" smooth="yes"/>
      <point x="57" y="244"/>
      <point x="129" y="175"/>
      <point x="254" y="175" type="curve" smooth="yes"/>
      <point x="368" y="175"/>
      <point x="450" y="244"/>
      <point x="450" y="343" type="curve" smooth="yes"/>
      <point x="450" y="441"/>
      <point x="369" y="510"/>
    </contour>
    <contour>
      <point x="254" y="452" type="curve" smooth="yes"/>
      <point x="324" y="452"/>
      <point x="377" y="408"/>
      <point x="377" y="343" type="curve" smooth="yes"/>
      <point x="377" y="277"/>
      <point x="323" y="233"/>
      <point x="254" y="233" type="curve" smooth="yes"/>
      <point x="184" y="233"/>
      <point x="130" y="277"/>
      <point x="130" y="343" type="curve" smooth="yes"/>
      <point x="130" y="408"/>
      <point x="183" y="452"/>
    </contour>
  </outline>
</glyph>
<glyph name="h" format="2">
  <advance width="595"/>
  <unicode hex="0068"/>
  <anchor x="329" y="0" name="bottom"/>
  <anchor x="509" y="0" name="ogonek"/>
  <anchor x="128" y="706" name="top"/>
  <outline>
    <contour>
      <point x="92" y="0" type="line"/>
      <point x="164" y="0" type="line"/>
      <point x="164" y="270" type="line" smooth="yes"/>
      <point x="164" y="395"/>
      <point x="242" y="447"/>
      <point x="315" y="447" type="curve" smooth="yes"/>
      <point x="384" y="447"/>
      <point x="437" y="407"/>
      <point x="437" y="297" type="curve" smooth="yes"/>
      <point x="437" y="0" type="line"/>
      <point x="509" y="0" type="line"/>
      <point x="509" y="321" type="line" smooth="yes"/>
      <point x="509" y="449"/>
      <point x="427" y="510"/>
      <point x="325" y="510" type="curve" smooth="yes"/>
      <point x="256" y="510"/>
      <point x="196" y="481"/>
      <point x="164" y="418" type="curve"/>
      <point x="164" y="730" type="line"/>
      <point x="92" y="730" type="line"/>
    </contour>
  </outline>
</glyph>
<glyph name="k" format="2">
	<advance width="538"/>
	<unicode hex="006B"/>
	<anchor x="128" y="698" name="top"/>
	<anchor x="304" y="0" name="bottom"/>
	<outline>
		<contour>
			<point x="507" y="500" type="line"/>
			<point x="416" y="500" type="line"/>
			<point x="130" y="198" type="line"/>
			<point x="130" y="108" type="line"/>
			<point x="283" y="268" type="line"/>
			<point x="300" y="285" type="line"/>
		</contour>
		<contour>
			<point x="164" y="730" type="line"/>
			<point x="92" y="730" type="line"/>
			<point x="92" y="0" type="line"/>
			<point x="164" y="0" type="line"/>
		</contour>
		<contour>
			<point x="306" y="322" type="line"/>
			<point x="247" y="281" type="line"/>
			<point x="430" y="0" type="line"/>
			<point x="517" y="0" type="line"/>
		</contour>
	</outline>
</glyph>
<glyph name="l" format="2">
	<unicode hex="006C"/>
	<advance width="279"/>
	<outline>
		<contour>
			<point x="160" y="730" type="line"/>
			<point x="88" y="730" type="line"/>
			<point x="88" y="122" type="line" smooth="yes"/>
			<point x="88" y="45"/>
			<point x="113" y="-10"/>
			<point x="193" y="-10" type="curve" smooth="yes"/>
			<point x="216" y="-10"/>
			<point x="242" y="-5"/>
			<point x="260" y="4" type="curve"/>
			<point x="270" y="67" type="line"/>
			<point x="246" y="56"/>
			<point x="236" y="53"/>
			<point x="213" y="53" type="curve" smooth="yes"/>
			<point x="172" y="53"/>
			<point x="160" y="77"/>
			<point x="160" y="125" type="curve" smooth="yes"/>
		</contour>
	</outline>
	<anchor name="bottom" x="184" y="0"/>
	<anchor name="center" x="247" y="365"/>
	<anchor name="ogonek" x="243" y="0"/>
	<anchor name="top" x="123" y="730"/>
	<anchor name="topright" x="230" y="730"/>
</glyph>
<glyph name="m" format="2">
	<advance width="937"/>
	<unicode hex="006D"/>
	<anchor x="850" y="0" name="ogonek"/>
	<anchor x="471" y="0" name="bottom"/>
	<anchor x="471" y="500" name="top"/>
	<outline>
		<contour>
			<point x="92" y="0" type="line"/>
			<point x="164" y="0" type="line"/>
			<point x="164" y="271" type="line" smooth="yes"/>
			<point x="164" y="393"/>
			<point x="245" y="447"/>
			<point x="314" y="447" type="curve" smooth="yes"/>
			<point x="382" y="447"/>
			<point x="435" y="407"/>
			<point x="435" y="314" type="curve" smooth="yes"/>
			<point x="435" y="0" type="line"/>
			<point x="507" y="0" type="line"/>
			<point x="507" y="278" type="line" smooth="yes"/>
			<point x="507" y="384"/>
			<point x="577" y="447"/>
			<point x="657" y="447" type="curve" smooth="yes"/>
			<point x="725" y="447"/>
			<point x="778" y="407"/>
			<point x="778" y="314" type="curve" smooth="yes"/>
			<point x="778" y="0" type="line"/>
			<point x="850" y="0" type="line"/>
			<point x="850" y="321" type="line" smooth="yes"/>
			<point x="850" y="451"/>
			<point x="760" y="510"/>
			<point x="665" y="510" type="curve" smooth="yes"/>
			<point x="598" y="510"/>
			<point x="520" y="476"/>
			<point x="490" y="406" type="curve"/>
			<point x="461" y="476"/>
			<point x="394" y="510"/>
			<point x="322" y="510" type="curve" smooth="yes"/>
			<point x="256" y="510"/>
			<point x="193" y="479"/>
			<point x="160" y="415" type="curve"/>
			<point x="155" y="500" type="line"/>
			<point x="92" y="500" type="line"/>
		</contour>
	</outline>
</glyph>
<glyph name="n" format="2">
  <advance width="595"/>
  <unicode hex="006E"/>
  <anchor x="329" y="0" name="bottom"/>
  <anchor x="509" y="0" name="ogonek"/>
  <anchor x="306" y="500" name="top"/>
  <outline>
    <contour>
      <point x="92" y="0" type="line"/>
      <point x="164" y="0" type="line"/>
      <point x="164" y="270" type="line" smooth="yes"/>
      <point x="164" y="395"/>
      <point x="242" y="447"/>
      <point x="315" y="447" type="curve" smooth="yes"/>
      <point x="384" y="447"/>
      <point x="437" y="407"/>
      <point x="437" y="296" type="curve" smooth="yes"/>
      <point x="437" y="0" type="line"/>
      <point x="509" y="0" type="line"/>
      <point x="509" y="321" type="line" smooth="yes"/>
      <point x="509" y="448"/>
      <point x="427" y="510"/>
      <point x="325" y="510" type="curve" smooth="yes"/>
      <point x="248" y="510"/>
      <point x="178" y="475"/>
      <point x="150" y="395" type="curve"/>
      <point x="161" y="385" type="line"/>
      <point x="155" y="500" type="line"/>
      <point x="92" y="500" type="line"/>
    </contour>
  </outline>
</glyph>
<glyph name="o" format="2">
	<unicode hex="006F"/>
	<advance width="578"/>
	<outline>
		<contour>
			<point x="289" y="510" type="curve" smooth="yes"/>
			<point x="155" y="510"/>
			<point x="57" y="412"/>
			<point x="57" y="250" type="curve" smooth="yes"/>
			<point x="57" y="88"/>
			<point x="155" y="-10"/>
			<point x="289" y="-10" type="curve" smooth="yes"/>
			<point x="424" y="-10"/>
			<point x="521" y="88"/>
			<point x="521" y="250" type="curve" smooth="yes"/>
			<point x="521" y="412"/>
			<point x="424" y="510"/>
		</contour>
		<contour>
			<point x="289" y="448" type="curve" smooth="yes"/>
			<point x="388" y="448"/>
			<point x="449" y="373"/>
			<point x="449" y="250" type="curve" smooth="yes"/>
			<point x="449" y="127"/>
			<point x="388" y="52"/>
			<point x="289" y="52" type="curve" smooth="yes"/>
			<point x="191" y="52"/>
			<point x="129" y="127"/>
			<point x="129" y="250" type="curve" smooth="yes"/>
			<point x="129" y="373"/>
			<point x="191" y="448"/>
		</contour>
	</outline>
	<anchor name="bottom" x="289" y="0"/>
	<anchor name="center" x="289" y="250"/>
	<anchor name="ogonek" x="393" y="13"/>
	<anchor name="top" x="289" y="500"/>
	<anchor name="topright" x="430" y="500"/>
</glyph>
<glyph name="p" format="2">
  <advance width="604"/>
  <unicode hex="0070"/>
  <anchor x="128" y="-210" name="bottom"/>
  <anchor x="429" y="18" name="ogonek"/>
  <anchor x="311" y="500" name="top"/>
  <outline>
    <contour>
      <point x="92" y="-210" type="line"/>
      <point x="164" y="-210" type="line"/>
      <point x="164" y="119" type="line"/>
      <point x="155" y="105" type="line"/>
      <point x="181" y="37"/>
      <point x="245" y="-10"/>
      <point x="326" y="-10" type="curve" smooth="yes"/>
      <point x="446" y="-10"/>
      <point x="545" y="88"/>
      <point x="545" y="250" type="curve" smooth="yes"/>
      <point x="545" y="412"/>
      <point x="448" y="510"/>
      <point x="329" y="510" type="curve" smooth="yes"/>
      <point x="244" y="510"/>
      <point x="175" y="460"/>
      <point x="152" y="386" type="curve"/>
      <point x="161" y="373" type="line"/>
      <point x="155" y="500" type="line"/>
      <point x="92" y="500" type="line"/>
    </contour>
    <contour>
      <point x="318" y="53" type="curve" smooth="yes"/>
      <point x="226" y="53"/>
      <point x="164" y="131"/>
      <point x="164" y="250" type="curve" smooth="yes"/>
      <point x="164" y="370"/>
      <point x="228" y="447"/>
      <point x="321" y="447" type="curve" smooth="yes"/>
      <point x="416" y="447"/>
      <point x="473" y="370"/>
      <point x="473" y="250" type="curve" smooth="yes"/>
      <point x="473" y="130"/>
      <point x="414" y="53"/>
    </contour>
  </outline>
</glyph>
<glyph name="q" format="2">
	<unicode hex="0071"/>
	<advance width="604"/>
	<outline>
		<contour>
			<point x="440" y="-210" type="line"/>
			<point x="512" y="-210" type="line"/>
			<point x="512" y="500" type="line"/>
			<point x="449" y="500" type="line"/>
			<point x="442" y="378" type="line"/>
			<point x="453" y="378" type="line"/>
			<point x="437" y="460"/>
			<point x="365" y="510"/>
			<point x="283" y="510" type="curve" smooth="yes"/>
			<point x="163" y="510"/>
			<point x="59" y="416"/>
			<point x="59" y="250" type="curve" smooth="yes"/>
			<point x="59" y="87"/>
			<point x="157" y="-10"/>
			<point x="277" y="-10" type="curve" smooth="yes"/>
			<point x="361" y="-10"/>
			<point x="436" y="40"/>
			<point x="452" y="131" type="curve"/>
			<point x="440" y="140" type="line"/>
		</contour>
		<contour>
			<point x="285" y="53" type="curve" smooth="yes"/>
			<point x="189" y="53"/>
			<point x="131" y="130"/>
			<point x="131" y="250" type="curve" smooth="yes"/>
			<point x="131" y="370"/>
			<point x="190" y="447"/>
			<point x="287" y="447" type="curve" smooth="yes"/>
			<point x="378" y="447"/>
			<point x="440" y="377"/>
			<point x="440" y="253" type="curve" smooth="yes"/>
			<point x="440" y="132"/>
			<point x="377" y="53"/>
		</contour>
	</outline>
	<anchor name="bottom" x="476" y="-210"/>
	<anchor name="ogonek" x="375" y="18"/>
	<anchor name="top" x="292" y="500"/>
</glyph>
<glyph name="r" format="2">
  <advance width="382"/>
  <unicode hex="0072"/>
  <anchor x="128" y="0" name="bottom"/>
  <anchor x="164" y="0" name="ogonek"/>
  <anchor x="223" y="500" name="top"/>
  <outline>
    <contour>
      <point x="92" y="0" type="line"/>
      <point x="164" y="0" type="line"/>
      <point x="164" y="273" type="line" smooth="yes"/>
      <point x="164" y="383"/>
      <point x="230" y="443"/>
      <point x="291" y="443" type="curve" smooth="yes"/>
      <point x="320" y="443"/>
      <point x="334" y="439"/>
      <point x="348" y="433" type="curve"/>
      <point x="360" y="498" type="line"/>
      <point x="346" y="507"/>
      <point x="326" y="510"/>
      <point x="308" y="510" type="curve" smooth="yes"/>
      <point x="237" y="510"/>
      <point x="185" y="475"/>
      <point x="161" y="412" type="curve"/>
      <point x="152" y="500" type="line"/>
      <point x="92" y="500" type="line"/>
    </contour>
  </outline>
</glyph>
<glyph name="s" format="2">
	<advance width="503"/>
	<unicode hex="0073"/>
	<anchor x="373" y="18" name="ogonek"/>
	<anchor x="257" y="0" name="bottom"/>
	<anchor x="252" y="500" name="top"/>
	<outline>
		<contour>
			<point x="259" y="-10" type="curve" smooth="yes"/>
			<point x="372" y="-10"/>
			<point x="449" y="50"/>
			<point x="449" y="143" type="curve" smooth="yes"/>
			<point x="449" y="205"/>
			<point x="417" y="247"/>
			<point x="328" y="267" type="curve" smooth="yes"/>
			<point x="211" y="293" type="line" smooth="yes"/>
			<point x="156" y="305"/>
			<point x="139" y="334"/>
			<point x="139" y="365" type="curve" smooth="yes"/>
			<point x="139" y="412"/>
			<point x="182" y="447"/>
			<point x="253" y="447" type="curve" smooth="yes"/>
			<point x="308" y="447"/>
			<point x="363" y="420"/>
			<point x="384" y="358" type="curve"/>
			<point x="443" y="397" type="line"/>
			<point x="412" y="469"/>
			<point x="346" y="510"/>
			<point x="253" y="510" type="curve" smooth="yes"/>
			<point x="140" y="510"/>
			<point x="68" y="442"/>
			<point x="68" y="362" type="curve" smooth="yes"/>
			<point x="68" y="294"/>
			<point x="105" y="248"/>
			<point x="198" y="227" type="curve" smooth="yes"/>
			<point x="310" y="202" type="line" smooth="yes"/>
			<point x="362" y="190"/>
			<point x="377" y="164"/>
			<point x="377" y="133" type="curve" smooth="yes"/>
			<point x="377" y="85"/>
			<point x="333" y="53"/>
			<point x="264" y="53" type="curve" smooth="yes"/>
			<point x="186" y="53"/>
			<point x="129" y="89"/>
			<point x="103" y="153" type="curve"/>
			<point x="43" y="109" type="line"/>
			<point x="83" y="33"/>
			<point x="166" y="-10"/>
		</contour>
	</outline>
</glyph>
<glyph name="t" format="2">
  <advance width="390"/>
  <unicode hex="0074"/>
  <anchor x="240" y="0" name="bottom"/>
  <anchor x="196" y="250" name="center"/>
  <anchor x="347" y="16" name="ogonek"/>
  <anchor x="159" y="635" name="top"/>
  <anchor x="275" y="767" name="topright"/>
  <outline>
    <contour>
      <point x="195" y="641" type="line"/>
      <point x="123" y="621" type="line"/>
      <point x="123" y="124" type="line" smooth="yes"/>
      <point x="123" y="28"/>
      <point x="183" y="-10"/>
      <point x="258" y="-10" type="curve" smooth="yes"/>
      <point x="307" y="-10"/>
      <point x="345" y="6"/>
      <point x="375" y="34" type="curve"/>
      <point x="351" y="94" type="line"/>
      <point x="329" y="71"/>
      <point x="305" y="57"/>
      <point x="268" y="57" type="curve" smooth="yes"/>
      <point x="224" y="57"/>
      <point x="195" y="84"/>
      <point x="195" y="137" type="curve" smooth="yes"/>
    </contour>
    <contour>
      <point x="367" y="500" type="line"/>
      <point x="29" y="500" type="line"/>
      <point x="29" y="438" type="line"/>
      <point x="367" y="438" type="line"/>
    </contour>
  </outline>
</glyph>
<glyph name="u" format="2">
  <advance width="591"/>
  <unicode hex="0075"/>
  <anchor x="293" y="0" name="bottom"/>
  <anchor x="499" y="0" name="ogonek"/>
  <anchor x="293" y="489" name="top"/>
  <anchor x="515" y="501" name="topright"/>
  <outline>
    <contour>
      <point x="262" y="-10" type="curve" smooth="yes"/>
      <point x="341" y="-10"/>
      <point x="400" y="20"/>
      <point x="432" y="83" type="curve"/>
      <point x="436" y="0" type="line"/>
      <point x="499" y="0" type="line"/>
      <point x="499" y="500" type="line"/>
      <point x="427" y="500" type="line"/>
      <point x="427" y="224" type="line" smooth="yes"/>
      <point x="427" y="112"/>
      <point x="358" y="53"/>
      <point x="280" y="53" type="curve" smooth="yes"/>
      <point x="194" y="53"/>
      <point x="158" y="98"/>
      <point x="158" y="190" type="curve" smooth="yes"/>
      <point x="158" y="500" type="line"/>
      <point x="86" y="500" type="line"/>
      <point x="86" y="171" type="line" smooth="yes"/>
      <point x="86" y="43"/>
      <point x="168" y="-10"/>
    </contour>
  </outline>
</glyph>
<glyph name="v" format="2">
	<unicode hex="0076"/>
	<advance width="497"/>
	<outline>
		<contour>
			<point x="408" y="500" type="line"/>
			<point x="250" y="73" type="line"/>
			<point x="95" y="500" type="line"/>
			<point x="13" y="500" type="line"/>
			<point x="212" y="0" type="line"/>
			<point x="285" y="0" type="line"/>
			<point x="484" y="500" type="line"/>
		</contour>
	</outline>
	<anchor name="bottom" x="249" y="0"/>
	<anchor name="ogonek" x="285" y="0"/>
	<anchor name="top" x="249" y="500"/>
</glyph>
<glyph name="w" format="2">
	<advance width="811"/>
	<unicode hex="0077"/>
	<anchor x="616" y="0" name="ogonek"/>
	<anchor x="406" y="0" name="bottom"/>
	<anchor x="406" y="500" name="top"/>
	<outline>
		<contour>
			<point x="704" y="500" type="line"/>
			<point x="578" y="84" type="line"/>
			<point x="442" y="500" type="line"/>
			<point x="369" y="500" type="line"/>
			<point x="233" y="84" type="line"/>
			<point x="107" y="500" type="line"/>
			<point x="27" y="500" type="line"/>
			<point x="195" y="0" type="line"/>
			<point x="268" y="0" type="line"/>
			<point x="402" y="408" type="line"/>
			<point x="543" y="0" type="line"/>
			<point x="616" y="0" type="line"/>
			<point x="784" y="500" type="line"/>
		</contour>
	</outline>
</glyph>
<glyph name="x" format="2">
	<advance width="507"/>
	<unicode hex="0078"/>
	<anchor x="477" y="0" name="ogonek"/>
	<anchor x="253" y="0" name="bottom"/>
	<anchor x="253" y="500" name="top"/>
	<outline>
		<contour>
			<point x="129" y="500" type="line"/>
			<point x="38" y="500" type="line"/>
			<point x="227" y="232" type="line"/>
			<point x="236" y="221" type="line"/>
			<point x="389" y="0" type="line"/>
			<point x="477" y="0" type="line"/>
			<point x="280" y="282" type="line"/>
			<point x="273" y="289" type="line"/>
		</contour>
		<contour>
			<point x="471" y="500" type="line"/>
			<point x="387" y="500" type="line"/>
			<point x="241" y="285" type="line"/>
			<point x="234" y="284" type="line"/>
			<point x="28" y="0" type="line"/>
			<point x="112" y="0" type="line"/>
			<point x="277" y="235" type="line"/>
			<point x="284" y="236" type="line"/>
		</contour>
	</outline>
</glyph>
<glyph name="y" format="2">
	<unicode hex="0079"/>
	<advance width="494"/>
	<outline>
		<contour>
			<point x="480" y="500" type="line"/>
			<point x="403" y="500" type="line"/>
			<point x="285" y="169" type="line"/>
			<point x="252" y="77" type="line"/>
			<point x="225" y="160" type="line"/>
			<point x="99" y="500" type="line"/>
			<point x="18" y="500" type="line"/>
			<point x="169" y="121" type="line"/>
			<point x="218" y="1" type="line"/>
			<point x="192" y="-68" type="line" smooth="yes"/>
			<point x="167" y="-135"/>
			<point x="138" y="-152"/>
			<point x="102" y="-152" type="curve" smooth="yes"/>
			<point x="75" y="-152"/>
			<point x="45" y="-142"/>
			<point x="21" y="-118" type="curve"/>
			<point x="0" y="-180" type="line"/>
			<point x="27" y="-202"/>
			<point x="63" y="-215"/>
			<point x="105" y="-215" type="curve" smooth="yes"/>
			<point x="185" y="-215"/>
			<point x="222" y="-171"/>
			<point x="255" y="-86" type="curve" smooth="yes"/>
		</contour>
	</outline>
	<anchor name="bottom" x="389" y="-9"/>
	<anchor name="ogonek" x="144" y="-210"/>
	<anchor name="top" x="248" y="489"/>
	<anchor name="top_hook" x="257" y="454"/>
</glyph>
<glyph name="z" format="2">
  <advance width="508"/>
  <unicode hex="007A"/>
  <anchor x="242" y="0" name="bottom"/>
  <anchor x="457" y="0" name="ogonek"/>
  <anchor x="242" y="500" name="top"/>
  <outline>
    <contour>
      <point x="55" y="0" type="line"/>
      <point x="457" y="0" type="line"/>
      <point x="457" y="62" type="line"/>
      <point x="226" y="62" type="line"/>
      <point x="136" y="60" type="line"/>
      <point x="195" y="126" type="line"/>
      <point x="448" y="445" type="line"/>
      <point x="448" y="500" type="line"/>
      <point x="56" y="500" type="line"/>
      <point x="56" y="438" type="line"/>
      <point x="286" y="438" type="line"/>
      <point x="368" y="440" type="line"/>
      <point x="310" y="377" type="line"/>
      <point x="55" y="55" type="line"/>
    </contour>
  </outline>
</glyph>
<glyph name="braceleft" format="2">
  <advance width="340"/>
  <unicode hex="007B"/>
  <outline>
    <contour>
      <point x="296" y="-187" type="curve"/>
      <point x="296" y="-128" type="line"/>
      <point x="231" y="-128"/>
      <point x="205" y="-109"/>
      <point x="205" y="-69" type="curve" smooth="yes"/>
      <point x="205" y="154" type="line" smooth="yes"/>
      <point x="205" y="223"/>
      <point x="167" y="266"/>
      <point x="96" y="282" type="curve"/>
      <point x="167" y="297"/>
      <point x="205" y="340"/>
      <point x="205" y="410" type="curve" smooth="yes"/>
      <point x="205" y="632" type="line" smooth="yes"/>
      <point x="205" y="672"/>
      <point x="231" y="691"/>
      <point x="296" y="691" type="curve"/>
      <point x="296" y="750" type="line"/>
      <point x="184" y="750"/>
      <point x="138" y="705"/>
      <point x="138" y="627" type="curve" smooth="yes"/>
      <point x="138" y="416" type="line" smooth="yes"/>
      <point x="138" y="343"/>
      <point x="105" y="313"/>
      <point x="26" y="313" type="curve"/>
      <point x="26" y="250" type="line"/>
      <point x="105" y="250"/>
      <point x="138" y="220"/>
      <point x="138" y="147" type="curve" smooth="yes"/>
      <point x="138" y="-64" type="line" smooth="yes"/>
      <point x="138" y="-142"/>
      <point x="184" y="-187"/>
    </contour>
  </outline>
</glyph>
<glyph name="asciitilde" format="2">
	<unicode hex="007E"/>
	<advance width="532"/>
	<outline>
		<contour>
			<point x="489" y="385" type="curve"/>
			<point x="421" y="385" type="line"/>
			<point x="413" y="339"/>
			<point x="393" y="311"/>
			<point x="357" y="311" type="curve" smooth="yes"/>
			<point x="293" y="311"/>
			<point x="259" y="385"/>
			<point x="170" y="385" type="curve" smooth="yes"/>
			<point x="92" y="385"/>
			<point x="51" y="336"/>
			<point x="43" y="243" type="curve"/>
			<point x="112" y="243" type="line"/>
			<point x="120" y="289"/>
			<point x="139" y="317"/>
			<point x="176" y="317" type="curve" smooth="yes"/>
			<point x="241" y="317"/>
			<point x="273" y="243"/>
			<point x="364" y="243" type="curve" smooth="yes"/>
			<point x="439" y="243"/>
			<point x="481" y="292"/>
		</contour>
	</outline>
</glyph>
<glyph name="cent" format="2">
  <advance width="545"/>
  <unicode hex="00A2"/>
  <outline>
    <contour>
      <point x="297" y="-10" type="curve" smooth="yes"/>
      <point x="398" y="-10"/>
      <point x="470" y="46"/>
      <point x="498" y="138" type="curve"/>
      <point x="434" y="160" type="line"/>
      <point x="416" y="88"/>
      <point x="366" y="49"/>
      <point x="296" y="49" type="curve" smooth="yes"/>
      <point x="200" y="49"/>
      <point x="132" y="122"/>
      <point x="132" y="250" type="curve" smooth="yes"/>
      <point x="132" y="378"/>
      <point x="200" y="451"/>
      <point x="296" y="451" type="curve" smooth="yes"/>
      <point x="360" y="451"/>
      <point x="407" y="414"/>
      <point x="426" y="344" type="curve"/>
      <point x="493" y="377" type="line"/>
      <point x="461" y="459"/>
      <point x="397" y="510"/>
      <point x="297" y="510" type="curve" smooth="yes"/>
      <point x="161" y="510"/>
      <point x="65" y="412"/>
      <point x="65" y="250" type="curve" smooth="yes"/>
      <point x="65" y="88"/>
      <point x="160" y="-10"/>
    </contour>
    <contour>
      <point x="261" y="-100" type="line"/>
      <point x="320" y="-100" type="line"/>
      <point x="320" y="600" type="line"/>
      <point x="261" y="600" type="line"/>
    </contour>
  </outline>
</glyph>
<glyph name="sterling" format="2">
  <advance width="596"/>
  <unicode hex="00A3"/>
  <outline>
    <contour>
      <point x="82" y="281" type="line"/>
      <point x="447" y="281" type="line"/>
      <point x="447" y="340" type="line"/>
      <point x="82" y="340" type="line"/>
    </contour>
    <component base="sterling.part" xOffset="14"/>
  </outline>
</glyph>
<glyph name="currency" format="2">
  <advance width="657"/>
  <unicode hex="00A4"/>
  <outline>
    <contour>
      <point x="329" y="536" type="curve" smooth="yes"/>
      <point x="209" y="536"/>
      <point x="122" y="450"/>
      <point x="122" y="330" type="curve" smooth="yes"/>
      <point x="122" y="209"/>
      <point x="209" y="122"/>
      <point x="329" y="122" type="curve" smooth="yes"/>
      <point x="449" y="122"/>
      <point x="535" y="209"/>
      <point x="535" y="330" type="curve" smooth="yes"/>
      <point x="535" y="450"/>
      <point x="449" y="536"/>
    </contour>
    <contour>
      <point x="329" y="471" type="curve" smooth="yes"/>
      <point x="407" y="471"/>
      <point x="463" y="412"/>
      <point x="463" y="330" type="curve" smooth="yes"/>
      <point x="463" y="246"/>
      <point x="407" y="187"/>
      <point x="329" y="187" type="curve" smooth="yes"/>
      <point x="250" y="187"/>
      <point x="194" y="246"/>
      <point x="194" y="330" type="curve" smooth="yes"/>
      <point x="194" y="412"/>
      <point x="250" y="471"/>
    </contour>
    <contour>
      <point x="115" y="588" type="line"/>
      <point x="69" y="542" type="line"/>
      <point x="186" y="427" type="line"/>
      <point x="233" y="473" type="line"/>
    </contour>
    <contour>
      <point x="185" y="233" type="line"/>
      <point x="69" y="115" type="line"/>
      <point x="115" y="69" type="line"/>
      <point x="230" y="187" type="line"/>
    </contour>
    <contour>
      <point x="470" y="230" type="line"/>
      <point x="425" y="184" type="line"/>
      <point x="542" y="69" type="line"/>
      <point x="588" y="115" type="line"/>
    </contour>
    <contour>
      <point x="542" y="588" type="line"/>
      <point x="427" y="471" type="line"/>
      <point x="473" y="425" type="line"/>
      <point x="588" y="542" type="line"/>
    </contour>
  </outline>
</glyph>
<glyph name="yen" format="2">
  <advance width="596"/>
  <unicode hex="00A5"/>
  <outline>
    <contour>
      <point x="266" y="0" type="line"/>
      <point x="329" y="0" type="line"/>
      <point x="329" y="110" type="line"/>
      <point x="517" y="110" type="line"/>
      <point x="517" y="160" type="line"/>
      <point x="329" y="160" type="line"/>
      <point x="329" y="239" type="line"/>
      <point x="517" y="239" type="line"/>
      <point x="517" y="294" type="line"/>
      <point x="388" y="294" type="line"/>
      <point x="346" y="290" type="line"/>
      <point x="560" y="660" type="line"/>
      <point x="478" y="660" type="line"/>
      <point x="341" y="403" type="line"/>
      <point x="299" y="312" type="line"/>
      <point x="297" y="312" type="line"/>
      <point x="255" y="402" type="line"/>
      <point x="118" y="660" type="line"/>
      <point x="35" y="660" type="line"/>
      <point x="250" y="290" type="line"/>
      <point x="208" y="294" type="line"/>
      <point x="79" y="294" type="line"/>
      <point x="79" y="239" type="line"/>
      <point x="266" y="239" type="line"/>
      <point x="266" y="160" type="line"/>
      <point x="79" y="160" type="line"/>
      <point x="79" y="110" type="line"/>
      <point x="266" y="110" type="line"/>
    </contour>
  </outline>
</glyph>
<glyph name="brokenbar" format="2">
	<advance width="234"/>
	<unicode hex="00A6"/>
	<outline>
		<contour>
			<point x="148" y="730" type="line"/>
			<point x="86" y="730" type="line"/>
			<point x="86" y="367" type="line"/>
			<point x="148" y="367" type="line"/>
		</contour>
		<contour>
			<point x="148" y="195" type="line"/>
			<point x="86" y="195" type="line"/>
			<point x="86" y="-168" type="line"/>
			<point x="148" y="-168" type="line"/>
		</contour>
	</outline>
</glyph>
<glyph name="section" format="2">
	<unicode hex="00A7"/>
	<advance width="554"/>
	<outline>
		<contour>
			<point x="382" y="138" type="line"/>
			<point x="479" y="146"/>
			<point x="524" y="205"/>
			<point x="524" y="271" type="curve" smooth="yes"/>
			<point x="524" y="340"/>
			<point x="486" y="388"/>
			<point x="371" y="409" type="curve" smooth="yes"/>
			<point x="245" y="432" type="line" smooth="yes"/>
			<point x="180" y="444"/>
			<point x="158" y="469"/>
			<point x="158" y="517" type="curve" smooth="yes"/>
			<point x="158" y="570"/>
			<point x="205" y="608"/>
			<point x="285" y="608" type="curve" smooth="yes"/>
			<point x="348" y="608"/>
			<point x="394" y="586"/>
			<point x="427" y="530" type="curve"/>
			<point x="481" y="573" type="line"/>
			<point x="441" y="637"/>
			<point x="372" y="670"/>
			<point x="287" y="670" type="curve" smooth="yes"/>
			<point x="168" y="670"/>
			<point x="92" y="603"/>
			<point x="92" y="512" type="curve" smooth="yes"/>
			<point x="92" y="439"/>
			<point x="132" y="388"/>
			<point x="230" y="369" type="curve" smooth="yes"/>
			<point x="360" y="344" type="line" smooth="yes"/>
			<point x="434" y="330"/>
			<point x="457" y="301"/>
			<point x="457" y="255" type="curve" smooth="yes"/>
			<point x="457" y="201"/>
			<point x="413" y="169"/>
			<point x="340" y="166" type="curve"/>
		</contour>
		<contour>
			<point x="267" y="-110" type="curve" smooth="yes"/>
			<point x="390" y="-110"/>
			<point x="466" y="-40"/>
			<point x="466" y="53" type="curve" smooth="yes"/>
			<point x="466" y="121"/>
			<point x="426" y="171"/>
			<point x="339" y="188" type="curve" smooth="yes"/>
			<point x="201" y="215" type="line" smooth="yes"/>
			<point x="125" y="230"/>
			<point x="99" y="266"/>
			<point x="99" y="307" type="curve" smooth="yes"/>
			<point x="99" y="352"/>
			<point x="135" y="381"/>
			<point x="188" y="395" type="curve"/>
			<point x="158" y="418" type="line"/>
			<point x="83" y="409"/>
			<point x="33" y="359"/>
			<point x="33" y="295" type="curve" smooth="yes"/>
			<point x="33" y="216"/>
			<point x="84" y="173"/>
			<point x="180" y="153" type="curve" smooth="yes"/>
			<point x="326" y="122" type="line" smooth="yes"/>
			<point x="379" y="111"/>
			<point x="401" y="83"/>
			<point x="401" y="47" type="curve" smooth="yes"/>
			<point x="401" y="-12"/>
			<point x="352" y="-50"/>
			<point x="270" y="-50" type="curve" smooth="yes"/>
			<point x="190" y="-50"/>
			<point x="140" y="-16"/>
			<point x="115" y="36" type="curve"/>
			<point x="61" y="-10" type="line"/>
			<point x="94" y="-67"/>
			<point x="160" y="-110"/>
		</contour>
	</outline>
</glyph>
<glyph name="copyright" format="2">
	<unicode hex="00A9"/>
	<advance width="816"/>
	<outline>
		<contour>
			<point x="408" y="-10" type="curve" smooth="yes"/>
			<point x="611" y="-10"/>
			<point x="749" y="137"/>
			<point x="749" y="330" type="curve" smooth="yes"/>
			<point x="749" y="523"/>
			<point x="611" y="670"/>
			<point x="408" y="670" type="curve" smooth="yes"/>
			<point x="204" y="670"/>
			<point x="67" y="523"/>
			<point x="67" y="330" type="curve" smooth="yes"/>
			<point x="67" y="137"/>
			<point x="204" y="-10"/>
		</contour>
		<contour>
			<point x="408" y="49" type="curve" smooth="yes"/>
			<point x="243" y="49"/>
			<point x="131" y="172"/>
			<point x="131" y="330" type="curve" smooth="yes"/>
			<point x="131" y="488"/>
			<point x="243" y="611"/>
			<point x="408" y="611" type="curve" smooth="yes"/>
			<point x="572" y="611"/>
			<point x="684" y="488"/>
			<point x="684" y="330" type="curve" smooth="yes"/>
			<point x="684" y="172"/>
			<point x="572" y="49"/>
		</contour>
		<contour>
			<point x="415" y="143" type="curve" smooth="yes"/>
			<point x="494" y="143"/>
			<point x="547" y="183"/>
			<point x="571" y="249" type="curve"/>
			<point x="521" y="269" type="line"/>
			<point x="505" y="222"/>
			<point x="467" y="197"/>
			<point x="414" y="197" type="curve" smooth="yes"/>
			<point x="342" y="197"/>
			<point x="298" y="246"/>
			<point x="298" y="328" type="curve" smooth="yes"/>
			<point x="298" y="411"/>
			<point x="342" y="459"/>
			<point x="414" y="459" type="curve" smooth="yes"/>
			<point x="465" y="459"/>
			<point x="498" y="437"/>
			<point x="514" y="391" type="curve"/>
			<point x="567" y="417" type="line"/>
			<point x="542" y="477"/>
			<point x="491" y="513"/>
			<point x="415" y="513" type="curve" smooth="yes"/>
			<point x="305" y="513"/>
			<point x="237" y="443"/>
			<point x="237" y="328" type="curve" smooth="yes"/>
			<point x="237" y="213"/>
			<point x="305" y="143"/>
		</contour>
	</outline>
</glyph>
<glyph name="ordfeminine" format="2">
	<advance width="371"/>
	<unicode hex="00AA"/>
	<outline>
		<contour>
			<point x="137" y="327" type="curve" smooth="yes"/>
			<point x="193" y="327"/>
			<point x="242" y="359"/>
			<point x="258" y="405" type="curve"/>
			<point x="248" y="414" type="line"/>
			<point x="248" y="397" type="line" smooth="yes"/>
			<point x="248" y="350"/>
			<point x="274" y="327"/>
			<point x="314" y="327" type="curve" smooth="yes"/>
			<point x="327" y="327"/>
			<point x="340" y="331"/>
			<point x="350" y="336" type="curve"/>
			<point x="355" y="376" type="line"/>
			<point x="349" y="373"/>
			<point x="342" y="372"/>
			<point x="331" y="372" type="curve" smooth="yes"/>
			<point x="315" y="372"/>
			<point x="301" y="379"/>
			<point x="301" y="404" type="curve" smooth="yes"/>
			<point x="301" y="548" type="line" smooth="yes"/>
			<point x="301" y="625"/>
			<point x="251" y="665"/>
			<point x="170" y="665" type="curve" smooth="yes"/>
			<point x="96" y="665"/>
			<point x="47" y="628"/>
			<point x="30" y="577" type="curve"/>
			<point x="75" y="551" type="line"/>
			<point x="95" y="598"/>
			<point x="130" y="616"/>
			<point x="171" y="616" type="curve" smooth="yes"/>
			<point x="213" y="616"/>
			<point x="240" y="590"/>
			<point x="240" y="546" type="curve" smooth="yes"/>
			<point x="240" y="459" type="line" smooth="yes"/>
			<point x="240" y="394"/>
			<point x="186" y="376"/>
			<point x="147" y="376" type="curve" smooth="yes"/>
			<point x="114" y="376"/>
			<point x="92" y="393"/>
			<point x="92" y="420" type="curve" smooth="yes"/>
			<point x="92" y="447"/>
			<point x="107" y="462"/>
			<point x="156" y="472" type="curve" smooth="yes"/>
			<point x="250" y="491" type="line"/>
			<point x="250" y="532" type="line"/>
			<point x="135" y="511" type="line" smooth="yes"/>
			<point x="58" y="497"/>
			<point x="30" y="467"/>
			<point x="30" y="415" type="curve" smooth="yes"/>
			<point x="30" y="362"/>
			<point x="72" y="327"/>
		</contour>
		<contour>
			<point x="29" y="204" type="line"/>
			<point x="337" y="204" type="line"/>
			<point x="337" y="252" type="line"/>
			<point x="29" y="252" type="line"/>
		</contour>
	</outline>
</glyph>
<glyph name="logicalnot" format="2">
	<advance width="604"/>
	<unicode hex="00AC"/>
	<outline>
		<contour>
			<point x="543" y="319" type="line"/>
			<point x="471" y="319" type="line"/>
			<point x="471" y="137" type="line"/>
			<point x="543" y="137" type="line"/>
		</contour>
		<contour>
			<point x="543" y="350" type="line"/>
			<point x="61" y="350" type="line"/>
			<point x="61" y="283" type="line"/>
			<point x="543" y="283" type="line"/>
		</contour>
	</outline>
</glyph>
<glyph name="registered" format="2">
  <advance width="816"/>
  <unicode hex="00AE"/>
  <outline>
    <contour>
      <point x="408" y="-10" type="curve" smooth="yes"/>
      <point x="611" y="-10"/>
      <point x="749" y="137"/>
      <point x="749" y="330" type="curve" smooth="yes"/>
      <point x="749" y="524"/>
      <point x="611" y="670"/>
      <point x="408" y="670" type="curve" smooth="yes"/>
      <point x="204" y="670"/>
      <point x="67" y="523"/>
      <point x="67" y="330" type="curve" smooth="yes"/>
      <point x="67" y="137"/>
      <point x="204" y="-10"/>
    </contour>
    <contour>
      <point x="494" y="143" type="line"/>
      <point x="562" y="143" type="line"/>
      <point x="442" y="317" type="line"/>
      <point x="392" y="296" type="line"/>
    </contour>
    <contour>
      <point x="408" y="49" type="curve" smooth="yes"/>
      <point x="243" y="49"/>
      <point x="131" y="172"/>
      <point x="131" y="330" type="curve" smooth="yes"/>
      <point x="131" y="488"/>
      <point x="243" y="611"/>
      <point x="408" y="611" type="curve" smooth="yes"/>
      <point x="572" y="611"/>
      <point x="684" y="488"/>
      <point x="684" y="330" type="curve" smooth="yes"/>
      <point x="684" y="172"/>
      <point x="572" y="49"/>
    </contour>
    <contour>
      <point x="275" y="143" type="line"/>
      <point x="335" y="143" type="line"/>
      <point x="335" y="281" type="line"/>
      <point x="417" y="281" type="line" smooth="yes"/>
      <point x="500" y="281"/>
      <point x="555" y="325"/>
      <point x="555" y="397" type="curve" smooth="yes"/>
      <point x="555" y="469"/>
      <point x="500" y="513"/>
      <point x="417" y="513" type="curve" smooth="yes"/>
      <point x="275" y="513" type="line"/>
    </contour>
    <contour>
      <point x="335" y="328" type="line"/>
      <point x="335" y="467" type="line"/>
      <point x="416" y="467" type="line" smooth="yes"/>
      <point x="467" y="467"/>
      <point x="494" y="444"/>
      <point x="494" y="397" type="curve" smooth="yes"/>
      <point x="494" y="351"/>
      <point x="467" y="328"/>
      <point x="416" y="328" type="curve" smooth="yes"/>
    </contour>
  </outline>
</glyph>
<glyph name="degree" format="2">
  <advance width="449"/>
  <unicode hex="00B0"/>
  <outline>
    <contour>
      <point x="224" y="348" type="curve" smooth="yes"/>
      <point x="321" y="348"/>
      <point x="390" y="415"/>
      <point x="390" y="509" type="curve" smooth="yes"/>
      <point x="390" y="603"/>
      <point x="321" y="670"/>
      <point x="224" y="670" type="curve" smooth="yes"/>
      <point x="128" y="670"/>
      <point x="59" y="603"/>
      <point x="59" y="509" type="curve" smooth="yes"/>
      <point x="59" y="415"/>
      <point x="128" y="348"/>
    </contour>
    <contour>
      <point x="224" y="406" type="curve" smooth="yes"/>
      <point x="165" y="406"/>
      <point x="122" y="449"/>
      <point x="122" y="509" type="curve" smooth="yes"/>
      <point x="122" y="568"/>
      <point x="165" y="611"/>
      <point x="224" y="611" type="curve" smooth="yes"/>
      <point x="284" y="611"/>
      <point x="327" y="568"/>
      <point x="327" y="509" type="curve" smooth="yes"/>
      <point x="327" y="449"/>
      <point x="284" y="406"/>
    </contour>
  </outline>
</glyph>
<glyph name="plusminus" format="2">
	<advance width="604"/>
	<unicode hex="00B1"/>
	<outline>
		<contour>
			<point x="336" y="638" type="line"/>
			<point x="269" y="638" type="line"/>
			<point x="269" y="148" type="line"/>
			<point x="336" y="148" type="line"/>
		</contour>
		<contour>
			<point x="543" y="427" type="line"/>
			<point x="61" y="427" type="line"/>
			<point x="61" y="359" type="line"/>
			<point x="543" y="359" type="line"/>
		</contour>
		<contour>
			<point x="543" y="67" type="line"/>
			<point x="61" y="67" type="line"/>
			<point x="61" y="0" type="line"/>
			<point x="543" y="0" type="line"/>
		</contour>
	</outline>
</glyph>
<glyph name="twosuperior" format="2">
	<advance width="353"/>
	<unicode hex="00B2"/>
	<anchor x="177" y="517" name="_indexring"/>
	<outline>
		<contour>
			<point x="40" y="333" type="line"/>
			<point x="323" y="333" type="line"/>
			<point x="323" y="385" type="line"/>
			<point x="179" y="385" type="line" smooth="yes"/>
			<point x="166" y="385"/>
			<point x="133" y="383"/>
			<point x="121" y="382" type="curve"/>
			<point x="121" y="383" type="line"/>
			<point x="140" y="397"/>
			<point x="164" y="413"/>
			<point x="178" y="424" type="curve" smooth="yes"/>
			<point x="268" y="491"/>
			<point x="314" y="550"/>
			<point x="314" y="609" type="curve" smooth="yes"/>
			<point x="314" y="676"/>
			<point x="266" y="735"/>
			<point x="174" y="735" type="curve" smooth="yes"/>
			<point x="90" y="735"/>
			<point x="35" y="687"/>
			<point x="30" y="607" type="curve"/>
			<point x="87" y="587" type="line"/>
			<point x="88" y="647"/>
			<point x="121" y="683"/>
			<point x="171" y="683" type="curve" smooth="yes"/>
			<point x="220" y="683"/>
			<point x="248" y="650"/>
			<point x="248" y="606" type="curve" smooth="yes"/>
			<point x="248" y="560"/>
			<point x="222" y="524"/>
			<point x="131" y="448" type="curve" smooth="yes"/>
			<point x="105" y="427"/>
			<point x="70" y="399"/>
			<point x="40" y="377" type="curve"/>
		</contour>
	</outline>
</glyph>
<glyph name="threesuperior" format="2">
	<advance width="348"/>
	<unicode hex="00B3"/>
	<anchor x="166" y="530" name="_indexring"/>
	<outline>
		<contour>
			<point x="172" y="735" type="curve" smooth="yes"/>
			<point x="105" y="735"/>
			<point x="52" y="705"/>
			<point x="35" y="642" type="curve"/>
			<point x="94" y="621" type="line"/>
			<point x="101" y="661"/>
			<point x="129" y="683"/>
			<point x="169" y="683" type="curve" smooth="yes"/>
			<point x="211" y="683"/>
			<point x="237" y="660"/>
			<point x="237" y="618" type="curve" smooth="yes"/>
			<point x="237" y="576"/>
			<point x="209" y="554"/>
			<point x="160" y="554" type="curve" smooth="yes"/>
			<point x="158" y="554"/>
			<point x="152" y="554"/>
			<point x="147" y="555" type="curve"/>
			<point x="147" y="508" type="line"/>
			<point x="153" y="509"/>
			<point x="157" y="509"/>
			<point x="163" y="509" type="curve" smooth="yes"/>
			<point x="214" y="509"/>
			<point x="247" y="493"/>
			<point x="247" y="448" type="curve" smooth="yes"/>
			<point x="247" y="406"/>
			<point x="215" y="380"/>
			<point x="169" y="380" type="curve" smooth="yes"/>
			<point x="119" y="380"/>
			<point x="92" y="403"/>
			<point x="83" y="450" type="curve"/>
			<point x="24" y="422" type="line"/>
			<point x="43" y="359"/>
			<point x="92" y="327"/>
			<point x="170" y="327" type="curve" smooth="yes"/>
			<point x="252" y="327"/>
			<point x="312" y="372"/>
			<point x="312" y="440" type="curve" smooth="yes"/>
			<point x="312" y="499"/>
			<point x="268" y="530"/>
			<point x="227" y="532" type="curve"/>
			<point x="227" y="533" type="line"/>
			<point x="262" y="537"/>
			<point x="303" y="568"/>
			<point x="303" y="627" type="curve" smooth="yes"/>
			<point x="303" y="691"/>
			<point x="256" y="735"/>
		</contour>
	</outline>
</glyph>
<glyph name="micro" format="2">
	<unicode hex="00B5"/>
	<advance width="598"/>
	<outline>
		<contour>
			<point x="92" y="-210" type="line"/>
			<point x="164" y="-210" type="line"/>
			<point x="164" y="48" type="line"/>
			<point x="162" y="48" type="line"/>
			<point x="188" y="8"/>
			<point x="232" y="-10"/>
			<point x="282" y="-10" type="curve" smooth="yes"/>
			<point x="349" y="-10"/>
			<point x="410" y="25"/>
			<point x="441" y="88" type="curve"/>
			<point x="447" y="0" type="line"/>
			<point x="506" y="0" type="line"/>
			<point x="506" y="500" type="line"/>
			<point x="434" y="500" type="line"/>
			<point x="434" y="232" type="line" smooth="yes"/>
			<point x="434" y="106"/>
			<point x="365" y="53"/>
			<point x="287" y="53" type="curve" smooth="yes"/>
			<point x="210" y="53"/>
			<point x="164" y="96"/>
			<point x="164" y="191" type="curve" smooth="yes"/>
			<point x="164" y="500" type="line"/>
			<point x="92" y="500" type="line"/>
		</contour>
	</outline>
</glyph>
<glyph name="paragraph" format="2">
	<advance width="639"/>
	<unicode hex="00B6"/>
	<outline>
		<contour>
			<point x="290" y="-100" type="line"/>
			<point x="356" y="-100" type="line"/>
			<point x="356" y="600" type="line"/>
			<point x="486" y="600" type="line"/>
			<point x="486" y="-100" type="line"/>
			<point x="550" y="-100" type="line"/>
			<point x="550" y="660" type="line"/>
			<point x="308" y="660" type="line" smooth="yes"/>
			<point x="146" y="660"/>
			<point x="40" y="569"/>
			<point x="40" y="429" type="curve" smooth="yes"/>
			<point x="40" y="292"/>
			<point x="140" y="199"/>
			<point x="290" y="199" type="curve"/>
		</contour>
		<contour>
			<point x="290" y="259" type="line"/>
			<point x="174" y="259"/>
			<point x="108" y="324"/>
			<point x="108" y="429" type="curve" smooth="yes"/>
			<point x="108" y="533"/>
			<point x="174" y="600"/>
			<point x="290" y="600" type="curve"/>
		</contour>
	</outline>
</glyph>
<glyph name="periodcentered" format="2">
	<advance width="222"/>
	<unicode hex="00B7"/>
	<anchor x="61" y="355" name="_center"/>
	<outline>
		<contour>
			<point x="121" y="296" type="curve" smooth="yes"/>
			<point x="157" y="296"/>
			<point x="181" y="320"/>
			<point x="181" y="355" type="curve" smooth="yes"/>
			<point x="181" y="391"/>
			<point x="157" y="415"/>
			<point x="121" y="415" type="curve" smooth="yes"/>
			<point x="85" y="415"/>
			<point x="61" y="391"/>
			<point x="61" y="355" type="curve" smooth="yes"/>
			<point x="61" y="320"/>
			<point x="85" y="296"/>
		</contour>
	</outline>
</glyph>
<glyph name="onesuperior" format="2">
	<unicode hex="00B9"/>
	<advance width="229"/>
	<outline>
		<contour>
			<point x="120" y="730" type="line"/>
			<point x="100" y="697"/>
			<point x="46" y="664"/>
			<point x="11" y="657" type="curve"/>
			<point x="11" y="602" type="line"/>
			<point x="49" y="611"/>
			<point x="86" y="635"/>
			<point x="114" y="663" type="curve"/>
			<point x="113" y="639"/>
			<point x="112" y="613"/>
			<point x="112" y="591" type="curve" smooth="yes"/>
			<point x="112" y="333" type="line"/>
			<point x="174" y="333" type="line"/>
			<point x="174" y="730" type="line"/>
		</contour>
	</outline>
	<anchor name="_indexring" x="124" y="527"/>
</glyph>
<glyph name="ordmasculine" format="2">
	<unicode hex="00BA"/>
	<advance width="351"/>
	<outline>
		<contour>
			<point x="175" y="327" type="curve" smooth="yes"/>
			<point x="266" y="327"/>
			<point x="325" y="390"/>
			<point x="325" y="496" type="curve" smooth="yes"/>
			<point x="325" y="602"/>
			<point x="266" y="665"/>
			<point x="175" y="665" type="curve" smooth="yes"/>
			<point x="85" y="665"/>
			<point x="26" y="602"/>
			<point x="26" y="496" type="curve" smooth="yes"/>
			<point x="26" y="390"/>
			<point x="85" y="327"/>
		</contour>
		<contour>
			<point x="37" y="204" type="line"/>
			<point x="314" y="204" type="line"/>
			<point x="314" y="252" type="line"/>
			<point x="37" y="252" type="line"/>
		</contour>
		<contour>
			<point x="175" y="377" type="curve" smooth="yes"/>
			<point x="116" y="377"/>
			<point x="88" y="420"/>
			<point x="88" y="496" type="curve" smooth="yes"/>
			<point x="88" y="572"/>
			<point x="116" y="616"/>
			<point x="175" y="616" type="curve" smooth="yes"/>
			<point x="235" y="616"/>
			<point x="263" y="572"/>
			<point x="263" y="496" type="curve" smooth="yes"/>
			<point x="263" y="420"/>
			<point x="235" y="377"/>
		</contour>
	</outline>
</glyph>
<glyph name="AE" format="2">
	<advance width="909"/>
	<unicode hex="00C6"/>
	<anchor x="860" y="0" name="ogonek"/>
	<anchor x="466" y="0" name="bottom"/>
	<anchor x="466" y="660" name="top"/>
	<outline>
		<contour>
			<point x="502" y="67" type="line"/>
			<point x="502" y="301" type="line"/>
			<point x="765" y="301" type="line"/>
			<point x="765" y="368" type="line"/>
			<point x="502" y="368" type="line"/>
			<point x="502" y="593" type="line"/>
			<point x="846" y="593" type="line"/>
			<point x="846" y="660" type="line"/>
			<point x="376" y="660" type="line"/>
			<point x="4" y="0" type="line"/>
			<point x="82" y="0" type="line"/>
			<point x="203" y="218" type="line"/>
			<point x="430" y="218" type="line"/>
			<point x="430" y="0" type="line"/>
			<point x="860" y="0" type="line"/>
			<point x="860" y="67" type="line"/>
		</contour>
		<contour>
			<point x="241" y="286" type="line"/>
			<point x="411" y="593" type="line"/>
			<point x="430" y="593" type="line"/>
			<point x="430" y="286" type="line"/>
		</contour>
	</outline>
</glyph>
<glyph name="Idieresis" format="2">
	<advance width="286"/>
	<unicode hex="00CF"/>
	<anchor x="179" y="0" name="ogonek"/>
	<anchor x="143" y="0" name="bottom"/>
	<anchor x="143" y="660" name="top"/>
	<outline>
		<contour>
			<point x="60" y="849" type="curve" smooth="yes"/>
			<point x="29" y="849"/>
			<point x="8" y="828"/>
			<point x="8" y="797" type="curve" smooth="yes"/>
			<point x="8" y="765"/>
			<point x="29" y="744"/>
			<point x="60" y="744" type="curve" smooth="yes"/>
			<point x="92" y="744"/>
			<point x="113" y="765"/>
			<point x="113" y="797" type="curve" smooth="yes"/>
			<point x="113" y="828"/>
			<point x="92" y="849"/>
		</contour>
		<contour>
			<point x="226" y="849" type="curve" smooth="yes"/>
			<point x="194" y="849"/>
			<point x="173" y="828"/>
			<point x="173" y="797" type="curve" smooth="yes"/>
			<point x="173" y="765"/>
			<point x="194" y="744"/>
			<point x="226" y="744" type="curve" smooth="yes"/>
			<point x="257" y="744"/>
			<point x="278" y="765"/>
			<point x="278" y="797" type="curve" smooth="yes"/>
			<point x="278" y="828"/>
			<point x="257" y="849"/>
		</contour>
		<component base="I"/>
	</outline>
</glyph>
<glyph name="Eth" format="2">
  <advance width="716"/>
  <unicode hex="00D0"/>
  <anchor x="333" y="0" name="bottom"/>
  <anchor x="351" y="330" name="center"/>
  <anchor x="321" y="0" name="ogonek"/>
  <anchor x="350" y="660" name="top"/>
  <outline>
    <contour>
      <point x="23" y="300" type="line"/>
      <point x="392" y="300" type="line"/>
      <point x="392" y="367" type="line"/>
      <point x="23" y="367" type="line"/>
    </contour>
    <component base="D"/>
  </outline>
</glyph>
<glyph name="multiply" format="2">
	<unicode hex="00D7"/>
	<advance width="604"/>
	<outline>
		<contour>
			<point x="469" y="102" type="line"/>
			<point x="86" y="484" type="line"/>
			<point x="134" y="532" type="line"/>
			<point x="517" y="150" type="line"/>
		</contour>
		<contour>
			<point x="134" y="102" type="line"/>
			<point x="86" y="150" type="line"/>
			<point x="469" y="532" type="line"/>
			<point x="517" y="484" type="line"/>
		</contour>
	</outline>
</glyph>
<glyph name="Oslash" format="2">
  <advance width="726"/>
  <unicode hex="00D8"/>
  <anchor x="363" y="0" name="bottom"/>
  <anchor x="363" y="330" name="center"/>
  <anchor x="461" y="5" name="ogonek"/>
  <anchor x="363" y="660" name="top"/>
  <anchor x="22" y="660" name="topleft"/>
  <anchor x="532" y="660" name="topright"/>
  <outline>
    <contour>
      <point x="222" y="63" type="line"/>
      <point x="563" y="550" type="line"/>
      <point x="521" y="582" type="line"/>
      <point x="180" y="96" type="line"/>
    </contour>
    <contour>
      <point x="88" y="-36" type="line"/>
      <point x="152" y="-36" type="line"/>
      <point x="222" y="63" type="line"/>
      <point x="180" y="96" type="line"/>
    </contour>
    <contour>
      <point x="563" y="550" type="line"/>
      <point x="657" y="684" type="line"/>
      <point x="592" y="684" type="line"/>
      <point x="521" y="582" type="line"/>
    </contour>
    <component base="O"/>
  </outline>
</glyph>
<glyph name="Thorn" format="2">
	<advance width="602"/>
	<unicode hex="00DE"/>
	<anchor x="179" y="0" name="ogonek"/>
	<anchor x="143" y="0" name="bottom"/>
	<anchor x="143" y="660" name="top"/>
	<outline>
		<contour>
			<point x="316" y="540" type="curve" smooth="yes"/>
			<point x="143" y="540" type="line"/>
			<point x="143" y="473" type="line"/>
			<point x="323" y="473" type="line" smooth="yes"/>
			<point x="424" y="473"/>
			<point x="474" y="429"/>
			<point x="474" y="337" type="curve" smooth="yes"/>
			<point x="474" y="246"/>
			<point x="424" y="202"/>
			<point x="323" y="202" type="curve" smooth="yes"/>
			<point x="143" y="202" type="line"/>
			<point x="143" y="135" type="line"/>
			<point x="316" y="135" type="line" smooth="yes"/>
			<point x="471" y="135"/>
			<point x="549" y="208"/>
			<point x="549" y="337" type="curve" smooth="yes"/>
			<point x="549" y="468"/>
			<point x="471" y="540"/>
		</contour>
		<contour>
			<point x="179" y="660" type="line"/>
			<point x="107" y="660" type="line"/>
			<point x="107" y="0" type="line"/>
			<point x="179" y="0" type="line"/>
		</contour>
	</outline>
</glyph>
<glyph name="germandbls" format="2">
	<advance width="591"/>
	<unicode hex="00DF"/>
	<anchor x="436" y="18" name="ogonek"/>
	<anchor x="314" y="0" name="bottom"/>
	<anchor x="314" y="730" name="top"/>
	<outline>
		<contour>
			<point x="366" y="386" type="curve"/>
			<point x="366" y="388" type="line"/>
			<point x="462" y="394"/>
			<point x="510" y="480"/>
			<point x="510" y="562" type="curve" smooth="yes"/>
			<point x="510" y="652"/>
			<point x="445" y="735"/>
			<point x="315" y="735" type="curve" smooth="yes"/>
			<point x="149" y="735"/>
			<point x="92" y="637"/>
			<point x="92" y="499" type="curve" smooth="yes"/>
			<point x="92" y="0" type="line"/>
			<point x="164" y="0" type="line"/>
			<point x="164" y="477" type="line" smooth="yes"/>
			<point x="164" y="590"/>
			<point x="193" y="668"/>
			<point x="309" y="668" type="curve" smooth="yes"/>
			<point x="383" y="668"/>
			<point x="437" y="630"/>
			<point x="437" y="548" type="curve" smooth="yes"/>
			<point x="437" y="473"/>
			<point x="389" y="416"/>
			<point x="308" y="416" type="curve" smooth="yes"/>
			<point x="262" y="416" type="line"/>
			<point x="261" y="352" type="line"/>
			<point x="315" y="352" type="line" smooth="yes"/>
			<point x="413" y="352"/>
			<point x="466" y="301"/>
			<point x="466" y="203" type="curve" smooth="yes"/>
			<point x="466" y="117"/>
			<point x="420" y="56"/>
			<point x="346" y="56" type="curve" smooth="yes"/>
			<point x="297" y="56"/>
			<point x="271" y="68"/>
			<point x="247" y="85" type="curve"/>
			<point x="227" y="24" type="line"/>
			<point x="246" y="8"/>
			<point x="290" y="-10"/>
			<point x="349" y="-10" type="curve" smooth="yes"/>
			<point x="475" y="-10"/>
			<point x="535" y="87"/>
			<point x="535" y="202" type="curve" smooth="yes"/>
			<point x="535" y="293"/>
			<point x="487" y="385"/>
		</contour>
	</outline>
</glyph>
<glyph name="ae" format="2">
	<unicode hex="00E6"/>
	<advance width="861"/>
	<outline>
		<contour>
			<point x="220" y="-10" type="curve" smooth="yes"/>
			<point x="313" y="-10"/>
			<point x="410" y="45"/>
			<point x="421" y="141" type="curve"/>
			<point x="399" y="135" type="line"/>
			<point x="430" y="41"/>
			<point x="506" y="-10"/>
			<point x="604" y="-10" type="curve" smooth="yes"/>
			<point x="690" y="-10"/>
			<point x="758" y="33"/>
			<point x="794" y="102" type="curve"/>
			<point x="737" y="135" type="line"/>
			<point x="711" y="85"/>
			<point x="665" y="53"/>
			<point x="602" y="53" type="curve" smooth="yes"/>
			<point x="514" y="53"/>
			<point x="449" y="119"/>
			<point x="449" y="230" type="curve" smooth="yes"/>
			<point x="449" y="233" type="line"/>
			<point x="799" y="233" type="line"/>
			<point x="801" y="245"/>
			<point x="803" y="261"/>
			<point x="803" y="282" type="curve" smooth="yes"/>
			<point x="803" y="412"/>
			<point x="725" y="510"/>
			<point x="598" y="510" type="curve" smooth="yes"/>
			<point x="515" y="510"/>
			<point x="443" y="465"/>
			<point x="409" y="389" type="curve"/>
			<point x="431" y="386" type="line"/>
			<point x="411" y="472"/>
			<point x="342" y="510"/>
			<point x="257" y="510" type="curve" smooth="yes"/>
			<point x="162" y="510"/>
			<point x="92" y="461"/>
			<point x="63" y="385" type="curve"/>
			<point x="122" y="349" type="line"/>
			<point x="146" y="415"/>
			<point x="194" y="447"/>
			<point x="258" y="447" type="curve" smooth="yes"/>
			<point x="327" y="447"/>
			<point x="373" y="402"/>
			<point x="373" y="325" type="curve" smooth="yes"/>
			<point x="373" y="302" type="line"/>
			<point x="192" y="264" type="line" smooth="yes"/>
			<point x="105" y="246"/>
			<point x="60" y="195"/>
			<point x="60" y="124" type="curve" smooth="yes"/>
			<point x="60" y="35"/>
			<point x="130" y="-10"/>
		</contour>
		<contour>
			<point x="228" y="53" type="curve" smooth="yes"/>
			<point x="167" y="53"/>
			<point x="133" y="83"/>
			<point x="133" y="128" type="curve" smooth="yes"/>
			<point x="133" y="174"/>
			<point x="164" y="197"/>
			<point x="230" y="211" type="curve" smooth="yes"/>
			<point x="373" y="241" type="line"/>
			<point x="373" y="184" type="line" smooth="yes"/>
			<point x="373" y="93"/>
			<point x="301" y="53"/>
		</contour>
		<contour>
			<point x="448" y="297" type="line"/>
			<point x="461" y="392"/>
			<point x="518" y="447"/>
			<point x="597" y="447" type="curve" smooth="yes"/>
			<point x="675" y="447"/>
			<point x="728" y="391"/>
			<point x="731" y="297" type="curve"/>
		</contour>
	</outline>
	<anchor name="bottom" x="416" y="0"/>
	<anchor name="ogonek" x="671" y="0"/>
	<anchor name="top" x="429" y="500"/>
</glyph>
<glyph name="idieresis" format="2">
	<advance width="256"/>
	<unicode hex="00EF"/>
	<anchor x="164" y="0" name="ogonek"/>
	<anchor x="128" y="0" name="bottom"/>
	<anchor x="128" y="500" name="top"/>
	<outline>
		<contour>
			<point x="204" y="584" type="curve" smooth="yes"/>
			<point x="236" y="584"/>
			<point x="257" y="605"/>
			<point x="257" y="637" type="curve" smooth="yes"/>
			<point x="257" y="668"/>
			<point x="236" y="689"/>
			<point x="204" y="689" type="curve" smooth="yes"/>
			<point x="172" y="689"/>
			<point x="151" y="668"/>
			<point x="151" y="637" type="curve" smooth="yes"/>
			<point x="151" y="605"/>
			<point x="172" y="584"/>
		</contour>
		<contour>
			<point x="52" y="584" type="curve" smooth="yes"/>
			<point x="84" y="584"/>
			<point x="105" y="605"/>
			<point x="105" y="637" type="curve" smooth="yes"/>
			<point x="105" y="668"/>
			<point x="84" y="689"/>
			<point x="52" y="689" type="curve" smooth="yes"/>
			<point x="20" y="689"/>
			<point x="-1" y="668"/>
			<point x="-1" y="637" type="curve" smooth="yes"/>
			<point x="-1" y="605"/>
			<point x="20" y="584"/>
		</contour>
		<component base="idotless"/>
	</outline>
</glyph>
<glyph name="eth" format="2">
	<unicode hex="00F0"/>
	<advance width="599"/>
	<outline>
		<contour>
			<point x="289" y="-10" type="curve" smooth="yes"/>
			<point x="448" y="-10"/>
			<point x="526" y="110"/>
			<point x="526" y="287" type="curve" smooth="yes"/>
			<point x="526" y="498"/>
			<point x="449" y="642"/>
			<point x="302" y="730" type="curve"/>
			<point x="204" y="730" type="line"/>
			<point x="349" y="651"/>
			<point x="427" y="543"/>
			<point x="454" y="385" type="curve"/>
			<point x="462" y="392" type="line"/>
			<point x="430" y="451"/>
			<point x="370" y="485"/>
			<point x="286" y="485" type="curve" smooth="yes"/>
			<point x="157" y="485"/>
			<point x="61" y="392"/>
			<point x="61" y="238" type="curve" smooth="yes"/>
			<point x="61" y="84"/>
			<point x="149" y="-10"/>
		</contour>
		<contour>
			<point x="292" y="53" type="curve" smooth="yes"/>
			<point x="196" y="53"/>
			<point x="135" y="122"/>
			<point x="135" y="238" type="curve" smooth="yes"/>
			<point x="135" y="352"/>
			<point x="196" y="422"/>
			<point x="296" y="422" type="curve" smooth="yes"/>
			<point x="393" y="422"/>
			<point x="455" y="353"/>
			<point x="455" y="241" type="curve" smooth="yes"/>
			<point x="455" y="141"/>
			<point x="397" y="53"/>
		</contour>
		<contour>
			<point x="205" y="538" type="line"/>
			<point x="413" y="593" type="line"/>
			<point x="382" y="636" type="line"/>
			<point x="191" y="593" type="line"/>
		</contour>
		<contour>
			<point x="414" y="593" type="line"/>
			<point x="533" y="621" type="line"/>
			<point x="519" y="675" type="line"/>
			<point x="383" y="636" type="line"/>
		</contour>
	</outline>
	<anchor name="bottom" x="293" y="0"/>
	<anchor name="ogonek" x="401" y="18"/>
	<anchor name="top" x="293" y="730"/>
</glyph>
<glyph name="divide" format="2">
	<unicode hex="00F7"/>
	<advance width="604"/>
	<outline>
		<contour>
			<point x="543" y="350" type="line"/>
			<point x="61" y="350" type="line"/>
			<point x="61" y="283" type="line"/>
			<point x="543" y="283" type="line"/>
		</contour>
		<contour>
			<point x="312" y="62" type="curve" smooth="yes"/>
			<point x="348" y="62"/>
			<point x="372" y="86"/>
			<point x="372" y="121" type="curve" smooth="yes"/>
			<point x="372" y="157"/>
			<point x="348" y="181"/>
			<point x="312" y="181" type="curve" smooth="yes"/>
			<point x="276" y="181"/>
			<point x="252" y="157"/>
			<point x="252" y="121" type="curve" smooth="yes"/>
			<point x="252" y="86"/>
			<point x="276" y="62"/>
		</contour>
		<contour>
			<point x="312" y="451" type="curve" smooth="yes"/>
			<point x="348" y="451"/>
			<point x="372" y="475"/>
			<point x="372" y="510" type="curve" smooth="yes"/>
			<point x="372" y="546"/>
			<point x="348" y="570"/>
			<point x="312" y="570" type="curve" smooth="yes"/>
			<point x="276" y="570"/>
			<point x="252" y="546"/>
			<point x="252" y="510" type="curve" smooth="yes"/>
			<point x="252" y="475"/>
			<point x="276" y="451"/>
		</contour>
	</outline>
	<anchor name="_center" x="252" y="121"/>
</glyph>
<glyph name="thorn" format="2">
	<unicode hex="00FE"/>
	<advance width="604"/>
	<outline>
		<contour>
			<point x="92" y="-210" type="line"/>
			<point x="164" y="-210" type="line"/>
			<point x="164" y="119" type="line"/>
			<point x="155" y="105" type="line"/>
			<point x="181" y="37"/>
			<point x="245" y="-10"/>
			<point x="326" y="-10" type="curve" smooth="yes"/>
			<point x="446" y="-10"/>
			<point x="545" y="88"/>
			<point x="545" y="250" type="curve" smooth="yes"/>
			<point x="545" y="413"/>
			<point x="447" y="510"/>
			<point x="327" y="510" type="curve" smooth="yes"/>
			<point x="247" y="510"/>
			<point x="181" y="463"/>
			<point x="155" y="395" type="curve"/>
			<point x="164" y="373" type="line"/>
			<point x="164" y="730" type="line"/>
			<point x="92" y="730" type="line"/>
		</contour>
		<contour>
			<point x="318" y="53" type="curve" smooth="yes"/>
			<point x="226" y="53"/>
			<point x="164" y="131"/>
			<point x="164" y="250" type="curve" smooth="yes"/>
			<point x="164" y="370"/>
			<point x="228" y="447"/>
			<point x="321" y="447" type="curve" smooth="yes"/>
			<point x="416" y="447"/>
			<point x="473" y="370"/>
			<point x="473" y="250" type="curve" smooth="yes"/>
			<point x="473" y="130"/>
			<point x="414" y="53"/>
		</contour>
	</outline>
	<anchor name="bottom" x="128" y="-210"/>
	<anchor name="ogonek" x="430" y="18"/>
	<anchor name="top" x="128" y="730"/>
</glyph>
<glyph name="idotless" format="2">
	<unicode hex="0131"/>
	<advance width="256"/>
	<outline>
		<contour>
			<point x="164" y="500" type="line"/>
			<point x="92" y="500" type="line"/>
			<point x="92" y="0" type="line"/>
			<point x="164" y="0" type="line"/>
		</contour>
	</outline>
	<anchor name="bottom" x="128" y="0"/>
	<anchor name="ogonek" x="164" y="0"/>
	<anchor name="top" x="128" y="500"/>
</glyph>
<glyph name="OE" format="2">
	<unicode hex="0152"/>
	<advance width="1044"/>
	<outline>
		<contour>
			<point x="635" y="67" type="line"/>
			<point x="635" y="301" type="line"/>
			<point x="900" y="301" type="line"/>
			<point x="900" y="369" type="line"/>
			<point x="635" y="369" type="line"/>
			<point x="635" y="593" type="line"/>
			<point x="980" y="593" type="line"/>
			<point x="980" y="660" type="line"/>
			<point x="569" y="660" type="line"/>
			<point x="569" y="552" type="line"/>
			<point x="525" y="629"/>
			<point x="450" y="670"/>
			<point x="358" y="670" type="curve" smooth="yes"/>
			<point x="174" y="670"/>
			<point x="67" y="539"/>
			<point x="67" y="330" type="curve" smooth="yes"/>
			<point x="67" y="121"/>
			<point x="177" y="-10"/>
			<point x="356" y="-10" type="curve" smooth="yes"/>
			<point x="449" y="-10"/>
			<point x="524" y="32"/>
			<point x="569" y="110" type="curve"/>
			<point x="569" y="0" type="line"/>
			<point x="995" y="0" type="line"/>
			<point x="995" y="67" type="line"/>
		</contour>
		<contour>
			<point x="361" y="57" type="curve" smooth="yes"/>
			<point x="223" y="57"/>
			<point x="142" y="160"/>
			<point x="142" y="330" type="curve" smooth="yes"/>
			<point x="142" y="500"/>
			<point x="223" y="603"/>
			<point x="361" y="603" type="curve" smooth="yes"/>
			<point x="487" y="603"/>
			<point x="568" y="503"/>
			<point x="568" y="330" type="curve" smooth="yes"/>
			<point x="568" y="157"/>
			<point x="487" y="57"/>
		</contour>
	</outline>
	<anchor name="bottom" x="574" y="0"/>
	<anchor name="ogonek" x="995" y="0"/>
	<anchor name="top" x="574" y="660"/>
</glyph>
<glyph name="oe" format="2">
	<advance width="950"/>
	<unicode hex="0153"/>
	<anchor x="488" y="500" name="top"/>
	<anchor x="488" y="0" name="bottom"/>
	<outline>
		<contour>
			<point x="289" y="-10" type="curve" smooth="yes"/>
			<point x="384" y="-10"/>
			<point x="461" y="39"/>
			<point x="496" y="135" type="curve"/>
			<point x="475" y="134" type="line"/>
			<point x="511" y="38"/>
			<point x="589" y="-10"/>
			<point x="684" y="-10" type="curve" smooth="yes"/>
			<point x="776" y="-10"/>
			<point x="847" y="33"/>
			<point x="883" y="102" type="curve"/>
			<point x="826" y="135" type="line"/>
			<point x="799" y="85"/>
			<point x="753" y="53"/>
			<point x="683" y="53" type="curve" smooth="yes"/>
			<point x="585" y="53"/>
			<point x="520" y="127"/>
			<point x="520" y="250" type="curve" smooth="yes"/>
			<point x="520" y="373"/>
			<point x="583" y="447"/>
			<point x="678" y="447" type="curve" smooth="yes"/>
			<point x="762" y="447"/>
			<point x="817" y="391"/>
			<point x="820" y="295" type="curve"/>
			<point x="497" y="295" type="line"/>
			<point x="497" y="231" type="line"/>
			<point x="888" y="231" type="line"/>
			<point x="890" y="243"/>
			<point x="892" y="260"/>
			<point x="892" y="280" type="curve" smooth="yes"/>
			<point x="892" y="412"/>
			<point x="813" y="510"/>
			<point x="680" y="510" type="curve" smooth="yes"/>
			<point x="588" y="510"/>
			<point x="511" y="461"/>
			<point x="475" y="366" type="curve"/>
			<point x="496" y="366" type="line"/>
			<point x="460" y="461"/>
			<point x="383" y="510"/>
			<point x="289" y="510" type="curve" smooth="yes"/>
			<point x="155" y="510"/>
			<point x="57" y="412"/>
			<point x="57" y="250" type="curve" smooth="yes"/>
			<point x="57" y="88"/>
			<point x="155" y="-10"/>
		</contour>
		<contour>
			<point x="290" y="52" type="curve" smooth="yes"/>
			<point x="191" y="52"/>
			<point x="129" y="127"/>
			<point x="129" y="250" type="curve" smooth="yes"/>
			<point x="129" y="373"/>
			<point x="191" y="448"/>
			<point x="290" y="448" type="curve" smooth="yes"/>
			<point x="389" y="448"/>
			<point x="450" y="373"/>
			<point x="450" y="250" type="curve" smooth="yes"/>
			<point x="450" y="127"/>
			<point x="389" y="52"/>
		</contour>
	</outline>
</glyph>
<glyph name="jdotless" format="2">
  <advance width="238"/>
  <unicode hex="0237"/>
  <anchor x="110" y="500" name="top"/>
  <outline>
    <contour>
      <point x="8" y="-215" type="curve" smooth="yes"/>
      <point x="74" y="-215"/>
      <point x="146" y="-174"/>
      <point x="146" y="-53" type="curve" smooth="yes"/>
      <point x="146" y="500" type="line"/>
      <point x="74" y="500" type="line"/>
      <point x="74" y="-46" type="line" smooth="yes"/>
      <point x="74" y="-117"/>
      <point x="45" y="-145"/>
      <point x="4" y="-145" type="curve" smooth="yes"/>
      <point x="-26" y="-145"/>
      <point x="-51" y="-132"/>
      <point x="-67" y="-115" type="curve"/>
      <point x="-82" y="-183" type="line"/>
      <point x="-61" y="-202"/>
      <point x="-29" y="-215"/>
    </contour>
  </outline>
</glyph>
<glyph name="gravecomb" format="2">
	<unicode hex="0300"/>
	<outline>
		<contour>
			<point x="-39" y="748" type="line"/>
			<point x="-117" y="748" type="line"/>
			<point x="-21" y="583" type="line"/>
			<point x="38" y="583" type="line"/>
		</contour>
	</outline>
	<anchor name="_top" x="0" y="500"/>
	<anchor name="top" x="0" y="733"/>
</glyph>
<glyph name="acutecomb" format="2">
  <unicode hex="0301"/>
  <anchor x="0" y="500" name="_top"/>
  <anchor x="0" y="702" name="top"/>
  <outline>
    <contour>
      <point x="33" y="748" type="line"/>
      <point x="-44" y="583" type="line"/>
      <point x="15" y="583" type="line"/>
      <point x="112" y="748" type="line"/>
    </contour>
  </outline>
</glyph>
<glyph name="circumflexcomb" format="2">
	<unicode hex="0302"/>
	<outline>
		<contour>
			<point x="154" y="577" type="line"/>
			<point x="41" y="741" type="line"/>
			<point x="-41" y="741" type="line"/>
			<point x="-154" y="577" type="line"/>
			<point x="-88" y="577" type="line"/>
			<point x="0" y="694" type="line"/>
			<point x="88" y="577" type="line"/>
		</contour>
	</outline>
	<anchor name="_top" x="0" y="500"/>
	<anchor name="top" x="0" y="682"/>
</glyph>
<glyph name="tildecomb" format="2">
  <unicode hex="0303"/>
  <anchor x="0" y="500" name="_top"/>
  <anchor x="-1" y="693" name="top"/>
  <outline>
    <contour>
      <point x="177" y="713" type="curve"/>
      <point x="120" y="713" type="line"/>
      <point x="113" y="670"/>
      <point x="99" y="644"/>
      <point x="68" y="644" type="curve" smooth="yes"/>
      <point x="26" y="644"/>
      <point x="3" y="712"/>
      <point x="-69" y="712" type="curve" smooth="yes"/>
      <point x="-137" y="712"/>
      <point x="-171" y="668"/>
      <point x="-179" y="584" type="curve"/>
      <point x="-122" y="584" type="line"/>
      <point x="-115" y="627"/>
      <point x="-101" y="653"/>
      <point x="-70" y="653" type="curve" smooth="yes"/>
      <point x="-26" y="653"/>
      <point x="-5" y="585"/>
      <point x="69" y="585" type="curve" smooth="yes"/>
      <point x="135" y="585"/>
      <point x="170" y="629"/>
    </contour>
  </outline>
</glyph>
<glyph name="macroncomb" format="2">
	<unicode hex="0304"/>
	<outline>
		<contour>
			<point x="162" y="658" type="line"/>
			<point x="-162" y="658" type="line"/>
			<point x="-162" y="597" type="line"/>
			<point x="162" y="597" type="line"/>
		</contour>
	</outline>
	<anchor name="_top" x="0" y="500"/>
	<anchor name="top" x="0" y="656"/>
</glyph>
<glyph name="brevecomb" format="2">
	<unicode hex="0306"/>
	<outline>
		<contour>
			<point x="145" y="722" type="curve"/>
			<point x="86" y="722" type="line"/>
			<point x="85" y="673"/>
			<point x="56" y="632"/>
			<point x="0" y="632" type="curve" smooth="yes"/>
			<point x="-56" y="632"/>
			<point x="-85" y="673"/>
			<point x="-86" y="722" type="curve"/>
			<point x="-145" y="722" type="line"/>
			<point x="-145" y="636"/>
			<point x="-87" y="578"/>
			<point x="0" y="578" type="curve" smooth="yes"/>
			<point x="87" y="578"/>
			<point x="145" y="636"/>
		</contour>
	</outline>
	<anchor name="_top" x="0" y="500"/>
	<anchor name="top" x="0" y="656"/>
	<anchor name="top_viet" x="0" y="663"/>
</glyph>
<glyph name="dotaccentcomb" format="2">
	<unicode hex="0307"/>
	<outline>
		<contour>
			<point x="0" y="707" type="curve" smooth="yes"/>
			<point x="-33" y="707"/>
			<point x="-55" y="685"/>
			<point x="-55" y="652" type="curve" smooth="yes"/>
			<point x="-55" y="618"/>
			<point x="-33" y="596"/>
			<point x="0" y="596" type="curve" smooth="yes"/>
			<point x="33" y="596"/>
			<point x="55" y="618"/>
			<point x="55" y="652" type="curve" smooth="yes"/>
			<point x="55" y="685"/>
			<point x="33" y="707"/>
		</contour>
	</outline>
	<anchor name="_top" x="0" y="500"/>
	<anchor name="top" x="0" y="683"/>
</glyph>
<glyph name="dieresiscomb" format="2">
  <unicode hex="0308"/>
  <anchor x="0" y="500" name="_top"/>
  <anchor x="0" y="665" name="top"/>
  <outline>
    <contour>
      <point x="-97" y="689" type="curve" smooth="yes"/>
      <point x="-128" y="689"/>
      <point x="-149" y="668"/>
      <point x="-149" y="637" type="curve" smooth="yes"/>
      <point x="-149" y="605"/>
      <point x="-128" y="584"/>
      <point x="-97" y="584" type="curve" smooth="yes"/>
      <point x="-65" y="584"/>
      <point x="-44" y="605"/>
      <point x="-44" y="637" type="curve" smooth="yes"/>
      <point x="-44" y="668"/>
      <point x="-65" y="689"/>
    </contour>
    <contour>
      <point x="96" y="689" type="curve" smooth="yes"/>
      <point x="65" y="689"/>
      <point x="44" y="668"/>
      <point x="44" y="637" type="curve" smooth="yes"/>
      <point x="44" y="605"/>
      <point x="65" y="584"/>
      <point x="96" y="584" type="curve" smooth="yes"/>
      <point x="128" y="584"/>
      <point x="149" y="605"/>
      <point x="149" y="637" type="curve" smooth="yes"/>
      <point x="149" y="668"/>
      <point x="128" y="689"/>
    </contour>
  </outline>
</glyph>
<glyph name="ringcomb" format="2">
  <unicode hex="030A"/>
  <anchor x="0" y="500" name="_top"/>
  <anchor x="0" y="774" name="top"/>
  <outline>
    <contour>
      <point x="-3" y="802" type="curve" smooth="yes"/>
      <point x="-74" y="802"/>
      <point x="-123" y="756"/>
      <point x="-123" y="689" type="curve" smooth="yes"/>
      <point x="-123" y="621"/>
      <point x="-74" y="575"/>
      <point x="-3" y="575" type="curve" smooth="yes"/>
      <point x="69" y="575"/>
      <point x="117" y="621"/>
      <point x="117" y="689" type="curve" smooth="yes"/>
      <point x="117" y="756"/>
      <point x="69" y="802"/>
    </contour>
    <contour>
      <point x="-3" y="758" type="curve" smooth="yes"/>
      <point x="38" y="758"/>
      <point x="68" y="729"/>
      <point x="68" y="689" type="curve" smooth="yes"/>
      <point x="68" y="650"/>
      <point x="38" y="621"/>
      <point x="-3" y="621" type="curve" smooth="yes"/>
      <point x="-43" y="621"/>
      <point x="-73" y="650"/>
      <point x="-73" y="689" type="curve" smooth="yes"/>
      <point x="-73" y="729"/>
      <point x="-43" y="758"/>
    </contour>
  </outline>
</glyph>
<glyph name="cedillacomb" format="2">
	<advance width="0"/>
	<unicode hex="0327"/>
	<anchor x="1" y="0" name="_bottom"/>
	<anchor x="-22" y="-213" name="bottom"/>
	<outline>
		<contour>
			<point x="-52" y="4" type="line"/>
			<point x="13" y="-26"/>
			<point x="35" y="-49"/>
			<point x="35" y="-85" type="curve" smooth="yes"/>
			<point x="35" y="-131"/>
			<point x="8" y="-156"/>
			<point x="-30" y="-156" type="curve" smooth="yes"/>
			<point x="-61" y="-156"/>
			<point x="-80" y="-145"/>
			<point x="-99" y="-131" type="curve"/>
			<point x="-117" y="-183" type="line"/>
			<point x="-94" y="-201"/>
			<point x="-64" y="-213"/>
			<point x="-22" y="-213" type="curve" smooth="yes"/>
			<point x="46" y="-213"/>
			<point x="95" y="-164"/>
			<point x="95" y="-101" type="curve" smooth="yes"/>
			<point x="95" y="-44"/>
			<point x="65" y="0"/>
			<point x="-12" y="26" type="curve"/>
		</contour>
	</outline>
</glyph>
<glyph name="slashlongcomb" format="2">
  <unicode hex="0338"/>
  <anchor x="302" y="250" name="_center"/>
  <outline>
    <contour>
      <point x="58" y="-30" type="line"/>
      <point x="119" y="-30" type="line"/>
      <point x="545" y="530" type="line"/>
      <point x="484" y="530" type="line"/>
    </contour>
  </outline>
</glyph>
<glyph name="ka-khmer" format="2">
	<advance width="624"/>
	<unicode hex="1780"/>
	<anchor x="312" y="594" name="top"/>
	<anchor x="518" y="594" name="topright"/>
	<anchor x="518" y="0" name="bottomright"/>
	<anchor x="312" y="0" name="bottom"/>
	<outline>
		<contour>
			<point x="106" y="264" type="curve" smooth="yes"/>
			<point x="106" y="0" type="line"/>
			<point x="176" y="0" type="line"/>
			<point x="176" y="264" type="line" smooth="yes"/>
			<point x="176" y="353"/>
			<point x="226" y="404"/>
			<point x="312" y="404" type="curve" smooth="yes"/>
			<point x="398" y="404"/>
			<point x="448" y="353"/>
			<point x="448" y="264" type="curve" smooth="yes"/>
			<point x="448" y="0" type="line"/>
			<point x="518" y="0" type="line"/>
			<point x="518" y="264" type="line" smooth="yes"/>
			<point x="518" y="391"/>
			<point x="443" y="464"/>
			<point x="312" y="464" type="curve" smooth="yes"/>
			<point x="181" y="464"/>
			<point x="106" y="391"/>
		</contour>
		<contour>
			<point x="102" y="530" type="line"/>
			<point x="522" y="530" type="line"/>
			<point x="522" y="594" type="line"/>
			<point x="102" y="594" type="line"/>
		</contour>
	</outline>
</glyph>
<glyph name="kha-khmer" format="2">
	<unicode hex="1781"/>
	<advance width="594"/>
	<outline>
		<contour>
			<point x="297" y="-10" type="curve" smooth="yes"/>
			<point x="415" y="-10"/>
			<point x="494" y="49"/>
			<point x="494" y="141" type="curve" smooth="yes"/>
			<point x="494" y="174"/>
			<point x="484" y="206"/>
			<point x="467" y="232" type="curve"/>
			<point x="405" y="204" type="line"/>
			<point x="419" y="184"/>
			<point x="425" y="164"/>
			<point x="425" y="144" type="curve" smooth="yes"/>
			<point x="425" y="87"/>
			<point x="376" y="50"/>
			<point x="299" y="50" type="curve" smooth="yes"/>
			<point x="217" y="50"/>
			<point x="168" y="89"/>
			<point x="168" y="159" type="curve" smooth="yes"/>
			<point x="168" y="211" type="line"/>
			<point x="331" y="233"/>
			<point x="508" y="277"/>
			<point x="508" y="434" type="curve" smooth="yes"/>
			<point x="508" y="543"/>
			<point x="422" y="604"/>
			<point x="296" y="604" type="curve" smooth="yes"/>
			<point x="171" y="604"/>
			<point x="92" y="542"/>
			<point x="92" y="451" type="curve" smooth="yes"/>
			<point x="92" y="380"/>
			<point x="138" y="336"/>
			<point x="205" y="336" type="curve" smooth="yes"/>
			<point x="230" y="336"/>
			<point x="248" y="342"/>
			<point x="257" y="346" type="curve"/>
			<point x="257" y="403" type="line"/>
			<point x="246" y="398"/>
			<point x="228" y="393"/>
			<point x="212" y="393" type="curve" smooth="yes"/>
			<point x="181" y="393"/>
			<point x="163" y="415"/>
			<point x="163" y="450" type="curve" smooth="yes"/>
			<point x="163" y="510"/>
			<point x="218" y="544"/>
			<point x="295" y="544" type="curve" smooth="yes"/>
			<point x="384" y="544"/>
			<point x="436" y="503"/>
			<point x="436" y="431" type="curve" smooth="yes"/>
			<point x="436" y="311"/>
			<point x="298" y="290"/>
			<point x="98" y="260" type="curve"/>
			<point x="98" y="159" type="line" smooth="yes"/>
			<point x="98" y="57"/>
			<point x="170" y="-10"/>
		</contour>
	</outline>
	<anchor name="bottom" x="297" y="0"/>
	<anchor name="bottomright" x="484" y="0"/>
	<anchor name="top" x="296" y="594"/>
	<anchor name="topright" x="498" y="594"/>
</glyph>
<glyph name="ko-khmer" format="2">
	<advance width="624"/>
	<unicode hex="1782"/>
	<anchor x="312" y="594" name="top"/>
	<anchor x="518" y="594" name="topright"/>
	<anchor x="518" y="0" name="bottomright"/>
	<anchor x="312" y="0" name="bottom"/>
	<outline>
		<contour>
			<point x="106" y="264" type="curve" smooth="yes"/>
			<point x="106" y="0" type="line"/>
			<point x="176" y="0" type="line"/>
			<point x="176" y="82" type="line"/>
			<point x="196" y="127"/>
			<point x="226" y="172"/>
			<point x="306" y="172" type="curve" smooth="yes"/>
			<point x="332" y="172" type="line"/>
			<point x="332" y="228" type="line"/>
			<point x="306" y="228" type="line" smooth="yes"/>
			<point x="215" y="228"/>
			<point x="176" y="177"/>
			<point x="164" y="118" type="curve"/>
			<point x="176" y="118" type="line"/>
			<point x="176" y="264" type="line" smooth="yes"/>
			<point x="176" y="353"/>
			<point x="226" y="404"/>
			<point x="312" y="404" type="curve" smooth="yes"/>
			<point x="398" y="404"/>
			<point x="448" y="353"/>
			<point x="448" y="264" type="curve" smooth="yes"/>
			<point x="448" y="0" type="line"/>
			<point x="518" y="0" type="line"/>
			<point x="518" y="264" type="line" smooth="yes"/>
			<point x="518" y="391"/>
			<point x="443" y="464"/>
			<point x="312" y="464" type="curve" smooth="yes"/>
			<point x="181" y="464"/>
			<point x="106" y="391"/>
		</contour>
		<contour>
			<point x="102" y="530" type="line"/>
			<point x="522" y="530" type="line"/>
			<point x="522" y="594" type="line"/>
			<point x="102" y="594" type="line"/>
		</contour>
	</outline>
</glyph>
<glyph name="kho-khmer" format="2">
	<unicode hex="1783"/>
	<advance width="926"/>
	<outline>
		<contour>
			<point x="298" y="-10" type="curve" smooth="yes"/>
			<point x="388" y="-10"/>
			<point x="446" y="32"/>
			<point x="472" y="103" type="curve"/>
			<point x="462" y="103" type="line"/>
			<point x="488" y="31"/>
			<point x="544" y="-10"/>
			<point x="632" y="-10" type="curve" smooth="yes"/>
			<point x="752" y="-10"/>
			<point x="820" y="58"/>
			<point x="820" y="176" type="curve" smooth="yes"/>
			<point x="820" y="428" type="line" smooth="yes"/>
			<point x="820" y="466"/>
			<point x="799" y="485"/>
			<point x="766" y="500" type="curve"/>
			<point x="766" y="508" type="line" smooth="yes"/>
			<point x="766" y="523"/>
			<point x="774" y="530"/>
			<point x="787" y="530" type="curve" smooth="yes"/>
			<point x="840" y="530" type="line"/>
			<point x="840" y="594" type="line"/>
			<point x="779" y="594" type="line" smooth="yes"/>
			<point x="731" y="594"/>
			<point x="706" y="569"/>
			<point x="706" y="520" type="curve" smooth="yes"/>
			<point x="706" y="481" type="line"/>
			<point x="734" y="468"/>
			<point x="750" y="456"/>
			<point x="750" y="428" type="curve" smooth="yes"/>
			<point x="750" y="176" type="line" smooth="yes"/>
			<point x="750" y="96"/>
			<point x="705" y="50"/>
			<point x="626" y="50" type="curve" smooth="yes"/>
			<point x="548" y="50"/>
			<point x="502" y="97"/>
			<point x="502" y="176" type="curve" smooth="yes"/>
			<point x="502" y="428" type="line" smooth="yes"/>
			<point x="502" y="466"/>
			<point x="481" y="485"/>
			<point x="448" y="500" type="curve"/>
			<point x="448" y="508" type="line" smooth="yes"/>
			<point x="448" y="523"/>
			<point x="456" y="530"/>
			<point x="469" y="530" type="curve" smooth="yes"/>
			<point x="522" y="530" type="line"/>
			<point x="522" y="594" type="line"/>
			<point x="461" y="594" type="line" smooth="yes"/>
			<point x="413" y="594"/>
			<point x="388" y="569"/>
			<point x="388" y="520" type="curve" smooth="yes"/>
			<point x="388" y="481" type="line"/>
			<point x="416" y="468"/>
			<point x="432" y="456"/>
			<point x="432" y="428" type="curve" smooth="yes"/>
			<point x="432" y="176" type="line" smooth="yes"/>
			<point x="432" y="97"/>
			<point x="386" y="50"/>
			<point x="304" y="50" type="curve" smooth="yes"/>
			<point x="223" y="50"/>
			<point x="176" y="96"/>
			<point x="176" y="176" type="curve" smooth="yes"/>
			<point x="176" y="307" type="line"/>
			<point x="206" y="434" type="line"/>
			<point x="206" y="550" type="line" smooth="yes"/>
			<point x="206" y="584"/>
			<point x="184" y="600"/>
			<point x="140" y="600" type="curve" smooth="yes"/>
			<point x="83" y="600"/>
			<point x="54" y="571"/>
			<point x="54" y="514" type="curve" smooth="yes"/>
			<point x="54" y="454"/>
			<point x="90" y="430"/>
			<point x="138" y="430" type="curve" smooth="yes"/>
			<point x="143" y="430" type="line"/>
			<point x="136" y="436" type="line"/>
			<point x="106" y="309" type="line"/>
			<point x="106" y="176" type="line" smooth="yes"/>
			<point x="106" y="58"/>
			<point x="176" y="-10"/>
		</contour>
		<contour>
			<point x="139" y="554" type="curve"/>
			<point x="139" y="474" type="line"/>
			<point x="116" y="474"/>
			<point x="103" y="488"/>
			<point x="103" y="514" type="curve" smooth="yes"/>
			<point x="103" y="540"/>
			<point x="116" y="554"/>
		</contour>
	</outline>
	<anchor name="bottom" x="626" y="0"/>
	<anchor name="bottomright" x="810" y="0"/>
	<anchor name="top" x="626" y="594"/>
	<anchor name="topright" x="820" y="594"/>
</glyph>
<glyph name="ngo-khmer" format="2">
	<unicode hex="1784"/>
	<advance width="604"/>
	<outline>
		<contour>
			<point x="106" y="0" type="line"/>
			<point x="176" y="0" type="line"/>
			<point x="312" y="126" type="line"/>
			<point x="448" y="0" type="line"/>
			<point x="518" y="0" type="line"/>
			<point x="518" y="340" type="line" smooth="yes"/>
			<point x="518" y="399"/>
			<point x="500" y="434"/>
			<point x="438" y="460" type="curve"/>
			<point x="391" y="432" type="line"/>
			<point x="439" y="410"/>
			<point x="448" y="385"/>
			<point x="448" y="340" type="curve" smooth="yes"/>
			<point x="448" y="83" type="line"/>
			<point x="312" y="206" type="line"/>
			<point x="176" y="83" type="line"/>
			<point x="176" y="323" type="line"/>
			<point x="60" y="323" type="line"/>
			<point x="60" y="269" type="line"/>
			<point x="106" y="269" type="line"/>
		</contour>
		<contour>
			<point x="258" y="377" type="curve" smooth="yes"/>
			<point x="340" y="377"/>
			<point x="395" y="408"/>
			<point x="422" y="437" type="curve"/>
			<point x="460" y="446"/>
			<point x="495" y="478"/>
			<point x="495" y="521" type="curve" smooth="yes"/>
			<point x="495" y="568"/>
			<point x="462" y="599"/>
			<point x="410" y="599" type="curve" smooth="yes"/>
			<point x="359" y="599"/>
			<point x="325" y="567"/>
			<point x="325" y="521" type="curve" smooth="yes"/>
			<point x="325" y="479"/>
			<point x="356" y="450"/>
			<point x="392" y="447" type="curve"/>
			<point x="388" y="474" type="line"/>
			<point x="356" y="448"/>
			<point x="323" y="432"/>
			<point x="267" y="432" type="curve" smooth="yes"/>
			<point x="199" y="432"/>
			<point x="171" y="456"/>
			<point x="171" y="492" type="curve" smooth="yes"/>
			<point x="171" y="521"/>
			<point x="187" y="550"/>
			<point x="187" y="580" type="curve" smooth="yes"/>
			<point x="187" y="615"/>
			<point x="166" y="634"/>
			<point x="120" y="634" type="curve" smooth="yes"/>
			<point x="88" y="634" type="line"/>
			<point x="88" y="582" type="line"/>
			<point x="101" y="582" type="line" smooth="yes"/>
			<point x="115" y="582"/>
			<point x="119" y="576"/>
			<point x="119" y="563" type="curve" smooth="yes"/>
			<point x="119" y="538"/>
			<point x="103" y="517"/>
			<point x="103" y="483" type="curve" smooth="yes"/>
			<point x="103" y="417"/>
			<point x="167" y="377"/>
		</contour>
		<contour>
			<point x="410" y="487" type="curve" smooth="yes"/>
			<point x="392" y="487"/>
			<point x="379" y="501"/>
			<point x="379" y="519" type="curve" smooth="yes"/>
			<point x="379" y="537"/>
			<point x="392" y="551"/>
			<point x="410" y="551" type="curve" smooth="yes"/>
			<point x="428" y="551"/>
			<point x="441" y="537"/>
			<point x="441" y="519" type="curve" smooth="yes"/>
			<point x="441" y="501"/>
			<point x="428" y="487"/>
		</contour>
	</outline>
	<anchor name="bottom" x="312" y="0"/>
	<anchor name="bottomright" x="518" y="0"/>
	<anchor name="top" x="302" y="594"/>
	<anchor name="topright" x="506" y="599"/>
</glyph>
<glyph name="ca-khmer" format="2">
	<unicode hex="1785"/>
	<advance width="624"/>
	<outline>
		<contour>
			<point x="312" y="-10" type="curve" smooth="yes"/>
			<point x="443" y="-10"/>
			<point x="518" y="63"/>
			<point x="518" y="190" type="curve" smooth="yes"/>
			<point x="518" y="402" type="line" smooth="yes"/>
			<point x="518" y="436"/>
			<point x="496" y="452"/>
			<point x="452" y="452" type="curve" smooth="yes"/>
			<point x="395" y="452"/>
			<point x="366" y="423"/>
			<point x="366" y="366" type="curve" smooth="yes"/>
			<point x="366" y="306"/>
			<point x="402" y="282"/>
			<point x="450" y="282" type="curve" smooth="yes"/>
			<point x="467" y="282" type="line"/>
			<point x="448" y="308" type="line"/>
			<point x="448" y="190" type="line" smooth="yes"/>
			<point x="448" y="102"/>
			<point x="398" y="50"/>
			<point x="312" y="50" type="curve" smooth="yes"/>
			<point x="226" y="50"/>
			<point x="176" y="102"/>
			<point x="176" y="190" type="curve" smooth="yes"/>
			<point x="176" y="430" type="line" smooth="yes"/>
			<point x="176" y="467"/>
			<point x="160" y="485"/>
			<point x="139" y="500" type="curve"/>
			<point x="139" y="506" type="line" smooth="yes"/>
			<point x="139" y="522"/>
			<point x="148" y="530"/>
			<point x="164" y="530" type="curve" smooth="yes"/>
			<point x="522" y="530" type="line"/>
			<point x="522" y="594" type="line"/>
			<point x="162" y="594" type="line" smooth="yes"/>
			<point x="107" y="594"/>
			<point x="79" y="568"/>
			<point x="79" y="516" type="curve" smooth="yes"/>
			<point x="79" y="485" type="line"/>
			<point x="96" y="472"/>
			<point x="106" y="458"/>
			<point x="106" y="430" type="curve" smooth="yes"/>
			<point x="106" y="190" type="line" smooth="yes"/>
			<point x="106" y="63"/>
			<point x="181" y="-10"/>
		</contour>
		<contour>
			<point x="451" y="406" type="curve"/>
			<point x="451" y="326" type="line"/>
			<point x="428" y="326"/>
			<point x="415" y="340"/>
			<point x="415" y="366" type="curve" smooth="yes"/>
			<point x="415" y="392"/>
			<point x="428" y="406"/>
		</contour>
	</outline>
	<anchor name="bottom" x="312" y="0"/>
	<anchor name="bottomright" x="508" y="0"/>
	<anchor name="top" x="312" y="594"/>
	<anchor name="topright" x="518" y="594"/>
</glyph>
<glyph name="cha-khmer" format="2">
	<unicode hex="1786"/>
	<advance width="624"/>
	<outline>
		<contour>
			<point x="116" y="0" type="curve"/>
			<point x="176" y="0" type="line"/>
			<point x="176" y="430" type="line" smooth="yes"/>
			<point x="176" y="467"/>
			<point x="160" y="485"/>
			<point x="139" y="500" type="curve"/>
			<point x="139" y="506" type="line" smooth="yes"/>
			<point x="139" y="522"/>
			<point x="148" y="530"/>
			<point x="164" y="530" type="curve" smooth="yes"/>
			<point x="522" y="530" type="line"/>
			<point x="522" y="594" type="line"/>
			<point x="162" y="594" type="line" smooth="yes"/>
			<point x="107" y="594"/>
			<point x="79" y="568"/>
			<point x="79" y="516" type="curve" smooth="yes"/>
			<point x="79" y="485" type="line"/>
			<point x="96" y="472"/>
			<point x="106" y="458"/>
			<point x="106" y="430" type="curve" smooth="yes"/>
			<point x="106" y="174" type="line"/>
			<point x="82" y="172"/>
			<point x="68" y="155"/>
			<point x="68" y="120" type="curve" smooth="yes"/>
			<point x="68" y="73"/>
			<point x="94" y="22"/>
		</contour>
		<contour>
			<point x="419" y="-6" type="curve" smooth="yes"/>
			<point x="478" y="-6"/>
			<point x="518" y="27"/>
			<point x="518" y="83" type="curve" smooth="yes"/>
			<point x="518" y="402" type="line" smooth="yes"/>
			<point x="518" y="436"/>
			<point x="496" y="452"/>
			<point x="452" y="452" type="curve" smooth="yes"/>
			<point x="395" y="452"/>
			<point x="366" y="423"/>
			<point x="366" y="366" type="curve" smooth="yes"/>
			<point x="366" y="306"/>
			<point x="402" y="282"/>
			<point x="450" y="282" type="curve" smooth="yes"/>
			<point x="467" y="282" type="line"/>
			<point x="448" y="308" type="line"/>
			<point x="448" y="91" type="line" smooth="yes"/>
			<point x="448" y="67"/>
			<point x="435" y="54"/>
			<point x="414" y="54" type="curve" smooth="yes"/>
			<point x="392" y="54"/>
			<point x="375" y="67"/>
			<point x="345" y="106" type="curve" smooth="yes"/>
			<point x="315" y="145"/>
			<point x="285" y="174"/>
			<point x="211" y="174" type="curve" smooth="yes"/>
			<point x="160" y="174" type="line"/>
			<point x="160" y="114" type="line"/>
			<point x="205" y="114" type="line" smooth="yes"/>
			<point x="254" y="114"/>
			<point x="269" y="98"/>
			<point x="298" y="61" type="curve" smooth="yes"/>
			<point x="328" y="22"/>
			<point x="357" y="-6"/>
		</contour>
		<contour>
			<point x="451" y="406" type="curve"/>
			<point x="451" y="326" type="line"/>
			<point x="428" y="326"/>
			<point x="415" y="340"/>
			<point x="415" y="366" type="curve" smooth="yes"/>
			<point x="415" y="392"/>
			<point x="428" y="406"/>
		</contour>
	</outline>
	<anchor name="bottom" x="312" y="0"/>
	<anchor name="bottomright" x="518" y="0"/>
	<anchor name="top" x="312" y="594"/>
	<anchor name="topright" x="518" y="594"/>
</glyph>
<glyph name="co-khmer" format="2">
	<unicode hex="1787"/>
	<advance width="604"/>
	<outline>
		<contour>
			<point x="106" y="430" type="curve" smooth="yes"/>
			<point x="106" y="0" type="line"/>
			<point x="176" y="0" type="line"/>
			<point x="302" y="126" type="line"/>
			<point x="428" y="0" type="line"/>
			<point x="498" y="0" type="line"/>
			<point x="498" y="400" type="line"/>
			<point x="428" y="400" type="line"/>
			<point x="428" y="86" type="line"/>
			<point x="302" y="209" type="line"/>
			<point x="176" y="86" type="line"/>
			<point x="176" y="430" type="line" smooth="yes"/>
			<point x="176" y="467"/>
			<point x="160" y="485"/>
			<point x="139" y="500" type="curve"/>
			<point x="139" y="506" type="line" smooth="yes"/>
			<point x="139" y="522"/>
			<point x="148" y="530"/>
			<point x="164" y="530" type="curve" smooth="yes"/>
			<point x="254" y="530" type="line"/>
			<point x="344" y="482" type="line"/>
			<point x="396" y="482" type="line" smooth="yes"/>
			<point x="468" y="482"/>
			<point x="498" y="512"/>
			<point x="498" y="582" type="curve" smooth="yes"/>
			<point x="498" y="634" type="line"/>
			<point x="432" y="634" type="line"/>
			<point x="432" y="582" type="line" smooth="yes"/>
			<point x="432" y="554"/>
			<point x="420" y="540"/>
			<point x="392" y="540" type="curve" smooth="yes"/>
			<point x="364" y="540" type="line"/>
			<point x="263" y="594" type="line"/>
			<point x="162" y="594" type="line" smooth="yes"/>
			<point x="107" y="594"/>
			<point x="79" y="568"/>
			<point x="79" y="516" type="curve" smooth="yes"/>
			<point x="79" y="485" type="line"/>
			<point x="96" y="472"/>
			<point x="106" y="458"/>
		</contour>
	</outline>
	<anchor name="bottom" x="302" y="0"/>
	<anchor name="bottomright" x="498" y="0"/>
	<anchor name="top" x="302" y="594"/>
	<anchor name="topright" x="498" y="594"/>
</glyph>
<glyph name="cho-khmer" format="2">
  <advance width="1192"/>
  <unicode hex="1788"/>
  <anchor x="898" y="0" name="bottom"/>
  <anchor x="1076" y="0" name="bottomright"/>
  <anchor x="898" y="594" name="top"/>
  <anchor x="1086" y="594" name="topright"/>
  <outline>
    <contour>
      <point x="589" y="-10" type="curve" smooth="yes"/>
      <point x="673" y="-10"/>
      <point x="721" y="29"/>
      <point x="752" y="98" type="curve"/>
      <point x="742" y="98" type="line"/>
      <point x="766" y="29"/>
      <point x="820" y="-10"/>
      <point x="904" y="-10" type="curve" smooth="yes"/>
      <point x="1020" y="-10"/>
      <point x="1086" y="54"/>
      <point x="1086" y="164" type="curve" smooth="yes"/>
      <point x="1086" y="428" type="line" smooth="yes"/>
      <point x="1086" y="466"/>
      <point x="1065" y="485"/>
      <point x="1032" y="500" type="curve"/>
      <point x="1032" y="508" type="line" smooth="yes"/>
      <point x="1032" y="523"/>
      <point x="1040" y="530"/>
      <point x="1053" y="530" type="curve" smooth="yes"/>
      <point x="1106" y="530" type="line"/>
      <point x="1106" y="594" type="line"/>
      <point x="1045" y="594" type="line" smooth="yes"/>
      <point x="997" y="594"/>
      <point x="972" y="569"/>
      <point x="972" y="520" type="curve" smooth="yes"/>
      <point x="972" y="481" type="line"/>
      <point x="1000" y="468"/>
      <point x="1016" y="456"/>
      <point x="1016" y="428" type="curve" smooth="yes"/>
      <point x="1016" y="164" type="line" smooth="yes"/>
      <point x="1016" y="92"/>
      <point x="973" y="50"/>
      <point x="898" y="50" type="curve" smooth="yes"/>
      <point x="828" y="50"/>
      <point x="782" y="93"/>
      <point x="782" y="164" type="curve" smooth="yes"/>
      <point x="782" y="428" type="line" smooth="yes"/>
      <point x="782" y="466"/>
      <point x="761" y="485"/>
      <point x="728" y="500" type="curve"/>
      <point x="728" y="508" type="line" smooth="yes"/>
      <point x="728" y="523"/>
      <point x="736" y="530"/>
      <point x="749" y="530" type="curve" smooth="yes"/>
      <point x="802" y="530" type="line"/>
      <point x="802" y="594" type="line"/>
      <point x="741" y="594" type="line" smooth="yes"/>
      <point x="693" y="594"/>
      <point x="668" y="569"/>
      <point x="668" y="520" type="curve" smooth="yes"/>
      <point x="668" y="481" type="line"/>
      <point x="696" y="468"/>
      <point x="712" y="456"/>
      <point x="712" y="428" type="curve" smooth="yes"/>
      <point x="712" y="164" type="line" smooth="yes"/>
      <point x="712" y="93"/>
      <point x="652" y="50"/>
      <point x="595" y="50" type="curve" smooth="yes"/>
      <point x="523" y="50"/>
      <point x="478" y="92"/>
      <point x="478" y="164" type="curve" smooth="yes"/>
      <point x="478" y="423" type="line" smooth="yes"/>
      <point x="478" y="538"/>
      <point x="411" y="604"/>
      <point x="293" y="604" type="curve" smooth="yes"/>
      <point x="173" y="604"/>
      <point x="106" y="538"/>
      <point x="106" y="423" type="curve" smooth="yes"/>
      <point x="106" y="44" type="line" smooth="yes"/>
      <point x="106" y="10"/>
      <point x="128" y="-6"/>
      <point x="172" y="-6" type="curve" smooth="yes"/>
      <point x="230" y="-6"/>
      <point x="259" y="23"/>
      <point x="259" y="80" type="curve" smooth="yes"/>
      <point x="259" y="140"/>
      <point x="223" y="164"/>
      <point x="174" y="164" type="curve" smooth="yes"/>
      <point x="157" y="164" type="line"/>
      <point x="176" y="138" type="line"/>
      <point x="176" y="423" type="line" smooth="yes"/>
      <point x="176" y="499"/>
      <point x="218" y="544"/>
      <point x="293" y="544" type="curve" smooth="yes"/>
      <point x="366" y="544"/>
      <point x="408" y="499"/>
      <point x="408" y="423" type="curve" smooth="yes"/>
      <point x="408" y="164" type="line" smooth="yes"/>
      <point x="408" y="54"/>
      <point x="476" y="-10"/>
    </contour>
    <contour>
      <point x="173" y="40" type="curve"/>
      <point x="173" y="120" type="line"/>
      <point x="196" y="120"/>
      <point x="209" y="106"/>
      <point x="209" y="80" type="curve" smooth="yes"/>
      <point x="209" y="54"/>
      <point x="196" y="40"/>
    </contour>
  </outline>
</glyph>
<glyph name="nyo-khmer" format="2">
	<unicode hex="1789"/>
	<advance width="926"/>
	<outline>
		<contour>
			<point x="582" y="-258" type="curve" smooth="yes"/>
			<point x="695" y="-258" type="line" smooth="yes"/>
			<point x="778" y="-258"/>
			<point x="824" y="-219"/>
			<point x="824" y="-151" type="curve" smooth="yes"/>
			<point x="824" y="-89"/>
			<point x="785" y="-54"/>
			<point x="724" y="-54" type="curve" smooth="yes"/>
			<point x="707" y="-54"/>
			<point x="678" y="-65"/>
			<point x="660" y="-73" type="curve"/>
			<point x="660" y="-127" type="line"/>
			<point x="677" y="-120"/>
			<point x="704" y="-110"/>
			<point x="717" y="-110" type="curve" smooth="yes"/>
			<point x="739" y="-110"/>
			<point x="754" y="-125"/>
			<point x="754" y="-152" type="curve" smooth="yes"/>
			<point x="754" y="-183"/>
			<point x="734" y="-198"/>
			<point x="695" y="-198" type="curve" smooth="yes"/>
			<point x="582" y="-198" type="line" smooth="yes"/>
			<point x="442" y="-198"/>
			<point x="356" y="-90"/>
			<point x="158" y="-90" type="curve" smooth="yes"/>
			<point x="126" y="-90" type="line"/>
			<point x="126" y="-150" type="line"/>
			<point x="158" y="-150" type="line" smooth="yes"/>
			<point x="340" y="-150"/>
			<point x="419" y="-258"/>
		</contour>
		<component base="nyo-khmer.less"/>
	</outline>
	<anchor name="bottom" x="626" y="-258"/>
	<anchor name="bottomright" x="810" y="-258"/>
	<anchor name="top" x="626" y="594"/>
	<anchor name="topright" x="810" y="594"/>
</glyph>
<glyph name="da-khmer" format="2">
  <advance width="612"/>
  <unicode hex="178A"/>
  <anchor x="306" y="0" name="bottom"/>
  <anchor x="506" y="0" name="bottomright"/>
  <anchor x="306" y="594" name="top"/>
  <anchor x="506" y="594" name="topright"/>
  <outline>
    <contour>
      <point x="106" y="0" type="line"/>
      <point x="176" y="0" type="line"/>
      <point x="306" y="126" type="line"/>
      <point x="436" y="0" type="line"/>
      <point x="506" y="0" type="line"/>
      <point x="506" y="390" type="line"/>
      <point x="436" y="390" type="line"/>
      <point x="436" y="85" type="line"/>
      <point x="306" y="208" type="line"/>
      <point x="176" y="85" type="line"/>
      <point x="176" y="390" type="line"/>
      <point x="106" y="390" type="line"/>
    </contour>
    <contour>
      <point x="283" y="436" type="curve" smooth="yes"/>
      <point x="436" y="436"/>
      <point x="512" y="480"/>
      <point x="512" y="565" type="curve" smooth="yes"/>
      <point x="512" y="634" type="line"/>
      <point x="442" y="634" type="line"/>
      <point x="442" y="565" type="line" smooth="yes"/>
      <point x="442" y="516"/>
      <point x="393" y="492"/>
      <point x="280" y="492" type="curve" smooth="yes"/>
      <point x="209" y="492"/>
      <point x="169" y="503"/>
      <point x="169" y="525" type="curve" smooth="yes"/>
      <point x="169" y="537"/>
      <point x="178" y="547"/>
      <point x="189" y="547" type="curve" smooth="yes"/>
      <point x="198" y="547"/>
      <point x="223" y="541"/>
      <point x="239" y="534" type="curve"/>
      <point x="239" y="586" type="line"/>
      <point x="224" y="593"/>
      <point x="199" y="600"/>
      <point x="177" y="600" type="curve" smooth="yes"/>
      <point x="132" y="600"/>
      <point x="99" y="570"/>
      <point x="99" y="528" type="curve" smooth="yes"/>
      <point x="99" y="466"/>
      <point x="162" y="436"/>
    </contour>
  </outline>
</glyph>
<glyph name="ttha-khmer" format="2">
	<advance width="618"/>
	<unicode hex="178B"/>
	<anchor x="309" y="594" name="top"/>
	<anchor x="512" y="594" name="topright"/>
	<anchor x="502" y="0" name="bottomright"/>
	<anchor x="309" y="0" name="bottom"/>
	<outline>
		<contour>
			<point x="309" y="-10" type="curve" smooth="yes"/>
			<point x="438" y="-10"/>
			<point x="512" y="63"/>
			<point x="512" y="190" type="curve" smooth="yes"/>
			<point x="512" y="414" type="line" smooth="yes"/>
			<point x="512" y="460"/>
			<point x="479" y="485"/>
			<point x="430" y="498" type="curve"/>
			<point x="430" y="517" type="line" smooth="yes"/>
			<point x="430" y="530"/>
			<point x="437" y="535"/>
			<point x="446" y="535" type="curve" smooth="yes"/>
			<point x="450" y="535" type="line"/>
			<point x="488" y="515" type="line"/>
			<point x="502" y="515" type="line" smooth="yes"/>
			<point x="534" y="515"/>
			<point x="546" y="537"/>
			<point x="546" y="559" type="curve" smooth="yes"/>
			<point x="546" y="634" type="line"/>
			<point x="488" y="634" type="line"/>
			<point x="488" y="558" type="line"/>
			<point x="501" y="560" type="line"/>
			<point x="447" y="594" type="line"/>
			<point x="437" y="594" type="line" smooth="yes"/>
			<point x="393" y="594"/>
			<point x="370" y="571"/>
			<point x="370" y="526" type="curve" smooth="yes"/>
			<point x="370" y="471" type="line"/>
			<point x="415" y="459"/>
			<point x="442" y="450"/>
			<point x="442" y="414" type="curve" smooth="yes"/>
			<point x="442" y="190" type="line" smooth="yes"/>
			<point x="442" y="102"/>
			<point x="393" y="50"/>
			<point x="309" y="50" type="curve" smooth="yes"/>
			<point x="225" y="50"/>
			<point x="176" y="102"/>
			<point x="176" y="190" type="curve" smooth="yes"/>
			<point x="176" y="307" type="line"/>
			<point x="206" y="434" type="line"/>
			<point x="206" y="550" type="line" smooth="yes"/>
			<point x="206" y="584"/>
			<point x="184" y="600"/>
			<point x="140" y="600" type="curve" smooth="yes"/>
			<point x="83" y="600"/>
			<point x="54" y="571"/>
			<point x="54" y="514" type="curve" smooth="yes"/>
			<point x="54" y="454"/>
			<point x="90" y="430"/>
			<point x="138" y="430" type="curve" smooth="yes"/>
			<point x="143" y="430" type="line"/>
			<point x="136" y="436" type="line"/>
			<point x="106" y="309" type="line"/>
			<point x="106" y="190" type="line" smooth="yes"/>
			<point x="106" y="63"/>
			<point x="180" y="-10"/>
		</contour>
		<contour>
			<point x="139" y="554" type="curve"/>
			<point x="139" y="474" type="line"/>
			<point x="116" y="474"/>
			<point x="103" y="488"/>
			<point x="103" y="514" type="curve" smooth="yes"/>
			<point x="103" y="540"/>
			<point x="116" y="554"/>
		</contour>
	</outline>
</glyph>
<glyph name="do-khmer" format="2">
	<unicode hex="178C"/>
	<advance width="574"/>
	<outline>
		<contour>
			<point x="219" y="-10" type="curve" smooth="yes"/>
			<point x="280" y="-10"/>
			<point x="394" y="41"/>
			<point x="435" y="117" type="curve"/>
			<point x="422" y="182" type="line"/>
			<point x="399" y="123"/>
			<point x="289" y="48"/>
			<point x="225" y="48" type="curve" smooth="yes"/>
			<point x="182" y="48"/>
			<point x="156" y="71"/>
			<point x="156" y="141" type="curve" smooth="yes"/>
			<point x="156" y="211" type="line"/>
			<point x="332" y="232"/>
			<point x="486" y="271"/>
			<point x="486" y="414" type="curve" smooth="yes"/>
			<point x="486" y="498" type="line"/>
			<point x="372" y="604" type="line"/>
			<point x="368" y="604" type="line"/>
			<point x="286" y="530" type="line"/>
			<point x="204" y="604" type="line"/>
			<point x="200" y="604" type="line"/>
			<point x="86" y="498" type="line"/>
			<point x="86" y="417" type="line" smooth="yes"/>
			<point x="86" y="372"/>
			<point x="120" y="343"/>
			<point x="168" y="343" type="curve" smooth="yes"/>
			<point x="187" y="343"/>
			<point x="203" y="347"/>
			<point x="210" y="350" type="curve"/>
			<point x="210" y="406" type="line"/>
			<point x="203" y="403"/>
			<point x="191" y="399"/>
			<point x="178" y="399" type="curve" smooth="yes"/>
			<point x="164" y="399"/>
			<point x="156" y="409"/>
			<point x="156" y="428" type="curve" smooth="yes"/>
			<point x="156" y="479" type="line"/>
			<point x="206" y="524" type="line"/>
			<point x="283" y="458" type="line"/>
			<point x="289" y="458" type="line"/>
			<point x="366" y="524" type="line"/>
			<point x="416" y="479" type="line"/>
			<point x="416" y="409" type="line" smooth="yes"/>
			<point x="416" y="305"/>
			<point x="295" y="288"/>
			<point x="86" y="260" type="curve"/>
			<point x="86" y="137" type="line" smooth="yes"/>
			<point x="86" y="37"/>
			<point x="138" y="-10"/>
		</contour>
		<contour>
			<point x="419" y="0" type="line"/>
			<point x="485" y="0" type="line"/>
			<point x="485" y="208" type="line"/>
			<point x="417" y="208" type="line"/>
			<point x="417" y="120" type="line"/>
		</contour>
	</outline>
	<anchor name="bottom" x="275" y="0"/>
	<anchor name="bottomright" x="485" y="0"/>
	<anchor name="top" x="286" y="594"/>
	<anchor name="topright" x="476" y="594"/>
</glyph>
<glyph name="ttho-khmer" format="2">
  <advance width="926"/>
  <unicode hex="178D"/>
  <anchor x="625" y="0" name="bottom"/>
  <anchor x="820" y="0" name="bottomright"/>
  <anchor x="625" y="594" name="top"/>
  <anchor x="820" y="594" name="topright"/>
  <outline>
    <contour>
      <point x="430" y="0" type="line"/>
      <point x="500" y="0" type="line"/>
      <point x="500" y="487" type="line"/>
      <point x="391" y="604" type="line"/>
      <point x="387" y="604" type="line"/>
      <point x="303" y="522" type="line"/>
      <point x="219" y="604" type="line"/>
      <point x="215" y="604" type="line"/>
      <point x="106" y="487" type="line"/>
      <point x="106" y="44" type="line" smooth="yes"/>
      <point x="106" y="10"/>
      <point x="128" y="-6"/>
      <point x="172" y="-6" type="curve" smooth="yes"/>
      <point x="230" y="-6"/>
      <point x="259" y="23"/>
      <point x="259" y="80" type="curve" smooth="yes"/>
      <point x="259" y="140"/>
      <point x="223" y="164"/>
      <point x="174" y="164" type="curve" smooth="yes"/>
      <point x="157" y="164" type="line"/>
      <point x="176" y="138" type="line"/>
      <point x="176" y="471" type="line"/>
      <point x="222" y="522" type="line"/>
      <point x="300" y="449" type="line"/>
      <point x="306" y="449" type="line"/>
      <point x="384" y="522" type="line"/>
      <point x="430" y="471" type="line"/>
    </contour>
    <contour>
      <point x="173" y="40" type="curve"/>
      <point x="173" y="120" type="line"/>
      <point x="196" y="120"/>
      <point x="209" y="106"/>
      <point x="209" y="80" type="curve" smooth="yes"/>
      <point x="209" y="54"/>
      <point x="196" y="40"/>
    </contour>
    <contour>
      <point x="724" y="-6" type="curve" smooth="yes"/>
      <point x="783" y="-6"/>
      <point x="820" y="28"/>
      <point x="820" y="87" type="curve" smooth="yes"/>
      <point x="820" y="428" type="line" smooth="yes"/>
      <point x="820" y="466"/>
      <point x="799" y="485"/>
      <point x="766" y="500" type="curve"/>
      <point x="766" y="508" type="line" smooth="yes"/>
      <point x="766" y="523"/>
      <point x="774" y="530"/>
      <point x="787" y="530" type="curve" smooth="yes"/>
      <point x="840" y="530" type="line"/>
      <point x="840" y="594" type="line"/>
      <point x="779" y="594" type="line" smooth="yes"/>
      <point x="731" y="594"/>
      <point x="706" y="569"/>
      <point x="706" y="520" type="curve" smooth="yes"/>
      <point x="706" y="481" type="line"/>
      <point x="734" y="468"/>
      <point x="750" y="456"/>
      <point x="750" y="428" type="curve" smooth="yes"/>
      <point x="750" y="92" type="line" smooth="yes"/>
      <point x="750" y="67"/>
      <point x="738" y="54"/>
      <point x="718" y="54" type="curve" smooth="yes"/>
      <point x="693" y="54"/>
      <point x="679" y="77"/>
      <point x="655" y="119" type="curve" smooth="yes"/>
      <point x="629" y="164"/>
      <point x="602" y="208"/>
      <point x="552" y="208" type="curve" smooth="yes"/>
      <point x="500" y="208"/>
      <point x="469" y="161"/>
      <point x="462" y="101" type="curve"/>
      <point x="485" y="86" type="line"/>
      <point x="493" y="114"/>
      <point x="507" y="147"/>
      <point x="542" y="147" type="curve" smooth="yes"/>
      <point x="565" y="147"/>
      <point x="578" y="128"/>
      <point x="604" y="84" type="curve" smooth="yes"/>
      <point x="636" y="30"/>
      <point x="658" y="-6"/>
    </contour>
  </outline>
</glyph>
<glyph name="nno-khmer" format="2">
  <advance width="1192"/>
  <unicode hex="178E"/>
  <anchor x="596" y="0" name="bottom"/>
  <anchor x="774" y="0" name="bottomright"/>
  <anchor x="596" y="594" name="top"/>
  <anchor x="1076" y="594" name="topright"/>
  <outline>
    <contour>
      <point x="418" y="420" type="curve" smooth="yes"/>
      <point x="418" y="0" type="line"/>
      <point x="488" y="0" type="line"/>
      <point x="596" y="116" type="line"/>
      <point x="704" y="0" type="line"/>
      <point x="774" y="0" type="line"/>
      <point x="774" y="420" type="line" smooth="yes"/>
      <point x="774" y="499"/>
      <point x="818" y="544"/>
      <point x="895" y="544" type="curve" smooth="yes"/>
      <point x="971" y="544"/>
      <point x="1016" y="499"/>
      <point x="1016" y="420" type="curve" smooth="yes"/>
      <point x="1016" y="0" type="line"/>
      <point x="1086" y="0" type="line"/>
      <point x="1086" y="420" type="line" smooth="yes"/>
      <point x="1086" y="537"/>
      <point x="1015" y="604"/>
      <point x="895" y="604" type="curve" smooth="yes"/>
      <point x="774" y="604"/>
      <point x="704" y="537"/>
      <point x="704" y="420" type="curve" smooth="yes"/>
      <point x="704" y="82" type="line"/>
      <point x="596" y="199" type="line"/>
      <point x="488" y="82" type="line"/>
      <point x="488" y="420" type="line" smooth="yes"/>
      <point x="488" y="537"/>
      <point x="418" y="604"/>
      <point x="297" y="604" type="curve" smooth="yes"/>
      <point x="177" y="604"/>
      <point x="106" y="537"/>
      <point x="106" y="420" type="curve" smooth="yes"/>
      <point x="106" y="44" type="line" smooth="yes"/>
      <point x="106" y="10"/>
      <point x="128" y="-6"/>
      <point x="172" y="-6" type="curve" smooth="yes"/>
      <point x="230" y="-6"/>
      <point x="259" y="23"/>
      <point x="259" y="80" type="curve" smooth="yes"/>
      <point x="259" y="140"/>
      <point x="223" y="164"/>
      <point x="174" y="164" type="curve" smooth="yes"/>
      <point x="157" y="164" type="line"/>
      <point x="176" y="138" type="line"/>
      <point x="176" y="420" type="line" smooth="yes"/>
      <point x="176" y="499"/>
      <point x="221" y="544"/>
      <point x="297" y="544" type="curve" smooth="yes"/>
      <point x="374" y="544"/>
      <point x="418" y="499"/>
    </contour>
    <contour>
      <point x="173" y="40" type="curve"/>
      <point x="173" y="120" type="line"/>
      <point x="196" y="120"/>
      <point x="209" y="106"/>
      <point x="209" y="80" type="curve" smooth="yes"/>
      <point x="209" y="54"/>
      <point x="196" y="40"/>
    </contour>
  </outline>
</glyph>
<glyph name="ta-khmer" format="2">
	<advance width="624"/>
	<unicode hex="178F"/>
	<anchor x="312" y="594" name="top"/>
	<anchor x="518" y="594" name="topright"/>
	<anchor x="518" y="0" name="bottomright"/>
	<anchor x="312" y="0" name="bottom"/>
	<outline>
		<contour>
			<point x="448" y="264" type="curve" smooth="yes"/>
			<point x="448" y="0" type="line"/>
			<point x="518" y="0" type="line"/>
			<point x="518" y="264" type="line" smooth="yes"/>
			<point x="518" y="391"/>
			<point x="443" y="464"/>
			<point x="312" y="464" type="curve" smooth="yes"/>
			<point x="181" y="464"/>
			<point x="106" y="391"/>
			<point x="106" y="264" type="curve" smooth="yes"/>
			<point x="106" y="44" type="line" smooth="yes"/>
			<point x="106" y="10"/>
			<point x="128" y="-6"/>
			<point x="172" y="-6" type="curve" smooth="yes"/>
			<point x="230" y="-6"/>
			<point x="259" y="23"/>
			<point x="259" y="80" type="curve" smooth="yes"/>
			<point x="259" y="140"/>
			<point x="223" y="164"/>
			<point x="174" y="164" type="curve" smooth="yes"/>
			<point x="157" y="164" type="line"/>
			<point x="176" y="138" type="line"/>
			<point x="176" y="264" type="line" smooth="yes"/>
			<point x="176" y="352"/>
			<point x="226" y="404"/>
			<point x="312" y="404" type="curve" smooth="yes"/>
			<point x="398" y="404"/>
			<point x="448" y="352"/>
		</contour>
		<contour>
			<point x="173" y="40" type="curve"/>
			<point x="173" y="120" type="line"/>
			<point x="196" y="120"/>
			<point x="209" y="106"/>
			<point x="209" y="80" type="curve" smooth="yes"/>
			<point x="209" y="54"/>
			<point x="196" y="40"/>
		</contour>
		<contour>
			<point x="102" y="530" type="line"/>
			<point x="522" y="530" type="line"/>
			<point x="522" y="594" type="line"/>
			<point x="102" y="594" type="line"/>
		</contour>
	</outline>
</glyph>
<glyph name="tha-khmer" format="2">
	<advance width="624"/>
	<unicode hex="1790"/>
	<anchor x="312" y="594" name="top"/>
	<anchor x="518" y="594" name="topright"/>
	<anchor x="508" y="0" name="bottomright"/>
	<anchor x="312" y="0" name="bottom"/>
	<outline>
		<contour>
			<point x="312" y="-10" type="curve" smooth="yes"/>
			<point x="443" y="-10"/>
			<point x="518" y="63"/>
			<point x="518" y="190" type="curve" smooth="yes"/>
			<point x="518" y="382" type="line" smooth="yes"/>
			<point x="518" y="416"/>
			<point x="496" y="432"/>
			<point x="452" y="432" type="curve" smooth="yes"/>
			<point x="395" y="432"/>
			<point x="366" y="403"/>
			<point x="366" y="346" type="curve" smooth="yes"/>
			<point x="366" y="286"/>
			<point x="402" y="262"/>
			<point x="450" y="262" type="curve" smooth="yes"/>
			<point x="467" y="262" type="line"/>
			<point x="448" y="288" type="line"/>
			<point x="448" y="190" type="line" smooth="yes"/>
			<point x="448" y="102"/>
			<point x="398" y="50"/>
			<point x="312" y="50" type="curve" smooth="yes"/>
			<point x="226" y="50"/>
			<point x="176" y="102"/>
			<point x="176" y="190" type="curve" smooth="yes"/>
			<point x="176" y="430" type="line" smooth="yes"/>
			<point x="176" y="467"/>
			<point x="160" y="485"/>
			<point x="139" y="500" type="curve"/>
			<point x="139" y="506" type="line" smooth="yes"/>
			<point x="139" y="522"/>
			<point x="148" y="530"/>
			<point x="164" y="530" type="curve" smooth="yes"/>
			<point x="274" y="530" type="line"/>
			<point x="364" y="482" type="line"/>
			<point x="416" y="482" type="line" smooth="yes"/>
			<point x="488" y="482"/>
			<point x="518" y="512"/>
			<point x="518" y="582" type="curve" smooth="yes"/>
			<point x="518" y="634" type="line"/>
			<point x="452" y="634" type="line"/>
			<point x="452" y="582" type="line" smooth="yes"/>
			<point x="452" y="554"/>
			<point x="440" y="540"/>
			<point x="412" y="540" type="curve" smooth="yes"/>
			<point x="384" y="540" type="line"/>
			<point x="283" y="594" type="line"/>
			<point x="162" y="594" type="line" smooth="yes"/>
			<point x="107" y="594"/>
			<point x="79" y="568"/>
			<point x="79" y="516" type="curve" smooth="yes"/>
			<point x="79" y="485" type="line"/>
			<point x="96" y="472"/>
			<point x="106" y="458"/>
			<point x="106" y="430" type="curve" smooth="yes"/>
			<point x="106" y="190" type="line" smooth="yes"/>
			<point x="106" y="63"/>
			<point x="181" y="-10"/>
		</contour>
		<contour>
			<point x="451" y="386" type="curve"/>
			<point x="451" y="306" type="line"/>
			<point x="428" y="306"/>
			<point x="415" y="320"/>
			<point x="415" y="346" type="curve" smooth="yes"/>
			<point x="415" y="372"/>
			<point x="428" y="386"/>
		</contour>
	</outline>
</glyph>
<glyph name="to-khmer" format="2">
	<advance width="574"/>
	<unicode hex="1791"/>
	<anchor x="286" y="594" name="top"/>
	<anchor x="476" y="594" name="topright"/>
	<anchor x="416" y="0" name="bottomright"/>
	<anchor x="275" y="0" name="bottom"/>
	<outline>
		<contour>
			<point x="365" y="205" type="curve"/>
			<point x="379" y="257" type="line"/>
			<point x="234" y="270"/>
			<point x="150" y="310"/>
			<point x="150" y="416" type="curve" smooth="yes"/>
			<point x="150" y="500"/>
			<point x="204" y="544"/>
			<point x="287" y="544" type="curve" smooth="yes"/>
			<point x="363" y="544"/>
			<point x="411" y="504"/>
			<point x="411" y="450" type="curve" smooth="yes"/>
			<point x="411" y="430"/>
			<point x="402" y="406"/>
			<point x="395" y="388" type="curve"/>
			<point x="466" y="388" type="line"/>
			<point x="474" y="402"/>
			<point x="482" y="425"/>
			<point x="482" y="450" type="curve" smooth="yes"/>
			<point x="482" y="537"/>
			<point x="409" y="604"/>
			<point x="286" y="604" type="curve" smooth="yes"/>
			<point x="160" y="604"/>
			<point x="78" y="536"/>
			<point x="78" y="420" type="curve" smooth="yes"/>
			<point x="78" y="269"/>
			<point x="215" y="214"/>
		</contour>
		<contour>
			<point x="275" y="-10" type="curve" smooth="yes"/>
			<point x="371" y="-10"/>
			<point x="426" y="44"/>
			<point x="426" y="137" type="curve" smooth="yes"/>
			<point x="426" y="212" type="line"/>
			<point x="409" y="186" type="line"/>
			<point x="419" y="186" type="line" smooth="yes"/>
			<point x="460" y="186"/>
			<point x="494" y="209"/>
			<point x="494" y="257" type="curve" smooth="yes"/>
			<point x="494" y="302"/>
			<point x="469" y="330"/>
			<point x="419" y="330" type="curve" smooth="yes"/>
			<point x="379" y="330"/>
			<point x="358" y="314"/>
			<point x="358" y="280" type="curve" smooth="yes"/>
			<point x="358" y="138" type="line" smooth="yes"/>
			<point x="358" y="81"/>
			<point x="328" y="48"/>
			<point x="275" y="48" type="curve" smooth="yes"/>
			<point x="222" y="48"/>
			<point x="192" y="81"/>
			<point x="192" y="138" type="curve" smooth="yes"/>
			<point x="192" y="184" type="line"/>
			<point x="124" y="184" type="line"/>
			<point x="124" y="138" type="line" smooth="yes"/>
			<point x="124" y="44"/>
			<point x="179" y="-10"/>
		</contour>
		<contour>
			<point x="418" y="228" type="curve"/>
			<point x="418" y="286" type="line"/>
			<point x="438" y="286"/>
			<point x="448" y="276"/>
			<point x="448" y="257" type="curve" smooth="yes"/>
			<point x="448" y="238"/>
			<point x="438" y="228"/>
		</contour>
	</outline>
</glyph>
<glyph name="tho-khmer" format="2">
	<advance width="624"/>
	<unicode hex="1792"/>
	<anchor x="312" y="594" name="top"/>
	<anchor x="518" y="594" name="topright"/>
	<anchor x="518" y="0" name="bottomright"/>
	<anchor x="312" y="0" name="bottom"/>
	<outline>
		<contour>
			<point x="106" y="430" type="curve" smooth="yes"/>
			<point x="106" y="0" type="line"/>
			<point x="176" y="0" type="line"/>
			<point x="312" y="126" type="line"/>
			<point x="448" y="0" type="line"/>
			<point x="518" y="0" type="line"/>
			<point x="518" y="402" type="line" smooth="yes"/>
			<point x="518" y="436"/>
			<point x="496" y="452"/>
			<point x="452" y="452" type="curve" smooth="yes"/>
			<point x="395" y="452"/>
			<point x="366" y="423"/>
			<point x="366" y="366" type="curve" smooth="yes"/>
			<point x="366" y="306"/>
			<point x="402" y="282"/>
			<point x="450" y="282" type="curve" smooth="yes"/>
			<point x="467" y="282" type="line"/>
			<point x="448" y="308" type="line"/>
			<point x="448" y="83" type="line"/>
			<point x="312" y="206" type="line"/>
			<point x="176" y="83" type="line"/>
			<point x="176" y="430" type="line" smooth="yes"/>
			<point x="176" y="467"/>
			<point x="160" y="485"/>
			<point x="139" y="500" type="curve"/>
			<point x="139" y="506" type="line" smooth="yes"/>
			<point x="139" y="522"/>
			<point x="148" y="530"/>
			<point x="164" y="530" type="curve" smooth="yes"/>
			<point x="522" y="530" type="line"/>
			<point x="522" y="594" type="line"/>
			<point x="162" y="594" type="line" smooth="yes"/>
			<point x="107" y="594"/>
			<point x="79" y="568"/>
			<point x="79" y="516" type="curve" smooth="yes"/>
			<point x="79" y="485" type="line"/>
			<point x="96" y="472"/>
			<point x="106" y="458"/>
		</contour>
		<contour>
			<point x="451" y="406" type="curve"/>
			<point x="451" y="326" type="line"/>
			<point x="428" y="326"/>
			<point x="415" y="340"/>
			<point x="415" y="366" type="curve" smooth="yes"/>
			<point x="415" y="392"/>
			<point x="428" y="406"/>
		</contour>
	</outline>
</glyph>
<glyph name="no-khmer" format="2">
	<advance width="588"/>
	<unicode hex="1793"/>
	<anchor x="300" y="594" name="top"/>
	<anchor x="486" y="594" name="topright"/>
	<anchor x="486" y="0" name="bottomright"/>
	<anchor x="300" y="0" name="bottom"/>
	<outline>
		<contour>
			<point x="334" y="-10" type="curve" smooth="yes"/>
			<point x="434" y="-10"/>
			<point x="496" y="43"/>
			<point x="496" y="135" type="curve" smooth="yes"/>
			<point x="496" y="260" type="line"/>
			<point x="292" y="290"/>
			<point x="158" y="311"/>
			<point x="158" y="429" type="curve" smooth="yes"/>
			<point x="158" y="503"/>
			<point x="213" y="544"/>
			<point x="300" y="544" type="curve" smooth="yes"/>
			<point x="381" y="544"/>
			<point x="431" y="511"/>
			<point x="431" y="457" type="curve" smooth="yes"/>
			<point x="431" y="422"/>
			<point x="413" y="402"/>
			<point x="382" y="402" type="curve" smooth="yes"/>
			<point x="366" y="402"/>
			<point x="348" y="407"/>
			<point x="337" y="412" type="curve"/>
			<point x="337" y="356" type="line"/>
			<point x="346" y="352"/>
			<point x="364" y="346"/>
			<point x="389" y="346" type="curve" smooth="yes"/>
			<point x="456" y="346"/>
			<point x="502" y="388"/>
			<point x="502" y="456" type="curve" smooth="yes"/>
			<point x="502" y="544"/>
			<point x="427" y="604"/>
			<point x="300" y="604" type="curve" smooth="yes"/>
			<point x="170" y="604"/>
			<point x="86" y="539"/>
			<point x="86" y="434" type="curve" smooth="yes"/>
			<point x="86" y="277"/>
			<point x="260" y="233"/>
			<point x="426" y="211" type="curve"/>
			<point x="426" y="137" type="line" smooth="yes"/>
			<point x="426" y="79"/>
			<point x="391" y="48"/>
			<point x="324" y="48" type="curve" smooth="yes"/>
			<point x="231" y="48"/>
			<point x="182" y="123"/>
			<point x="162" y="182" type="curve"/>
			<point x="139" y="130" type="line"/>
			<point x="172" y="53"/>
			<point x="225" y="-10"/>
		</contour>
		<contour>
			<point x="98" y="0" type="line"/>
			<point x="164" y="0" type="line"/>
			<point x="166" y="102" type="line"/>
			<point x="166" y="208" type="line"/>
			<point x="98" y="208" type="line"/>
		</contour>
	</outline>
</glyph>
<glyph name="ba-khmer" format="2">
  <advance width="622"/>
  <unicode hex="1794"/>
  <anchor x="311" y="0" name="bottom"/>
  <anchor x="506" y="0" name="bottomright"/>
  <anchor x="311" y="594" name="top"/>
  <anchor x="516" y="594" name="topright"/>
  <outline>
    <contour>
      <point x="311" y="-10" type="curve" smooth="yes"/>
      <point x="441" y="-10"/>
      <point x="516" y="63"/>
      <point x="516" y="190" type="curve" smooth="yes"/>
      <point x="516" y="428" type="line" smooth="yes"/>
      <point x="516" y="466"/>
      <point x="495" y="485"/>
      <point x="462" y="500" type="curve"/>
      <point x="462" y="508" type="line" smooth="yes"/>
      <point x="462" y="523"/>
      <point x="470" y="530"/>
      <point x="483" y="530" type="curve" smooth="yes"/>
      <point x="536" y="530" type="line"/>
      <point x="536" y="594" type="line"/>
      <point x="475" y="594" type="line" smooth="yes"/>
      <point x="427" y="594"/>
      <point x="402" y="569"/>
      <point x="402" y="520" type="curve" smooth="yes"/>
      <point x="402" y="481" type="line"/>
      <point x="430" y="468"/>
      <point x="446" y="456"/>
      <point x="446" y="428" type="curve" smooth="yes"/>
      <point x="446" y="190" type="line" smooth="yes"/>
      <point x="446" y="102"/>
      <point x="396" y="50"/>
      <point x="311" y="50" type="curve" smooth="yes"/>
      <point x="226" y="50"/>
      <point x="176" y="102"/>
      <point x="176" y="190" type="curve" smooth="yes"/>
      <point x="176" y="428" type="line" smooth="yes"/>
      <point x="176" y="466"/>
      <point x="155" y="485"/>
      <point x="122" y="500" type="curve"/>
      <point x="122" y="508" type="line" smooth="yes"/>
      <point x="122" y="523"/>
      <point x="130" y="530"/>
      <point x="143" y="530" type="curve" smooth="yes"/>
      <point x="196" y="530" type="line"/>
      <point x="196" y="594" type="line"/>
      <point x="135" y="594" type="line" smooth="yes"/>
      <point x="87" y="594"/>
      <point x="62" y="569"/>
      <point x="62" y="520" type="curve" smooth="yes"/>
      <point x="62" y="481" type="line"/>
      <point x="90" y="468"/>
      <point x="106" y="456"/>
      <point x="106" y="428" type="curve" smooth="yes"/>
      <point x="106" y="190" type="line" smooth="yes"/>
      <point x="106" y="63"/>
      <point x="181" y="-10"/>
    </contour>
  </outline>
</glyph>
